<svg xmlns="http://www.w3.org/2000/svg" xmlns:xlink="http://www.w3.org/1999/xlink" width="600" zoomAndPan="magnify" viewBox="0 0 450 449.999984" height="600" preserveAspectRatio="xMidYMid meet" version="1.0"><defs><clipPath id="id1"><path d="M 33 122.066406 L 417.535156 122.066406 L 417.535156 362.816406 L 33 362.816406 Z M 33 122.066406 " clip-rule="nonzero"/></clipPath><clipPath id="id2"><path d="M 206 116 L 208 116 L 208 118 L 206 118 Z M 206 116 " clip-rule="nonzero"/></clipPath><clipPath id="id3"><path d="M 198.582031 112.839844 L 251.289062 105.238281 L 254.5 127.507812 L 201.792969 135.109375 Z M 198.582031 112.839844 " clip-rule="nonzero"/></clipPath><clipPath id="id4"><path d="M 198.582031 112.839844 L 251.289062 105.238281 L 254.5 127.507812 L 201.792969 135.109375 Z M 198.582031 112.839844 " clip-rule="nonzero"/></clipPath><clipPath id="id5"><path d="M 205 115 L 209 115 L 209 119 L 205 119 Z M 205 115 " clip-rule="nonzero"/></clipPath><clipPath id="id6"><path d="M 198.582031 112.839844 L 251.289062 105.238281 L 254.5 127.507812 L 201.792969 135.109375 Z M 198.582031 112.839844 " clip-rule="nonzero"/></clipPath><clipPath id="id7"><path d="M 198.582031 112.839844 L 251.289062 105.238281 L 254.5 127.507812 L 201.792969 135.109375 Z M 198.582031 112.839844 " clip-rule="nonzero"/></clipPath><clipPath id="id8"><path d="M 225 109 L 231 109 L 231 116 L 225 116 Z M 225 109 " clip-rule="nonzero"/></clipPath><clipPath id="id9"><path d="M 198.582031 112.839844 L 251.289062 105.238281 L 254.5 127.507812 L 201.792969 135.109375 Z M 198.582031 112.839844 " clip-rule="nonzero"/></clipPath><clipPath id="id10"><path d="M 198.582031 112.839844 L 251.289062 105.238281 L 254.5 127.507812 L 201.792969 135.109375 Z M 198.582031 112.839844 " clip-rule="nonzero"/></clipPath><clipPath id="id11"><path d="M 224 108 L 231 108 L 231 117 L 224 117 Z M 224 108 " clip-rule="nonzero"/></clipPath><clipPath id="id12"><path d="M 198.582031 112.839844 L 251.289062 105.238281 L 254.5 127.507812 L 201.792969 135.109375 Z M 198.582031 112.839844 " clip-rule="nonzero"/></clipPath><clipPath id="id13"><path d="M 198.582031 112.839844 L 251.289062 105.238281 L 254.5 127.507812 L 201.792969 135.109375 Z M 198.582031 112.839844 " clip-rule="nonzero"/></clipPath><clipPath id="id14"><path d="M 199 112 L 252 112 L 252 123 L 199 123 Z M 199 112 " clip-rule="nonzero"/></clipPath><clipPath id="id15"><path d="M 198.582031 112.839844 L 251.289062 105.238281 L 254.5 127.507812 L 201.792969 135.109375 Z M 198.582031 112.839844 " clip-rule="nonzero"/></clipPath><clipPath id="id16"><path d="M 198.582031 112.839844 L 251.289062 105.238281 L 254.5 127.507812 L 201.792969 135.109375 Z M 198.582031 112.839844 " clip-rule="nonzero"/></clipPath><clipPath id="id17"><path d="M 198 111 L 253 111 L 253 124 L 198 124 Z M 198 111 " clip-rule="nonzero"/></clipPath><clipPath id="id18"><path d="M 198.582031 112.839844 L 251.289062 105.238281 L 254.5 127.507812 L 201.792969 135.109375 Z M 198.582031 112.839844 " clip-rule="nonzero"/></clipPath><clipPath id="id19"><path d="M 198.582031 112.839844 L 251.289062 105.238281 L 254.5 127.507812 L 201.792969 135.109375 Z M 198.582031 112.839844 " clip-rule="nonzero"/></clipPath><clipPath id="id20"><path d="M 206 115 L 251 115 L 251 123 L 206 123 Z M 206 115 " clip-rule="nonzero"/></clipPath><clipPath id="id21"><path d="M 198.582031 112.839844 L 251.289062 105.238281 L 254.5 127.507812 L 201.792969 135.109375 Z M 198.582031 112.839844 " clip-rule="nonzero"/></clipPath><clipPath id="id22"><path d="M 198.582031 112.839844 L 251.289062 105.238281 L 254.5 127.507812 L 201.792969 135.109375 Z M 198.582031 112.839844 " clip-rule="nonzero"/></clipPath><clipPath id="id23"><path d="M 200 120 L 208 120 L 208 125 L 200 125 Z M 200 120 " clip-rule="nonzero"/></clipPath><clipPath id="id24"><path d="M 198.582031 112.839844 L 251.289062 105.238281 L 254.5 127.507812 L 201.792969 135.109375 Z M 198.582031 112.839844 " clip-rule="nonzero"/></clipPath><clipPath id="id25"><path d="M 198.582031 112.839844 L 251.289062 105.238281 L 254.5 127.507812 L 201.792969 135.109375 Z M 198.582031 112.839844 " clip-rule="nonzero"/></clipPath><clipPath id="id26"><path d="M 199 119 L 209 119 L 209 126 L 199 126 Z M 199 119 " clip-rule="nonzero"/></clipPath><clipPath id="id27"><path d="M 198.582031 112.839844 L 251.289062 105.238281 L 254.5 127.507812 L 201.792969 135.109375 Z M 198.582031 112.839844 " clip-rule="nonzero"/></clipPath><clipPath id="id28"><path d="M 198.582031 112.839844 L 251.289062 105.238281 L 254.5 127.507812 L 201.792969 135.109375 Z M 198.582031 112.839844 " clip-rule="nonzero"/></clipPath><clipPath id="id29"><path d="M 223 122 L 231 122 L 231 126 L 223 126 Z M 223 122 " clip-rule="nonzero"/></clipPath><clipPath id="id30"><path d="M 198.582031 112.839844 L 251.289062 105.238281 L 254.5 127.507812 L 201.792969 135.109375 Z M 198.582031 112.839844 " clip-rule="nonzero"/></clipPath><clipPath id="id31"><path d="M 198.582031 112.839844 L 251.289062 105.238281 L 254.5 127.507812 L 201.792969 135.109375 Z M 198.582031 112.839844 " clip-rule="nonzero"/></clipPath><clipPath id="id32"><path d="M 223 121 L 232 121 L 232 127 L 223 127 Z M 223 121 " clip-rule="nonzero"/></clipPath><clipPath id="id33"><path d="M 198.582031 112.839844 L 251.289062 105.238281 L 254.5 127.507812 L 201.792969 135.109375 Z M 198.582031 112.839844 " clip-rule="nonzero"/></clipPath><clipPath id="id34"><path d="M 198.582031 112.839844 L 251.289062 105.238281 L 254.5 127.507812 L 201.792969 135.109375 Z M 198.582031 112.839844 " clip-rule="nonzero"/></clipPath><clipPath id="id35"><path d="M 213 119 L 231 119 L 231 134 L 213 134 Z M 213 119 " clip-rule="nonzero"/></clipPath><clipPath id="id36"><path d="M 198.582031 112.839844 L 251.289062 105.238281 L 254.5 127.507812 L 201.792969 135.109375 Z M 198.582031 112.839844 " clip-rule="nonzero"/></clipPath><clipPath id="id37"><path d="M 198.582031 112.839844 L 251.289062 105.238281 L 254.5 127.507812 L 201.792969 135.109375 Z M 198.582031 112.839844 " clip-rule="nonzero"/></clipPath><clipPath id="id38"><path d="M 212 118 L 232 118 L 232 134 L 212 134 Z M 212 118 " clip-rule="nonzero"/></clipPath><clipPath id="id39"><path d="M 198.582031 112.839844 L 251.289062 105.238281 L 254.5 127.507812 L 201.792969 135.109375 Z M 198.582031 112.839844 " clip-rule="nonzero"/></clipPath><clipPath id="id40"><path d="M 198.582031 112.839844 L 251.289062 105.238281 L 254.5 127.507812 L 201.792969 135.109375 Z M 198.582031 112.839844 " clip-rule="nonzero"/></clipPath><clipPath id="id41"><path d="M 211 119 L 221 119 L 221 121 L 211 121 Z M 211 119 " clip-rule="nonzero"/></clipPath><clipPath id="id42"><path d="M 198.582031 112.839844 L 251.289062 105.238281 L 254.5 127.507812 L 201.792969 135.109375 Z M 198.582031 112.839844 " clip-rule="nonzero"/></clipPath><clipPath id="id43"><path d="M 198.582031 112.839844 L 251.289062 105.238281 L 254.5 127.507812 L 201.792969 135.109375 Z M 198.582031 112.839844 " clip-rule="nonzero"/></clipPath><clipPath id="id44"><path d="M 222 117 L 234 117 L 234 119 L 222 119 Z M 222 117 " clip-rule="nonzero"/></clipPath><clipPath id="id45"><path d="M 198.582031 112.839844 L 251.289062 105.238281 L 254.5 127.507812 L 201.792969 135.109375 Z M 198.582031 112.839844 " clip-rule="nonzero"/></clipPath><clipPath id="id46"><path d="M 198.582031 112.839844 L 251.289062 105.238281 L 254.5 127.507812 L 201.792969 135.109375 Z M 198.582031 112.839844 " clip-rule="nonzero"/></clipPath><clipPath id="id47"><path d="M 222 117 L 233 117 L 233 120 L 222 120 Z M 222 117 " clip-rule="nonzero"/></clipPath><clipPath id="id48"><path d="M 198.582031 112.839844 L 251.289062 105.238281 L 254.5 127.507812 L 201.792969 135.109375 Z M 198.582031 112.839844 " clip-rule="nonzero"/></clipPath><clipPath id="id49"><path d="M 198.582031 112.839844 L 251.289062 105.238281 L 254.5 127.507812 L 201.792969 135.109375 Z M 198.582031 112.839844 " clip-rule="nonzero"/></clipPath><clipPath id="id50"><path d="M 235 115 L 244 115 L 244 117 L 235 117 Z M 235 115 " clip-rule="nonzero"/></clipPath><clipPath id="id51"><path d="M 198.582031 112.839844 L 251.289062 105.238281 L 254.5 127.507812 L 201.792969 135.109375 Z M 198.582031 112.839844 " clip-rule="nonzero"/></clipPath><clipPath id="id52"><path d="M 198.582031 112.839844 L 251.289062 105.238281 L 254.5 127.507812 L 201.792969 135.109375 Z M 198.582031 112.839844 " clip-rule="nonzero"/></clipPath><clipPath id="id53"><path d="M 209 119 L 211 119 L 211 122 L 209 122 Z M 209 119 " clip-rule="nonzero"/></clipPath><clipPath id="id54"><path d="M 198.582031 112.839844 L 251.289062 105.238281 L 254.5 127.507812 L 201.792969 135.109375 Z M 198.582031 112.839844 " clip-rule="nonzero"/></clipPath><clipPath id="id55"><path d="M 198.582031 112.839844 L 251.289062 105.238281 L 254.5 127.507812 L 201.792969 135.109375 Z M 198.582031 112.839844 " clip-rule="nonzero"/></clipPath><clipPath id="id56"><path d="M 208 119 L 211 119 L 211 122 L 208 122 Z M 208 119 " clip-rule="nonzero"/></clipPath><clipPath id="id57"><path d="M 198.582031 112.839844 L 251.289062 105.238281 L 254.5 127.507812 L 201.792969 135.109375 Z M 198.582031 112.839844 " clip-rule="nonzero"/></clipPath><clipPath id="id58"><path d="M 198.582031 112.839844 L 251.289062 105.238281 L 254.5 127.507812 L 201.792969 135.109375 Z M 198.582031 112.839844 " clip-rule="nonzero"/></clipPath><clipPath id="id59"><path d="M 220 118 L 223 118 L 223 121 L 220 121 Z M 220 118 " clip-rule="nonzero"/></clipPath><clipPath id="id60"><path d="M 198.582031 112.839844 L 251.289062 105.238281 L 254.5 127.507812 L 201.792969 135.109375 Z M 198.582031 112.839844 " clip-rule="nonzero"/></clipPath><clipPath id="id61"><path d="M 198.582031 112.839844 L 251.289062 105.238281 L 254.5 127.507812 L 201.792969 135.109375 Z M 198.582031 112.839844 " clip-rule="nonzero"/></clipPath><clipPath id="id62"><path d="M 220 117 L 224 117 L 224 121 L 220 121 Z M 220 117 " clip-rule="nonzero"/></clipPath><clipPath id="id63"><path d="M 198.582031 112.839844 L 251.289062 105.238281 L 254.5 127.507812 L 201.792969 135.109375 Z M 198.582031 112.839844 " clip-rule="nonzero"/></clipPath><clipPath id="id64"><path d="M 198.582031 112.839844 L 251.289062 105.238281 L 254.5 127.507812 L 201.792969 135.109375 Z M 198.582031 112.839844 " clip-rule="nonzero"/></clipPath><clipPath id="id65"><path d="M 233 116 L 236 116 L 236 119 L 233 119 Z M 233 116 " clip-rule="nonzero"/></clipPath><clipPath id="id66"><path d="M 198.582031 112.839844 L 251.289062 105.238281 L 254.5 127.507812 L 201.792969 135.109375 Z M 198.582031 112.839844 " clip-rule="nonzero"/></clipPath><clipPath id="id67"><path d="M 198.582031 112.839844 L 251.289062 105.238281 L 254.5 127.507812 L 201.792969 135.109375 Z M 198.582031 112.839844 " clip-rule="nonzero"/></clipPath><clipPath id="id68"><path d="M 232 115 L 236 115 L 236 119 L 232 119 Z M 232 115 " clip-rule="nonzero"/></clipPath><clipPath id="id69"><path d="M 198.582031 112.839844 L 251.289062 105.238281 L 254.5 127.507812 L 201.792969 135.109375 Z M 198.582031 112.839844 " clip-rule="nonzero"/></clipPath><clipPath id="id70"><path d="M 198.582031 112.839844 L 251.289062 105.238281 L 254.5 127.507812 L 201.792969 135.109375 Z M 198.582031 112.839844 " clip-rule="nonzero"/></clipPath><clipPath id="id71"><path d="M 244 113 L 246 113 L 246 117 L 244 117 Z M 244 113 " clip-rule="nonzero"/></clipPath><clipPath id="id72"><path d="M 198.582031 112.839844 L 251.289062 105.238281 L 254.5 127.507812 L 201.792969 135.109375 Z M 198.582031 112.839844 " clip-rule="nonzero"/></clipPath><clipPath id="id73"><path d="M 198.582031 112.839844 L 251.289062 105.238281 L 254.5 127.507812 L 201.792969 135.109375 Z M 198.582031 112.839844 " clip-rule="nonzero"/></clipPath><clipPath id="id74"><path d="M 243 113 L 247 113 L 247 118 L 243 118 Z M 243 113 " clip-rule="nonzero"/></clipPath><clipPath id="id75"><path d="M 198.582031 112.839844 L 251.289062 105.238281 L 254.5 127.507812 L 201.792969 135.109375 Z M 198.582031 112.839844 " clip-rule="nonzero"/></clipPath><clipPath id="id76"><path d="M 198.582031 112.839844 L 251.289062 105.238281 L 254.5 127.507812 L 201.792969 135.109375 Z M 198.582031 112.839844 " clip-rule="nonzero"/></clipPath><clipPath id="id77"><path d="M 246 112 L 250 112 L 250 115 L 246 115 Z M 246 112 " clip-rule="nonzero"/></clipPath><clipPath id="id78"><path d="M 198.582031 112.839844 L 251.289062 105.238281 L 254.5 127.507812 L 201.792969 135.109375 Z M 198.582031 112.839844 " clip-rule="nonzero"/></clipPath><clipPath id="id79"><path d="M 198.582031 112.839844 L 251.289062 105.238281 L 254.5 127.507812 L 201.792969 135.109375 Z M 198.582031 112.839844 " clip-rule="nonzero"/></clipPath><clipPath id="id80"><path d="M 246 112 L 251 112 L 251 116 L 246 116 Z M 246 112 " clip-rule="nonzero"/></clipPath><clipPath id="id81"><path d="M 198.582031 112.839844 L 251.289062 105.238281 L 254.5 127.507812 L 201.792969 135.109375 Z M 198.582031 112.839844 " clip-rule="nonzero"/></clipPath><clipPath id="id82"><path d="M 198.582031 112.839844 L 251.289062 105.238281 L 254.5 127.507812 L 201.792969 135.109375 Z M 198.582031 112.839844 " clip-rule="nonzero"/></clipPath><clipPath id="id83"><path d="M 229 122 L 231 122 L 231 126 L 229 126 Z M 229 122 " clip-rule="nonzero"/></clipPath><clipPath id="id84"><path d="M 198.582031 112.839844 L 251.289062 105.238281 L 254.5 127.507812 L 201.792969 135.109375 Z M 198.582031 112.839844 " clip-rule="nonzero"/></clipPath><clipPath id="id85"><path d="M 198.582031 112.839844 L 251.289062 105.238281 L 254.5 127.507812 L 201.792969 135.109375 Z M 198.582031 112.839844 " clip-rule="nonzero"/></clipPath><clipPath id="id86"><path d="M 229 122 L 232 122 L 232 126 L 229 126 Z M 229 122 " clip-rule="nonzero"/></clipPath><clipPath id="id87"><path d="M 198.582031 112.839844 L 251.289062 105.238281 L 254.5 127.507812 L 201.792969 135.109375 Z M 198.582031 112.839844 " clip-rule="nonzero"/></clipPath><clipPath id="id88"><path d="M 198.582031 112.839844 L 251.289062 105.238281 L 254.5 127.507812 L 201.792969 135.109375 Z M 198.582031 112.839844 " clip-rule="nonzero"/></clipPath><clipPath id="id89"><path d="M 202 117 L 209 117 L 209 120 L 202 120 Z M 202 117 " clip-rule="nonzero"/></clipPath><clipPath id="id90"><path d="M 198.582031 112.839844 L 251.289062 105.238281 L 254.5 127.507812 L 201.792969 135.109375 Z M 198.582031 112.839844 " clip-rule="nonzero"/></clipPath><clipPath id="id91"><path d="M 198.582031 112.839844 L 251.289062 105.238281 L 254.5 127.507812 L 201.792969 135.109375 Z M 198.582031 112.839844 " clip-rule="nonzero"/></clipPath><clipPath id="id92"><path d="M 213 120 L 230 120 L 230 133 L 213 133 Z M 213 120 " clip-rule="nonzero"/></clipPath><clipPath id="id93"><path d="M 198.582031 112.839844 L 251.289062 105.238281 L 254.5 127.507812 L 201.792969 135.109375 Z M 198.582031 112.839844 " clip-rule="nonzero"/></clipPath><clipPath id="id94"><path d="M 198.582031 112.839844 L 251.289062 105.238281 L 254.5 127.507812 L 201.792969 135.109375 Z M 198.582031 112.839844 " clip-rule="nonzero"/></clipPath><clipPath id="id95"><path d="M 226 109 L 230 109 L 230 116 L 226 116 Z M 226 109 " clip-rule="nonzero"/></clipPath><clipPath id="id96"><path d="M 198.582031 112.839844 L 251.289062 105.238281 L 254.5 127.507812 L 201.792969 135.109375 Z M 198.582031 112.839844 " clip-rule="nonzero"/></clipPath><clipPath id="id97"><path d="M 198.582031 112.839844 L 251.289062 105.238281 L 254.5 127.507812 L 201.792969 135.109375 Z M 198.582031 112.839844 " clip-rule="nonzero"/></clipPath><clipPath id="id98"><path d="M 224 122 L 231 122 L 231 126 L 224 126 Z M 224 122 " clip-rule="nonzero"/></clipPath><clipPath id="id99"><path d="M 198.582031 112.839844 L 251.289062 105.238281 L 254.5 127.507812 L 201.792969 135.109375 Z M 198.582031 112.839844 " clip-rule="nonzero"/></clipPath><clipPath id="id100"><path d="M 198.582031 112.839844 L 251.289062 105.238281 L 254.5 127.507812 L 201.792969 135.109375 Z M 198.582031 112.839844 " clip-rule="nonzero"/></clipPath></defs><g clip-path="url(#id1)"><path fill="rgb(9.408569%, 23.919678%, 41.569519%)" d="M 155.28125 343.890625 L 151.53125 338.066406 L 148.207031 333.074219 C 147.996094 332.761719 147.726562 332.511719 147.394531 332.324219 C 147.0625 332.140625 146.707031 332.042969 146.328125 332.03125 L 133.074219 331.589844 C 132.71875 331.578125 132.375 331.644531 132.050781 331.785156 L 120.539062 336.847656 C 120.207031 336.992188 119.925781 337.203125 119.691406 337.480469 L 115.425781 342.511719 C 115.320312 342.632812 115.25 342.773438 115.210938 342.929688 C 115.175781 343.085938 115.175781 343.242188 115.210938 343.398438 C 115.25 343.554688 115.320312 343.695312 115.421875 343.816406 C 115.523438 343.941406 115.652344 344.035156 115.796875 344.097656 L 121.539062 346.554688 L 124.117188 341.398438 C 124.398438 340.839844 124.816406 340.417969 125.378906 340.140625 L 132.140625 336.761719 C 132.324219 336.667969 132.480469 336.699219 132.617188 336.855469 C 132.753906 337.011719 132.761719 337.175781 132.640625 337.34375 L 130.402344 340.539062 C 130.160156 340.886719 130.003906 341.269531 129.933594 341.6875 L 129.039062 347.054688 L 142.539062 346.054688 L 154.652344 345.160156 C 154.796875 345.148438 154.929688 345.101562 155.050781 345.019531 C 155.167969 344.9375 155.261719 344.832031 155.324219 344.703125 C 155.390625 344.570312 155.417969 344.433594 155.410156 344.289062 C 155.402344 344.144531 155.359375 344.011719 155.28125 343.890625 Z M 327.4375 336.328125 C 327.328125 335.988281 327.113281 335.746094 326.785156 335.605469 L 321.527344 333.320312 L 318.832031 331.585938 C 318.582031 331.425781 318.3125 331.339844 318.015625 331.324219 C 317.722656 331.3125 317.441406 331.371094 317.179688 331.507812 L 310.339844 335.03125 C 309.964844 335.222656 309.675781 335.5 309.46875 335.867188 L 308.234375 338.058594 C 308.140625 338.226562 308.082031 338.40625 308.058594 338.59375 C 308.035156 338.785156 308.050781 338.96875 308.101562 339.152344 C 308.152344 339.339844 308.238281 339.503906 308.355469 339.65625 C 308.476562 339.804688 308.617188 339.925781 308.785156 340.019531 L 311.527344 341.5625 L 315.167969 341.96875 C 315.429688 341.996094 315.679688 341.953125 315.917969 341.835938 C 316.152344 341.71875 316.339844 341.546875 316.476562 341.320312 L 317.527344 339.566406 L 327.253906 339.785156 C 327.402344 339.789062 327.542969 339.757812 327.675781 339.695312 C 327.808594 339.632812 327.917969 339.539062 328.007812 339.421875 C 328.09375 339.304688 328.152344 339.171875 328.175781 339.027344 C 328.203125 338.882812 328.191406 338.742188 328.148438 338.601562 Z M 417.003906 361.75 C 400.585938 344.847656 379.546875 330.265625 355.183594 318.78125 C 356.292969 318.609375 357.410156 318.542969 358.53125 318.589844 C 377.707031 300.527344 387.921875 273.535156 387.945312 250.949219 C 387.945312 250.769531 388.023438 250.640625 388.1875 250.5625 C 388.351562 250.484375 388.503906 250.5 388.644531 250.617188 C 392.117188 253.230469 393.675781 257.691406 393.589844 262.617188 C 393.585938 262.722656 393.632812 262.796875 393.734375 262.832031 C 393.832031 262.871094 393.914062 262.847656 393.980469 262.765625 C 394.601562 262.011719 395.125 261.191406 395.546875 260.3125 C 395.59375 260.207031 395.671875 260.164062 395.785156 260.179688 C 395.898438 260.195312 395.960938 260.261719 395.972656 260.375 C 396.433594 263.441406 394.816406 265.554688 394.695312 269.492188 C 394.574219 273.523438 397.953125 278.347656 396.792969 283.425781 C 396.761719 283.574219 396.804688 283.695312 396.929688 283.785156 C 397.054688 283.875 397.183594 283.882812 397.316406 283.808594 C 409.890625 276.457031 406.730469 263.269531 403.511719 257.539062 C 403.457031 257.449219 403.464844 257.359375 403.53125 257.277344 C 403.601562 257.195312 403.6875 257.171875 403.789062 257.207031 C 406.328125 258.128906 408.65625 259.4375 410.761719 261.128906 C 410.859375 261.210938 410.953125 261.214844 411.054688 261.136719 C 411.152344 261.058594 411.171875 260.960938 411.113281 260.851562 C 407.625 253.65625 399.253906 249.597656 392.992188 247.238281 C 392.800781 247.167969 392.710938 247.03125 392.71875 246.828125 C 392.730469 246.625 392.832031 246.496094 393.027344 246.445312 C 395.832031 245.683594 402.425781 243.410156 406.570312 238.019531 C 411.722656 231.3125 411.707031 220.464844 407.613281 214.851562 C 407.527344 214.730469 407.414062 214.6875 407.273438 214.726562 C 407.128906 214.765625 407.050781 214.859375 407.039062 215.003906 C 406.640625 220.535156 402.46875 226.644531 399.164062 231.917969 C 399.125 231.988281 399.0625 232.015625 398.984375 232.003906 C 398.90625 231.992188 398.855469 231.949219 398.835938 231.871094 C 398.644531 231.171875 398.21875 229.707031 397.753906 228.511719 C 397.71875 228.421875 397.652344 228.382812 397.558594 228.398438 C 397.460938 228.410156 397.410156 228.46875 397.402344 228.5625 C 397.113281 232.328125 395.5625 238.964844 391.65625 241.800781 C 391.480469 241.941406 391.304688 241.941406 391.128906 241.800781 C 390.953125 241.664062 390.910156 241.492188 391.003906 241.289062 C 394.550781 232.785156 393.492188 219.609375 391.664062 213.648438 C 391.621094 213.515625 391.53125 213.460938 391.390625 213.484375 C 391.253906 213.507812 391.1875 213.589844 391.195312 213.730469 C 391.414062 219.085938 390.722656 230.910156 387.664062 236.058594 C 387.597656 236.164062 387.503906 236.199219 387.386719 236.164062 C 387.265625 236.128906 387.210938 236.046875 387.214844 235.921875 C 387.503906 216.488281 377.101562 207.210938 369.277344 206.003906 C 369.164062 205.992188 369.085938 206.035156 369.035156 206.132812 C 368.984375 206.230469 369 206.320312 369.074219 206.402344 C 372.398438 209.898438 371.351562 215.523438 373.695312 219.453125 C 373.730469 219.507812 373.738281 219.566406 373.722656 219.632812 C 373.707031 219.695312 373.667969 219.742188 373.609375 219.773438 C 372.519531 220.386719 371.386719 220.917969 370.21875 221.359375 C 370.121094 221.394531 370.070312 221.464844 370.0625 221.566406 C 370.058594 221.667969 370.097656 221.742188 370.191406 221.789062 C 371.886719 222.722656 373.457031 223.832031 374.90625 225.113281 C 376.355469 226.394531 377.644531 227.816406 378.78125 229.382812 C 379.914062 230.949219 380.863281 232.621094 381.628906 234.398438 C 382.394531 236.171875 382.957031 238.011719 383.316406 239.910156 C 383.351562 240.117188 383.273438 240.265625 383.085938 240.359375 C 382.902344 240.453125 382.734375 240.425781 382.589844 240.277344 C 379.988281 237.492188 374.042969 233.550781 369.714844 233.160156 C 369.585938 233.144531 369.5 233.199219 369.460938 233.324219 C 369.417969 233.449219 369.457031 233.542969 369.574219 233.605469 C 373.464844 235.609375 379.640625 241.152344 382.265625 246.371094 C 382.296875 246.4375 382.308594 246.503906 382.304688 246.578125 C 382.300781 246.648438 382.277344 246.714844 382.238281 246.777344 C 382.199219 246.835938 382.144531 246.882812 382.078125 246.914062 C 382.015625 246.945312 381.945312 246.960938 381.875 246.957031 C 378.21875 246.773438 369.527344 247.585938 365.550781 249.070312 C 365.414062 249.125 365.351562 249.222656 365.367188 249.371094 C 365.378906 249.519531 365.460938 249.601562 365.609375 249.625 C 366.332031 249.730469 367.042969 249.894531 367.742188 250.117188 C 367.863281 250.15625 367.925781 250.242188 367.933594 250.367188 C 367.9375 250.496094 367.878906 250.585938 367.761719 250.636719 C 364.945312 251.78125 358.347656 255.472656 356.757812 262.726562 C 356.742188 262.796875 356.757812 262.855469 356.800781 262.910156 C 356.847656 262.960938 356.902344 262.988281 356.972656 262.984375 C 363.078125 262.597656 368.511719 261.109375 372.636719 258.714844 C 372.71875 258.664062 372.792969 258.671875 372.863281 258.738281 C 372.933594 258.800781 372.945312 258.875 372.902344 258.957031 C 371.699219 261.359375 371.003906 263.898438 370.8125 266.574219 C 370.808594 266.675781 370.855469 266.738281 370.953125 266.761719 C 371.054688 266.785156 371.125 266.75 371.167969 266.660156 C 373.09375 262.355469 378.335938 255.558594 383.316406 252.941406 C 383.382812 252.90625 383.453125 252.894531 383.53125 252.898438 C 383.605469 252.902344 383.675781 252.921875 383.738281 252.964844 C 383.800781 253.003906 383.851562 253.058594 383.886719 253.125 C 383.921875 253.191406 383.941406 253.261719 383.9375 253.335938 C 383.441406 277.003906 369.316406 301.929688 347.859375 315.492188 C 342.894531 313.339844 337.804688 311.316406 332.59375 309.425781 C 334.371094 309.019531 336.175781 308.828125 338 308.847656 C 359.703125 267.621094 352.351562 207.484375 327.023438 179.726562 C 326.902344 179.597656 326.835938 179.445312 326.820312 179.265625 C 326.804688 179.089844 326.847656 178.929688 326.941406 178.78125 C 327.039062 178.632812 327.171875 178.527344 327.335938 178.472656 C 327.503906 178.414062 327.671875 178.410156 327.839844 178.46875 C 331.164062 179.601562 334.285156 181.148438 337.199219 183.109375 C 340.117188 185.066406 342.730469 187.367188 345.035156 190.015625 C 345.144531 190.144531 345.269531 190.171875 345.417969 190.09375 C 345.566406 190.015625 345.617188 189.898438 345.574219 189.738281 C 344.574219 186.230469 342.84375 182.414062 340.246094 180.0625 C 340.128906 179.960938 340.101562 179.835938 340.171875 179.695312 C 340.242188 179.554688 340.355469 179.5 340.507812 179.535156 C 343.640625 180.203125 347.371094 181.742188 352.574219 184.066406 C 358.023438 186.496094 366.585938 183.023438 370.695312 183.601562 C 370.835938 183.617188 370.941406 183.566406 371.007812 183.441406 C 371.078125 183.316406 371.066406 183.199219 370.976562 183.089844 C 360.589844 170.855469 340.617188 169.066406 329.761719 170.910156 C 329.597656 170.9375 329.441406 170.914062 329.289062 170.84375 C 329.140625 170.773438 329.027344 170.664062 328.945312 170.519531 C 328.867188 170.375 328.835938 170.21875 328.851562 170.054688 C 328.871094 169.890625 328.9375 169.746094 329.046875 169.621094 C 331.011719 167.621094 333.25 166.003906 335.765625 164.761719 C 338.277344 163.519531 340.925781 162.726562 343.707031 162.382812 C 343.863281 162.367188 343.957031 162.285156 343.992188 162.136719 C 344.03125 161.988281 343.984375 161.875 343.855469 161.789062 C 342.027344 160.605469 338.519531 159.449219 335.902344 159.90625 C 335.757812 159.929688 335.648438 159.878906 335.578125 159.75 C 335.507812 159.621094 335.523438 159.503906 335.625 159.394531 C 338.589844 156.175781 341.28125 152.746094 343.699219 149.101562 C 348.300781 142.265625 346.332031 127.867188 347.355469 122.90625 C 347.382812 122.765625 347.339844 122.65625 347.21875 122.574219 C 347.097656 122.496094 346.980469 122.496094 346.859375 122.574219 C 341.613281 126.085938 332.339844 136.078125 328.363281 145.789062 C 328.320312 145.90625 328.234375 145.953125 328.113281 145.933594 C 327.996094 145.910156 327.929688 145.839844 327.925781 145.71875 C 327.667969 141.863281 325.78125 136.101562 324.46875 133.34375 C 324.414062 133.238281 324.328125 133.203125 324.210938 133.234375 C 324.09375 133.265625 324.039062 133.339844 324.042969 133.460938 C 324.332031 137.289062 325.1875 150.292969 324.1875 158.53125 C 324.167969 158.636719 324.105469 158.699219 323.996094 158.71875 C 323.886719 158.734375 323.808594 158.691406 323.761719 158.59375 C 323.296875 157.558594 322.640625 156.660156 321.789062 155.90625 C 321.707031 155.839844 321.625 155.832031 321.535156 155.882812 C 321.445312 155.9375 321.40625 156.011719 321.421875 156.113281 C 321.882812 159.082031 321.914062 162.054688 321.519531 165.03125 C 321.492188 165.21875 321.40625 165.378906 321.261719 165.503906 C 321.121094 165.632812 320.953125 165.699219 320.757812 165.703125 C 320.566406 165.707031 320.394531 165.644531 320.246094 165.523438 C 320.097656 165.402344 320.007812 165.25 319.972656 165.058594 C 317.945312 153.710938 310.804688 139.421875 304.464844 134.199219 C 304.4375 134.175781 304.40625 134.175781 304.378906 134.199219 C 304.347656 134.222656 304.339844 134.25 304.355469 134.285156 C 306.527344 138.832031 307.992188 143.597656 308.75 148.578125 C 308.765625 148.636719 308.742188 148.671875 308.6875 148.6875 C 308.628906 148.703125 308.59375 148.679688 308.578125 148.625 C 301.191406 131.308594 286.9375 122.046875 273.6875 122.484375 C 273.632812 122.472656 273.597656 122.496094 273.585938 122.554688 C 273.574219 122.609375 273.597656 122.644531 273.65625 122.65625 C 277.011719 124.523438 280.21875 134.714844 285.839844 138.414062 C 285.863281 138.425781 285.871094 138.445312 285.867188 138.472656 C 285.863281 138.496094 285.851562 138.515625 285.824219 138.519531 C 284.542969 138.816406 283.40625 139.398438 282.421875 140.269531 C 282.398438 140.292969 282.394531 140.316406 282.402344 140.34375 C 282.410156 140.371094 282.425781 140.386719 282.453125 140.394531 C 292.210938 142.910156 304.9375 152.414062 313.742188 166.402344 C 313.851562 166.566406 313.886719 166.75 313.859375 166.941406 C 313.832031 167.136719 313.742188 167.296875 313.59375 167.425781 C 313.445312 167.554688 313.269531 167.617188 313.074219 167.613281 C 312.878906 167.613281 312.707031 167.546875 312.558594 167.417969 C 300.628906 156.792969 285.429688 151.21875 278.089844 153.273438 C 278.003906 153.292969 277.960938 153.347656 277.960938 153.433594 C 277.960938 153.523438 278.003906 153.574219 278.089844 153.59375 C 284.078125 154.867188 289.46875 157.40625 294.261719 161.214844 C 294.324219 161.269531 294.335938 161.335938 294.300781 161.410156 C 294.269531 161.488281 294.210938 161.519531 294.128906 161.511719 C 275.800781 159.039062 260.058594 176.601562 258.890625 186.402344 C 258.878906 186.488281 258.910156 186.542969 258.988281 186.574219 C 259.066406 186.605469 259.128906 186.589844 259.179688 186.519531 C 262.179688 182.351562 271.144531 183.203125 276.226562 180.933594 C 276.277344 180.910156 276.324219 180.914062 276.371094 180.949219 C 276.414062 180.980469 276.433594 181.023438 276.425781 181.078125 C 276.253906 182.882812 276.617188 184.570312 277.511719 186.144531 C 277.550781 186.210938 277.613281 186.238281 277.6875 186.230469 C 277.761719 186.21875 277.816406 186.179688 277.84375 186.109375 C 283.210938 172.769531 293.585938 172.003906 301.214844 172.53125 C 301.316406 172.535156 301.378906 172.589844 301.402344 172.6875 C 301.421875 172.785156 301.390625 172.859375 301.300781 172.910156 C 298.441406 174.527344 295.632812 178.929688 294.691406 181.65625 C 294.65625 181.757812 294.683594 181.839844 294.773438 181.902344 C 294.863281 181.964844 294.949219 181.957031 295.03125 181.890625 C 299.394531 177.855469 307.304688 175.957031 312.875 176.78125 C 313.054688 176.808594 313.210938 176.890625 313.332031 177.023438 C 313.457031 177.15625 313.527344 177.3125 313.542969 177.496094 C 313.558594 177.675781 313.515625 177.84375 313.414062 177.996094 C 313.3125 178.148438 313.175781 178.25 313.003906 178.308594 C 307.40625 180.226562 301.101562 184.9375 299.546875 188.070312 C 299.507812 188.148438 299.519531 188.21875 299.585938 188.28125 C 299.648438 188.339844 299.71875 188.351562 299.796875 188.308594 C 301.570312 187.285156 303.476562 186.667969 305.511719 186.453125 C 305.609375 186.445312 305.671875 186.484375 305.707031 186.574219 C 305.738281 186.664062 305.71875 186.738281 305.640625 186.792969 C 297.101562 193.660156 297.210938 208.539062 298.855469 213.242188 C 298.890625 213.34375 298.964844 213.398438 299.074219 213.40625 C 299.183594 213.410156 299.261719 213.363281 299.3125 213.265625 C 299.503906 212.871094 299.734375 212.507812 300.007812 212.164062 C 300.070312 212.085938 300.152344 212.054688 300.253906 212.070312 C 300.351562 212.085938 300.421875 212.144531 300.453125 212.242188 C 301.214844 214.300781 302.355469 216.128906 303.878906 217.714844 C 305.398438 219.300781 307.171875 220.519531 309.203125 221.371094 C 309.300781 221.40625 309.382812 221.386719 309.457031 221.316406 C 309.53125 221.242188 309.550781 221.15625 309.515625 221.058594 C 308.421875 218.023438 307.59375 212.117188 308.210938 209.476562 C 308.230469 209.382812 308.289062 209.316406 308.382812 209.285156 C 308.476562 209.253906 308.5625 209.273438 308.636719 209.335938 C 309.15625 209.808594 309.75 210.15625 310.417969 210.378906 C 310.511719 210.398438 310.585938 210.375 310.652344 210.308594 C 310.714844 210.238281 310.734375 210.160156 310.707031 210.074219 C 309.835938 207.289062 309.464844 199.332031 311.285156 195.070312 C 311.320312 194.980469 311.386719 194.941406 311.480469 194.953125 C 311.574219 194.964844 311.628906 195.019531 311.640625 195.109375 C 312.25 199.929688 316.808594 207.28125 320.550781 208.980469 C 320.632812 209.019531 320.703125 209.007812 320.765625 208.9375 C 320.824219 208.871094 320.828125 208.796875 320.78125 208.722656 C 316.121094 201.191406 316.367188 185.480469 319.925781 180.890625 C 319.996094 180.796875 320.082031 180.722656 320.1875 180.667969 C 320.289062 180.617188 320.398438 180.585938 320.515625 180.582031 C 320.632812 180.578125 320.742188 180.597656 320.851562 180.644531 C 320.957031 180.691406 321.050781 180.757812 321.128906 180.84375 C 354.636719 219.777344 351.375 280.757812 320.917969 305.488281 C 309.570312 301.910156 298.046875 299.007812 286.355469 296.789062 C 286.273438 296.769531 286.234375 296.722656 286.246094 296.636719 C 286.253906 296.554688 286.300781 296.511719 286.386719 296.515625 C 290.621094 296.710938 294.761719 297.042969 298.328125 297.582031 C 298.375 293.667969 298.921875 286.050781 299.164062 282.859375 C 299.167969 282.78125 299.210938 282.742188 299.289062 282.742188 C 299.363281 282.742188 299.40625 282.78125 299.414062 282.859375 C 300.296875 292.332031 300.679688 296.886719 300.773438 298 C 302.519531 298.308594 304.222656 298.789062 305.871094 299.441406 L 305.871094 269.285156 C 305.871094 264.5625 284.175781 247.402344 272.78125 244.167969 C 272.707031 244.144531 272.671875 244.09375 272.679688 244.011719 C 272.6875 243.933594 272.734375 243.890625 272.8125 243.882812 C 276.632812 243.679688 282.234375 246.539062 283.988281 247.496094 C 284.046875 247.53125 284.109375 247.546875 284.179688 247.546875 C 284.246094 247.546875 284.308594 247.527344 284.367188 247.496094 C 284.425781 247.464844 284.472656 247.417969 284.507812 247.359375 C 284.546875 247.304688 284.5625 247.242188 284.566406 247.175781 C 284.78125 242.691406 285.089844 232.550781 266.972656 223.609375 C 266.863281 223.570312 266.828125 223.496094 266.863281 223.386719 C 266.898438 223.277344 266.96875 223.238281 267.082031 223.269531 C 271.609375 224.066406 278.429688 228.738281 280.351562 230.105469 C 280.421875 230.15625 280.492188 230.15625 280.5625 230.101562 C 280.632812 230.042969 280.652344 229.976562 280.613281 229.894531 C 280.195312 228.941406 279.355469 227.039062 278.71875 225.699219 C 278.675781 225.613281 278.691406 225.539062 278.765625 225.480469 C 278.84375 225.417969 278.917969 225.417969 278.992188 225.480469 C 283.109375 228.921875 290.761719 238.496094 290.105469 248.078125 C 290.085938 248.246094 290.148438 248.371094 290.289062 248.460938 C 290.429688 248.550781 290.570312 248.554688 290.714844 248.472656 C 292.660156 247.210938 293.503906 243.757812 293.773438 242.382812 C 293.789062 242.304688 293.835938 242.265625 293.914062 242.261719 C 293.992188 242.261719 294.042969 242.296875 294.0625 242.375 C 294.40625 243.671875 294.566406 244.996094 294.550781 246.339844 C 294.554688 246.421875 294.59375 246.472656 294.675781 246.492188 C 294.753906 246.511719 294.816406 246.484375 294.851562 246.410156 C 295.65625 244.484375 296.144531 242.476562 296.316406 240.394531 C 296.324219 240.316406 296.367188 240.273438 296.445312 240.261719 C 296.523438 240.25 296.578125 240.277344 296.609375 240.351562 C 298.363281 245.074219 298.914062 249.933594 298.265625 254.929688 C 298.257812 254.996094 298.28125 255.050781 298.339844 255.089844 C 298.402344 255.128906 298.460938 255.128906 298.519531 255.09375 C 299.492188 254.277344 300.300781 253.324219 300.941406 252.230469 C 300.988281 252.160156 301.054688 252.132812 301.136719 252.152344 C 301.222656 252.167969 301.269531 252.222656 301.285156 252.304688 C 301.710938 254.199219 301.65625 256.082031 301.117188 257.949219 C 301.097656 258.023438 301.117188 258.085938 301.171875 258.140625 C 301.226562 258.191406 301.292969 258.207031 301.367188 258.183594 C 303.753906 257.1875 305.765625 252.015625 305.164062 247.136719 C 305.152344 247.035156 305.195312 246.96875 305.292969 246.933594 C 305.386719 246.898438 305.464844 246.925781 305.519531 247.011719 C 308.039062 250.921875 309.792969 257.789062 307.542969 263.222656 C 307.503906 263.308594 307.515625 263.386719 307.570312 263.460938 C 307.628906 263.535156 307.707031 263.566406 307.796875 263.546875 C 308.964844 263.292969 309.96875 262.742188 310.8125 261.894531 C 310.882812 261.816406 310.96875 261.800781 311.0625 261.847656 C 311.15625 261.890625 311.199219 261.964844 311.1875 262.070312 C 310.855469 264.011719 310.085938 265.757812 308.875 267.308594 C 308.808594 267.375 308.796875 267.453125 308.832031 267.539062 C 308.871094 267.621094 308.933594 267.664062 309.027344 267.664062 C 312.621094 267.828125 317.03125 264.59375 317.03125 256.796875 C 317.03125 230.652344 256.867188 196.515625 224.367188 196.515625 C 195.699219 196.515625 133.371094 230.816406 133.371094 255.464844 C 133.371094 264.695312 136.414062 268.144531 139.304688 268.140625 C 139.394531 268.144531 139.464844 268.109375 139.515625 268.035156 C 139.566406 267.960938 139.570312 267.882812 139.535156 267.800781 C 138.734375 265.59375 138.34375 263.316406 138.371094 260.96875 C 138.371094 260.867188 138.417969 260.804688 138.519531 260.78125 C 138.617188 260.753906 138.6875 260.789062 138.734375 260.878906 C 139.164062 261.632812 139.671875 262.332031 140.265625 262.96875 C 139.125 259.171875 138.375 252.847656 141.664062 248.230469 C 141.777344 248.125 141.902344 248.109375 142.042969 248.175781 C 142.183594 248.246094 142.246094 248.355469 142.234375 248.511719 C 141.832031 252.289062 143.753906 256.398438 146.535156 257.789062 C 149.035156 255.625 153.203125 252.628906 153.203125 252.628906 C 151.839844 249.59375 152.40625 244.492188 153.148438 242.722656 C 153.179688 242.644531 153.238281 242.609375 153.324219 242.617188 C 153.410156 242.625 153.460938 242.667969 153.480469 242.753906 C 153.828125 244.210938 154.480469 245.515625 155.4375 246.667969 C 156.394531 247.820312 157.558594 248.699219 158.929688 249.304688 C 159.015625 249.339844 159.089844 249.324219 159.152344 249.257812 C 159.21875 249.191406 159.230469 249.117188 159.195312 249.035156 C 158.679688 247.695312 158.347656 246.3125 158.195312 244.886719 C 158.039062 243.460938 158.070312 242.039062 158.285156 240.621094 C 158.503906 239.203125 158.898438 237.839844 159.46875 236.523438 C 160.039062 235.207031 160.769531 233.988281 161.660156 232.863281 C 173.054688 217.9375 200.925781 206.265625 212.457031 202.417969 C 212.597656 202.355469 212.699219 202.398438 212.757812 202.539062 C 212.820312 202.683594 212.777344 202.78125 212.636719 202.84375 C 193.839844 213.066406 177.4375 222.886719 169.953125 231.664062 C 165.15625 237.289062 165.257812 242.585938 166.851562 246.976562 C 166.878906 247.058594 166.9375 247.097656 167.019531 247.097656 C 167.105469 247.097656 167.164062 247.058594 167.191406 246.976562 C 167.53125 246.054688 167.972656 245.179688 168.507812 244.351562 C 168.578125 244.238281 168.679688 244.191406 168.8125 244.207031 C 168.945312 244.226562 169.035156 244.296875 169.074219 244.425781 L 169.535156 245.808594 C 169.535156 245.808594 172.742188 244.871094 176.523438 243.960938 C 176.605469 243.941406 176.660156 243.972656 176.691406 244.050781 C 176.71875 244.132812 176.695312 244.191406 176.621094 244.230469 C 166.800781 248.910156 144.371094 261.117188 144.371094 271.953125 L 144.371094 297.929688 C 145.332031 297.558594 146.324219 297.351562 147.355469 297.3125 C 147.386719 288.332031 147.949219 279.609375 148.191406 276.21875 C 148.191406 276.136719 148.234375 276.097656 148.316406 276.097656 C 148.398438 276.097656 148.4375 276.136719 148.4375 276.21875 C 149.265625 285.488281 149.65625 294.050781 149.777344 297.09375 C 153.441406 296.820312 158.546875 296.636719 163.941406 296.511719 C 164.027344 296.507812 164.074219 296.550781 164.082031 296.636719 C 164.089844 296.71875 164.054688 296.769531 163.96875 296.78125 C 152.304688 299.003906 140.808594 301.902344 129.488281 305.480469 C 98.988281 280.710938 95.757812 219.601562 129.417969 180.671875 C 129.535156 180.535156 129.679688 180.46875 129.859375 180.464844 C 130.035156 180.464844 130.183594 180.527344 130.304688 180.664062 C 134 184.914062 134.359375 200.769531 129.757812 208.5 C 129.695312 208.609375 129.703125 208.710938 129.789062 208.800781 C 129.875 208.894531 129.976562 208.914062 130.089844 208.859375 C 133.742188 206.996094 138.066406 199.992188 138.746094 195.269531 C 138.761719 195.152344 138.828125 195.085938 138.949219 195.070312 C 139.066406 195.054688 139.148438 195.105469 139.191406 195.214844 C 140.945312 199.539062 140.554688 207.40625 139.691406 210.109375 C 139.667969 210.1875 139.683594 210.257812 139.738281 210.316406 C 139.792969 210.375 139.863281 210.398438 139.941406 210.378906 C 140.757812 210.101562 141.472656 209.65625 142.078125 209.046875 C 142.914062 211.429688 142.042969 217.898438 140.878906 221.09375 C 140.847656 221.179688 140.867188 221.257812 140.933594 221.324219 C 141 221.390625 141.078125 221.410156 141.164062 221.375 C 142.175781 220.957031 143.128906 220.4375 144.03125 219.820312 C 144.933594 219.203125 145.765625 218.5 146.519531 217.710938 C 147.277344 216.925781 147.945312 216.066406 148.523438 215.140625 C 149.105469 214.210938 149.582031 213.238281 149.960938 212.210938 C 149.992188 212.121094 150.054688 212.066406 150.152344 212.050781 C 150.246094 212.035156 150.324219 212.0625 150.386719 212.136719 C 150.789062 212.636719 151.101562 213.1875 151.324219 213.789062 C 153.15625 209.882812 153.675781 194.152344 144.933594 186.917969 C 144.832031 186.839844 144.804688 186.738281 144.851562 186.621094 C 144.894531 186.5 144.984375 186.445312 145.109375 186.453125 C 146.992188 186.6875 148.757812 187.265625 150.414062 188.1875 C 150.527344 188.246094 150.625 188.230469 150.710938 188.136719 C 150.796875 188.046875 150.808594 187.945312 150.746094 187.835938 C 148.878906 184.472656 141.921875 179.476562 136.179688 177.917969 C 135.953125 177.855469 135.839844 177.707031 135.84375 177.472656 C 135.847656 177.238281 135.960938 177.089844 136.191406 177.03125 C 141.746094 175.648438 150.609375 177.5 155.34375 181.847656 C 155.429688 181.925781 155.519531 181.929688 155.617188 181.867188 C 155.714844 181.800781 155.742188 181.714844 155.703125 181.605469 C 154.757812 178.90625 152.011719 174.59375 149.195312 172.945312 C 149.09375 172.890625 149.054688 172.808594 149.078125 172.695312 C 149.105469 172.582031 149.175781 172.519531 149.289062 172.511719 C 156.890625 172 167.164062 172.808594 172.523438 185.996094 C 172.558594 186.085938 172.625 186.136719 172.722656 186.148438 C 172.820312 186.15625 172.894531 186.121094 172.949219 186.039062 C 173.769531 184.542969 174.117188 182.941406 173.996094 181.238281 C 173.984375 181.144531 174.015625 181.070312 174.089844 181.015625 C 174.164062 180.960938 174.242188 180.953125 174.328125 180.988281 C 179.328125 183.125 187.878906 182.414062 191.027344 186.253906 C 191.101562 186.355469 191.199219 186.382812 191.316406 186.335938 C 191.433594 186.285156 191.484375 186.199219 191.46875 186.074219 C 190.015625 176.269531 174.566406 159.226562 156.554688 161.464844 C 156.429688 161.480469 156.34375 161.433594 156.292969 161.316406 C 156.242188 161.203125 156.261719 161.105469 156.355469 161.027344 C 161.003906 157.394531 166.210938 154.9375 171.972656 153.65625 C 172.097656 153.628906 172.164062 153.550781 172.167969 153.421875 C 172.171875 153.292969 172.109375 153.210938 171.984375 153.179688 C 164.097656 151.273438 147.867188 157.597656 135.867188 169.246094 C 135.792969 169.316406 135.707031 169.355469 135.609375 169.363281 C 135.507812 169.367188 135.417969 169.339844 135.339844 169.277344 C 135.257812 169.21875 135.207031 169.136719 135.1875 169.039062 C 135.167969 168.941406 135.183594 168.847656 135.234375 168.761719 C 143.917969 153.707031 157.253906 143.351562 167.492188 140.507812 C 167.625 140.472656 167.703125 140.386719 167.730469 140.25 C 167.761719 140.117188 167.71875 140.003906 167.613281 139.917969 C 166.839844 139.339844 165.992188 138.910156 165.0625 138.640625 C 164.945312 138.601562 164.875 138.523438 164.859375 138.398438 C 164.839844 138.273438 164.882812 138.175781 164.988281 138.105469 C 170.03125 134.421875 173.101562 125.589844 176.171875 123.042969 C 176.292969 122.949219 176.332031 122.828125 176.28125 122.683594 C 176.234375 122.539062 176.132812 122.464844 175.976562 122.460938 C 163.402344 122.386719 150.054688 130.976562 142.617188 146.84375 C 142.535156 147.027344 142.394531 147.085938 142.203125 147.023438 C 142.011719 146.960938 141.933594 146.832031 141.972656 146.632812 C 142.730469 142.753906 143.917969 139.007812 145.527344 135.394531 C 145.597656 135.226562 145.558594 135.09375 145.410156 134.992188 C 145.261719 134.890625 145.121094 134.902344 144.992188 135.03125 C 138.507812 141.203125 131.511719 156.046875 130.121094 167.117188 C 130.09375 167.335938 129.976562 167.449219 129.757812 167.464844 C 129.542969 167.480469 129.40625 167.382812 129.351562 167.175781 C 128.082031 162.773438 128.761719 157.515625 129 156.007812 C 129.011719 155.921875 128.980469 155.855469 128.902344 155.816406 C 128.828125 155.773438 128.757812 155.78125 128.691406 155.835938 C 127.753906 156.648438 127.042969 157.625 126.558594 158.769531 C 126.519531 158.839844 126.460938 158.871094 126.382812 158.859375 C 126.304688 158.847656 126.257812 158.800781 126.238281 158.722656 C 125.167969 150.261719 126.117188 136.550781 126.382812 133.140625 C 126.382812 133.054688 126.34375 133 126.257812 132.976562 C 126.175781 132.949219 126.109375 132.976562 126.066406 133.050781 C 124.722656 135.746094 122.640625 142.019531 122.457031 146.003906 C 122.453125 146.09375 122.40625 146.144531 122.320312 146.15625 C 122.230469 146.171875 122.171875 146.136719 122.144531 146.050781 C 118.140625 136.03125 108.394531 125.640625 103.179688 122.332031 C 103.117188 122.296875 103.0625 122.296875 103.003906 122.339844 C 102.949219 122.378906 102.929688 122.433594 102.945312 122.503906 C 104.179688 127.046875 101.96875 142.0625 106.699219 149.089844 C 109.195312 152.859375 111.988281 156.398438 115.078125 159.699219 C 115.144531 159.761719 115.152344 159.832031 115.109375 159.910156 C 115.0625 159.988281 114.996094 160.015625 114.90625 159.984375 C 112.054688 159.265625 107.886719 160.730469 106.132812 162.066406 C 106.074219 162.109375 106.054688 162.164062 106.078125 162.234375 C 106.097656 162.304688 106.144531 162.339844 106.21875 162.34375 C 111.664062 162.617188 118.652344 166.164062 122.035156 170.414062 C 122.15625 170.566406 122.167969 170.726562 122.066406 170.894531 C 121.964844 171.058594 121.816406 171.125 121.625 171.085938 C 110.945312 168.941406 89.777344 170.492188 79.148438 183.40625 C 79.097656 183.464844 79.09375 183.527344 79.132812 183.59375 C 79.175781 183.65625 79.230469 183.683594 79.304688 183.667969 C 83.230469 182.777344 92.191406 186.574219 97.820312 184.058594 C 103.175781 181.671875 106.972656 180.109375 110.160156 179.472656 C 110.277344 179.445312 110.363281 179.488281 110.414062 179.59375 C 110.46875 179.703125 110.449219 179.796875 110.359375 179.875 C 107.570312 182.273438 105.746094 186.359375 104.734375 190.042969 C 104.699219 190.167969 104.738281 190.261719 104.855469 190.324219 C 104.972656 190.382812 105.070312 190.363281 105.152344 190.261719 C 107.570312 187.4375 110.328125 185 113.429688 182.945312 C 116.53125 180.894531 119.855469 179.3125 123.40625 178.195312 C 123.671875 178.117188 123.875 178.195312 124.023438 178.433594 C 124.167969 178.667969 124.148438 178.886719 123.957031 179.089844 C 98.15625 206.554688 90.523438 267.300781 112.398438 308.84375 C 114.222656 308.824219 116.023438 309.015625 117.800781 309.417969 C 112.589844 311.3125 107.503906 313.335938 102.535156 315.488281 C 81.136719 301.960938 67.027344 277.125 66.460938 253.515625 C 66.460938 253.417969 66.484375 253.328125 66.53125 253.242188 C 66.578125 253.160156 66.644531 253.09375 66.726562 253.042969 C 66.808594 252.996094 66.898438 252.96875 66.992188 252.96875 C 67.089844 252.964844 67.179688 252.988281 67.265625 253.035156 C 72.160156 255.703125 77.261719 262.316406 79.191406 266.574219 C 79.238281 266.675781 79.316406 266.710938 79.425781 266.6875 C 79.535156 266.660156 79.585938 266.589844 79.582031 266.476562 C 79.378906 263.839844 78.683594 261.332031 77.5 258.964844 C 77.457031 258.878906 77.472656 258.800781 77.542969 258.738281 C 77.613281 258.671875 77.691406 258.664062 77.773438 258.714844 C 81.960938 261.136719 87.484375 262.636719 93.695312 262.992188 C 92.1875 255.453125 85.292969 251.683594 82.511719 250.582031 C 82.417969 250.542969 82.371094 250.46875 82.375 250.367188 C 82.378906 250.261719 82.429688 250.191406 82.527344 250.15625 C 83.347656 249.886719 84.183594 249.695312 85.039062 249.585938 C 85.152344 249.574219 85.214844 249.511719 85.226562 249.402344 C 85.242188 249.292969 85.199219 249.214844 85.097656 249.171875 C 81.3125 247.644531 72.527344 246.796875 68.691406 246.945312 C 68.597656 246.949219 68.511719 246.929688 68.429688 246.886719 C 68.347656 246.839844 68.28125 246.78125 68.234375 246.703125 C 68.1875 246.621094 68.160156 246.539062 68.15625 246.445312 C 68.15625 246.351562 68.175781 246.265625 68.21875 246.183594 C 70.984375 240.839844 77.402344 235.199219 81.210938 233.40625 C 81.28125 233.371094 81.308594 233.316406 81.289062 233.238281 C 81.269531 233.164062 81.21875 233.128906 81.140625 233.128906 C 76.960938 233.253906 71.011719 237.050781 68.152344 239.910156 C 67.945312 240.113281 67.71875 240.144531 67.464844 240.003906 C 67.210938 239.867188 67.117188 239.652344 67.179688 239.371094 C 67.566406 237.535156 68.144531 235.761719 68.914062 234.046875 C 69.679688 232.335938 70.621094 230.722656 71.734375 229.210938 C 72.847656 227.699219 74.105469 226.324219 75.515625 225.082031 C 76.921875 223.839844 78.449219 222.761719 80.085938 221.84375 C 80.199219 221.789062 80.253906 221.699219 80.246094 221.570312 C 80.238281 221.445312 80.175781 221.363281 80.054688 221.320312 C 78.851562 220.851562 77.691406 220.296875 76.570312 219.65625 C 79.023438 215.804688 77.984375 210.214844 81.09375 206.644531 C 81.207031 206.519531 81.222656 206.386719 81.144531 206.238281 C 81.0625 206.09375 80.941406 206.03125 80.777344 206.0625 C 73.183594 207.449219 63.371094 216.339844 63.179688 234.597656 C 63.179688 234.730469 63.140625 234.847656 63.054688 234.953125 C 62.972656 235.054688 62.867188 235.121094 62.738281 235.152344 C 62.609375 235.179688 62.484375 235.164062 62.367188 235.105469 C 62.246094 235.046875 62.160156 234.957031 62.101562 234.839844 C 59.433594 228.90625 58.941406 217.480469 59.246094 212.945312 C 59.25 212.867188 59.214844 212.820312 59.140625 212.804688 C 59.066406 212.789062 59.015625 212.820312 58.988281 212.890625 C 57.046875 218.304688 55.738281 231.871094 59.1875 240.777344 C 59.234375 240.902344 59.242188 241.027344 59.207031 241.15625 C 59.167969 241.285156 59.09375 241.390625 58.988281 241.464844 C 58.878906 241.542969 58.757812 241.582031 58.625 241.574219 C 58.488281 241.570312 58.371094 241.523438 58.269531 241.4375 C 54.652344 238.382812 53.226562 231.972656 52.980469 228.394531 C 52.972656 228.316406 52.933594 228.273438 52.859375 228.265625 C 52.785156 228.253906 52.734375 228.28125 52.707031 228.351562 C 52.261719 229.515625 51.878906 230.699219 51.554688 231.902344 C 51.535156 231.972656 51.488281 232.015625 51.414062 232.027344 C 51.339844 232.039062 51.28125 232.011719 51.242188 231.949219 C 47.859375 226.542969 43.546875 220.25 43.332031 214.605469 C 43.332031 214.53125 43.296875 214.480469 43.226562 214.457031 C 43.15625 214.433594 43.097656 214.449219 43.046875 214.507812 C 38.691406 220.007812 38.558594 231.171875 43.824219 238.027344 C 47.757812 243.140625 53.902344 245.453125 56.914062 246.324219 C 57.179688 246.402344 57.316406 246.578125 57.328125 246.851562 C 57.339844 247.128906 57.21875 247.316406 56.960938 247.414062 C 50.660156 249.828125 42.453125 253.949219 39.136719 261.164062 C 39.105469 261.242188 39.125 261.304688 39.195312 261.351562 C 39.261719 261.402344 39.328125 261.398438 39.390625 261.34375 C 41.613281 259.503906 44.082031 258.105469 46.800781 257.144531 C 46.867188 257.121094 46.925781 257.132812 46.972656 257.1875 C 47.019531 257.242188 47.023438 257.300781 46.984375 257.363281 C 43.707031 263.03125 40.3125 276.59375 53.375 283.992188 C 53.457031 284.035156 53.535156 284.03125 53.609375 283.972656 C 53.679688 283.914062 53.703125 283.839844 53.679688 283.75 C 52.292969 278.558594 55.816406 273.617188 55.695312 269.5 C 55.578125 265.472656 53.886719 263.355469 54.457031 260.164062 C 54.472656 260.089844 54.519531 260.046875 54.597656 260.039062 C 54.675781 260.027344 54.730469 260.058594 54.761719 260.132812 C 55.226562 261.152344 55.824219 262.09375 56.554688 262.949219 C 56.597656 263.003906 56.648438 263.015625 56.714844 262.992188 C 56.777344 262.96875 56.808594 262.921875 56.804688 262.851562 C 56.667969 257.964844 58.136719 253.511719 61.480469 250.832031 C 61.675781 250.679688 61.882812 250.660156 62.105469 250.765625 C 62.328125 250.875 62.4375 251.050781 62.441406 251.300781 C 62.566406 273.816406 72.777344 300.625 91.855469 318.601562 C 92.976562 318.554688 94.09375 318.617188 95.203125 318.792969 C 70.855469 330.265625 49.816406 344.84375 33.402344 361.738281 C 33.296875 361.847656 33.238281 361.980469 33.238281 362.132812 C 33.234375 362.285156 33.28125 362.421875 33.386719 362.535156 C 33.488281 362.648438 33.617188 362.710938 33.769531 362.726562 C 33.925781 362.738281 34.0625 362.695312 34.179688 362.601562 C 76.300781 329.996094 139.746094 308.445312 211.433594 305.980469 C 211.53125 305.976562 211.621094 306.003906 211.695312 306.066406 C 211.769531 306.128906 211.816406 306.207031 211.832031 306.304688 C 211.847656 306.398438 211.828125 306.488281 211.777344 306.570312 C 211.726562 306.65625 211.652344 306.710938 211.558594 306.734375 C 193.988281 311.703125 173.859375 319.03125 162.933594 325.28125 C 162.808594 325.351562 162.71875 325.453125 162.664062 325.585938 C 162.609375 325.71875 162.601562 325.855469 162.640625 325.992188 C 162.679688 326.128906 162.757812 326.242188 162.875 326.324219 C 162.992188 326.40625 163.121094 326.445312 163.265625 326.441406 C 183.640625 325.597656 224.292969 328.960938 237.082031 330.085938 C 237.203125 330.097656 237.304688 330.144531 237.386719 330.234375 C 237.46875 330.320312 237.511719 330.421875 237.515625 330.542969 C 237.519531 330.664062 237.480469 330.769531 237.402344 330.859375 C 237.328125 330.953125 237.230469 331.007812 237.109375 331.023438 C 206.296875 335.945312 162.660156 350.78125 145.296875 360.148438 C 145.09375 360.257812 144.945312 360.417969 144.851562 360.628906 C 144.757812 360.839844 144.742188 361.058594 144.796875 361.28125 C 144.855469 361.503906 144.972656 361.6875 145.15625 361.828125 C 145.339844 361.972656 145.546875 362.042969 145.777344 362.042969 L 313.570312 362.042969 C 313.816406 362.042969 314.035156 361.960938 314.226562 361.804688 C 314.414062 361.644531 314.527344 361.441406 314.566406 361.199219 C 314.609375 360.957031 314.566406 360.726562 314.4375 360.515625 C 314.3125 360.304688 314.128906 360.160156 313.894531 360.082031 C 291.046875 352.210938 249.125 347.238281 236.9375 345.914062 C 236.753906 345.890625 236.59375 345.816406 236.464844 345.683594 C 236.332031 345.554688 236.257812 345.398438 236.234375 345.210938 C 236.214844 345.027344 236.253906 344.859375 236.351562 344.699219 C 236.449219 344.542969 236.585938 344.433594 236.757812 344.371094 C 255.449219 337.800781 278.511719 334.3125 286.710938 333.203125 C 286.875 333.179688 287.015625 333.109375 287.128906 332.988281 C 287.246094 332.867188 287.308594 332.726562 287.324219 332.558594 C 287.339844 332.394531 287.300781 332.242188 287.207031 332.105469 C 287.113281 331.964844 286.988281 331.871094 286.832031 331.820312 C 266.386719 325.417969 223.160156 320.304688 210.859375 318.9375 C 210.730469 318.921875 210.617188 318.863281 210.527344 318.769531 C 210.4375 318.671875 210.390625 318.558594 210.382812 318.425781 C 210.378906 318.296875 210.414062 318.175781 210.496094 318.074219 C 210.578125 317.96875 210.683594 317.90625 210.8125 317.878906 C 235.667969 312.820312 267.730469 311.21875 290.757812 311.257812 C 340.902344 319.890625 384.585938 338.121094 416.222656 362.609375 C 416.34375 362.703125 416.480469 362.746094 416.632812 362.734375 C 416.785156 362.722656 416.914062 362.65625 417.015625 362.542969 C 417.117188 362.429688 417.167969 362.296875 417.167969 362.144531 C 417.164062 361.992188 417.109375 361.859375 417.003906 361.75 Z M 258.660156 289.675781 C 257.417969 287.972656 255.832031 286.453125 254.765625 286.027344 C 254.710938 286.003906 254.667969 286.015625 254.628906 286.058594 C 254.589844 286.101562 254.585938 286.148438 254.613281 286.199219 C 255.394531 287.644531 255.996094 289.164062 256.421875 290.753906 C 256.433594 290.792969 256.421875 290.828125 256.390625 290.851562 C 256.355469 290.878906 256.320312 290.882812 256.285156 290.859375 C 253.191406 289.148438 248.988281 288.585938 247.453125 288.433594 C 247.394531 288.429688 247.359375 288.453125 247.347656 288.507812 C 247.332031 288.5625 247.351562 288.601562 247.402344 288.625 C 249.730469 289.652344 251.96875 290.847656 254.121094 292.199219 C 254.164062 292.230469 254.175781 292.269531 254.15625 292.316406 C 254.140625 292.367188 254.105469 292.386719 254.054688 292.382812 C 250.34375 292.058594 246.605469 291.792969 242.84375 291.585938 L 242.726562 290.699219 C 242.710938 290.582031 242.65625 290.484375 242.566406 290.40625 C 242.480469 290.328125 242.375 290.289062 242.257812 290.292969 L 240.417969 290.292969 C 240.277344 290.289062 240.160156 290.34375 240.066406 290.445312 L 239.199219 291.410156 C 238.234375 291.367188 237.261719 291.332031 236.289062 291.296875 L 235.46875 289.566406 C 235.335938 289.289062 235.121094 289.113281 234.824219 289.039062 L 232.761719 288.527344 C 232.382812 288.433594 232.0625 288.53125 231.800781 288.824219 L 229.730469 291.132812 C 228.222656 291.113281 226.710938 291.101562 225.199219 291.101562 C 220.578125 291.101562 215.996094 291.199219 211.449219 291.402344 L 209.742188 289.355469 C 209.480469 289.042969 209.148438 288.910156 208.742188 288.960938 L 195.730469 290.597656 C 195.453125 290.632812 195.21875 290.753906 195.035156 290.964844 L 193.535156 292.648438 L 193.375 292.585938 C 193.449219 290.601562 193.796875 288.667969 194.421875 286.78125 C 194.449219 286.707031 194.429688 286.648438 194.371094 286.597656 C 194.3125 286.546875 194.25 286.539062 194.179688 286.578125 C 193.289062 287.152344 192.503906 287.847656 191.828125 288.664062 C 191.777344 288.722656 191.714844 288.738281 191.644531 288.710938 C 191.574219 288.6875 191.535156 288.636719 191.53125 288.5625 L 191.53125 244.753906 C 191.527344 244.625 191.589844 244.539062 191.710938 244.496094 C 191.835938 244.457031 191.933594 244.488281 192.011719 244.589844 C 192.742188 245.476562 193.613281 246.195312 194.625 246.75 C 194.707031 246.796875 194.785156 246.792969 194.863281 246.738281 C 194.9375 246.683594 194.96875 246.609375 194.953125 246.515625 C 194.390625 242.710938 195.738281 236.636719 196.71875 234.167969 C 196.757812 234.070312 196.828125 234.03125 196.933594 234.046875 C 197.035156 234.0625 197.089844 234.121094 197.101562 234.222656 C 197.425781 237.003906 198.605469 242.292969 198.574219 244.703125 C 198.566406 244.839844 198.621094 244.945312 198.742188 245.015625 C 198.859375 245.085938 198.976562 245.082031 199.09375 245.007812 C 199.734375 244.546875 200.296875 244.007812 200.785156 243.390625 C 200.84375 243.316406 200.917969 243.261719 201.003906 243.226562 C 201.09375 243.191406 201.183594 243.183594 201.277344 243.195312 C 201.371094 243.207031 201.453125 243.242188 201.527344 243.300781 C 201.601562 243.359375 201.660156 243.429688 201.695312 243.515625 C 202.847656 246.179688 204.421875 248.5625 206.414062 250.671875 C 206.488281 250.757812 206.578125 250.777344 206.683594 250.734375 C 206.785156 250.691406 206.835938 250.613281 206.828125 250.503906 C 206.464844 242.976562 207.53125 233.289062 209.320312 228.804688 C 209.363281 228.707031 209.433594 228.671875 209.535156 228.695312 C 209.636719 228.71875 209.683594 228.785156 209.679688 228.890625 C 209.324219 232.949219 210.414062 241.183594 212.035156 244.539062 C 212.09375 244.65625 212.191406 244.714844 212.320312 244.707031 C 212.453125 244.703125 212.542969 244.640625 212.59375 244.515625 C 213.136719 243.269531 213.765625 242.066406 214.484375 240.910156 C 214.554688 240.796875 214.65625 240.75 214.789062 240.769531 C 214.921875 240.789062 215.003906 240.863281 215.035156 240.996094 L 215.433594 242.585938 C 215.5 242.839844 215.660156 242.964844 215.921875 242.964844 L 225.1875 242.964844 C 225.328125 242.964844 225.449219 243.015625 225.546875 243.117188 C 225.644531 243.214844 225.691406 243.335938 225.691406 243.476562 C 225.679688 244.253906 225.625 245.027344 225.53125 245.800781 C 226.734375 244.917969 228.078125 241.601562 228.1875 238.835938 C 228.1875 238.78125 228.214844 238.75 228.265625 238.734375 C 228.316406 238.722656 228.355469 238.738281 228.378906 238.78125 C 229.972656 241.347656 231.066406 244.109375 231.667969 247.070312 C 231.671875 247.113281 231.699219 247.144531 231.742188 247.160156 C 231.789062 247.171875 231.828125 247.160156 231.859375 247.125 C 232.480469 246.367188 232.90625 245.511719 233.136719 244.558594 C 233.179688 244.382812 233.289062 244.300781 233.46875 244.300781 C 235.835938 244.339844 239.683594 244.8125 240.640625 244.9375 C 240.789062 244.957031 240.902344 245.03125 240.976562 245.164062 C 243.132812 248.898438 243.960938 251.605469 244.023438 253.988281 C 244.023438 254.027344 244.042969 254.050781 244.078125 254.058594 C 244.117188 254.070312 244.144531 254.054688 244.160156 254.019531 C 244.695312 252.828125 245.164062 251.613281 245.5625 250.371094 C 245.585938 250.3125 245.628906 250.28125 245.695312 250.285156 C 245.757812 250.289062 245.800781 250.324219 245.8125 250.386719 C 246.601562 252.933594 246.855469 255.535156 246.574219 258.191406 C 246.566406 258.246094 246.589844 258.285156 246.640625 258.304688 C 246.695312 258.324219 246.738281 258.308594 246.765625 258.261719 C 248.480469 255.277344 250.085938 243.988281 249.25 237.539062 C 249.246094 237.488281 249.265625 237.453125 249.3125 237.433594 C 249.359375 237.414062 249.398438 237.425781 249.429688 237.46875 C 250.902344 239.875 251.714844 242.484375 251.863281 245.300781 C 253.640625 245.4375 255.863281 242.769531 256.605469 241.808594 C 256.652344 241.753906 256.703125 241.738281 256.769531 241.765625 C 256.835938 241.789062 256.867188 241.835938 256.863281 241.90625 C 256.871094 243.992188 256.675781 246.058594 256.28125 248.105469 C 256.269531 248.160156 256.289062 248.199219 256.339844 248.226562 C 256.386719 248.25 256.429688 248.246094 256.46875 248.203125 C 257.375 247.171875 258.121094 246.035156 258.714844 244.796875 C 258.753906 244.71875 258.816406 244.691406 258.902344 244.714844 C 258.984375 244.734375 259.027344 244.785156 259.03125 244.871094 L 259.03125 289.542969 C 259.039062 289.648438 258.996094 289.71875 258.898438 289.753906 C 258.800781 289.789062 258.71875 289.761719 258.660156 289.675781 Z M 258.660156 289.675781 " fill-opacity="1" fill-rule="nonzero"/></g><g clip-path="url(#id2)"><g clip-path="url(#id3)"><g clip-path="url(#id4)"><path fill="rgb(9.408569%, 23.919678%, 41.569519%)" d="M 207.667969 117.886719 L 207.257812 116.476562 L 206.125 116.535156 L 206.113281 117.167969 Z M 207.667969 117.886719 " fill-opacity="1" fill-rule="evenodd"/></g></g></g><g clip-path="url(#id5)"><g clip-path="url(#id6)"><g clip-path="url(#id7)"><path stroke-linecap="butt" transform="matrix(0.104846, -0.015116, 0.0152771, 0.105963, 181.220531, 100.088555)" fill="none" stroke-linejoin="miter" d="M 223.13736 199.796909 L 221.204651 186.213218 L 210.541223 185.245004 L 209.579272 191.079782 Z M 223.13736 199.796909 " stroke="rgb(0%, 0%, 0%)" stroke-width="1" stroke-opacity="1" stroke-miterlimit="4"/></g></g></g><g clip-path="url(#id8)"><g clip-path="url(#id9)"><g clip-path="url(#id10)"><path fill="rgb(9.408569%, 23.919678%, 41.569519%)" d="M 230.164062 114.75 L 227.066406 109.109375 L 225.292969 109.050781 C 225.292969 109.050781 225.914062 112.632812 226.035156 114.191406 C 226.15625 115.746094 226.167969 115.851562 226.167969 115.851562 Z M 230.164062 114.75 " fill-opacity="1" fill-rule="evenodd"/></g></g></g><g clip-path="url(#id11)"><g clip-path="url(#id12)"><g clip-path="url(#id13)"><path stroke-linecap="butt" transform="matrix(0.104846, -0.015116, 0.0152771, 0.105963, 181.220531, 100.088555)" fill="none" stroke-linejoin="miter" d="M 437.556315 200.782598 L 416.211629 144.505768 L 399.720348 141.600262 C 399.720348 141.600262 400.698248 175.544252 399.730126 190.114969 C 398.767266 204.649573 398.734685 205.640259 398.734685 205.640259 Z M 437.556315 200.782598 " stroke="rgb(0%, 0%, 0%)" stroke-width="1" stroke-opacity="1" stroke-miterlimit="4"/></g></g></g><g clip-path="url(#id14)"><g clip-path="url(#id15)"><g clip-path="url(#id16)"><path fill="rgb(9.408569%, 23.919678%, 41.569519%)" d="M 202.339844 120.542969 C 202.804688 120.164062 203.824219 120.015625 203.824219 120.015625 L 199.273438 114.375 L 201.175781 113.890625 L 209.242188 118.710938 L 242.792969 112.300781 C 242.792969 112.300781 245.859375 111.960938 247.125 112.09375 C 248.386719 112.226562 249.21875 112.945312 249.757812 113.078125 C 250.296875 113.210938 251.355469 113.371094 251.546875 113.976562 C 251.738281 114.578125 251.855469 114.664062 251.203125 115.179688 C 250.550781 115.691406 247.804688 116.824219 247.007812 117.042969 C 246.207031 117.265625 233.621094 119.289062 233.144531 119.566406 C 232.664062 119.847656 230.601562 120.667969 229.992188 120.753906 C 229.382812 120.84375 222.988281 121.871094 222.246094 121.769531 C 221.503906 121.664062 212.40625 122.660156 211.359375 122.601562 C 210.3125 122.542969 206.429688 122.265625 205.792969 122.144531 C 205.152344 122.027344 203.160156 121.894531 202.695312 121.542969 C 202.226562 121.191406 202.34375 120.542969 202.34375 120.542969 Z M 202.339844 120.542969 " fill-opacity="1" fill-rule="evenodd"/></g></g></g><g clip-path="url(#id17)"><g clip-path="url(#id18)"><g clip-path="url(#id19)"><path stroke-linecap="butt" transform="matrix(0.104846, -0.015116, 0.0152771, 0.105963, 181.220531, 100.088555)" fill="none" stroke-linejoin="miter" d="M 169.775514 217.252314 C 174.629229 214.368885 184.355235 214.355495 184.355235 214.355495 L 149.433194 156.141805 L 167.860347 154.199343 L 236.735862 209.515136 L 558.854528 194.972372 C 558.854528 194.972372 587.963467 195.917682 599.609994 198.832486 C 611.220023 201.742083 618.025931 209.495987 622.883781 211.442361 C 627.741631 213.388735 637.416916 216.280383 638.389709 222.133109 C 639.367765 227.949722 640.346947 228.900419 633.557143 232.797905 C 626.7726 236.659278 599.588318 243.471963 591.847996 244.432174 C 584.065913 245.423291 463.742747 247.354412 458.916352 249.283269 C 454.048196 251.243032 433.672076 256.077789 427.862581 256.060056 C 422.047824 256.078436 360.916238 257.053079 354.118381 255.12487 C 347.325787 253.160547 260.979498 250.243306 251.276894 248.30623 C 241.57429 246.369155 205.668622 238.629719 199.88253 236.66152 C 194.054676 234.724229 175.619472 230.840995 171.749765 226.971188 C 167.84356 223.096173 169.812013 217.25752 169.812013 217.25752 Z M 169.775514 217.252314 " stroke="rgb(0%, 0%, 0%)" stroke-width="1" stroke-opacity="1" stroke-miterlimit="4"/></g></g></g><g clip-path="url(#id20)"><g clip-path="url(#id21)"><g clip-path="url(#id22)"><path fill="rgb(9.408569%, 23.919678%, 41.569519%)" d="M 206.417969 122.238281 C 206.417969 122.238281 210.257812 122.445312 211.878906 122.289062 C 213.503906 122.128906 218.851562 121.359375 225.054688 120.539062 C 231.261719 119.722656 252.652344 114.890625 249.875 116.050781 C 247.097656 117.210938 247.425781 117.085938 246.332031 117.320312 L 233.074219 119.6875 C 233.074219 119.6875 231.855469 120.242188 231.101562 120.429688 C 230.351562 120.613281 222.710938 121.714844 222.710938 121.714844 L 218.511719 122.015625 C 218.511719 122.015625 212.464844 122.734375 211.59375 122.707031 C 210.726562 122.683594 206.417969 122.238281 206.417969 122.238281 Z M 206.417969 122.238281 " fill-opacity="0.2863" fill-rule="evenodd"/></g></g></g><g clip-path="url(#id23)"><g clip-path="url(#id24)"><g clip-path="url(#id25)"><path fill="rgb(9.408569%, 23.919678%, 41.569519%)" d="M 203.828125 121.484375 L 200.316406 124.507812 L 202.21875 124.023438 C 202.21875 124.023438 207.113281 121.222656 207.199219 121.105469 C 207.285156 120.984375 208.273438 120.632812 207.125 120.589844 C 205.976562 120.546875 203.828125 121.484375 203.828125 121.484375 Z M 203.828125 121.484375 " fill-opacity="1" fill-rule="evenodd"/></g></g></g><g clip-path="url(#id26)"><g clip-path="url(#id27)"><g clip-path="url(#id28)"><path stroke-linecap="butt" transform="matrix(0.104846, -0.015116, 0.0152771, 0.105963, 181.220531, 100.088555)" fill="none" stroke-linejoin="miter" d="M 182.413193 227.939402 L 145.528406 251.210556 L 163.955558 249.268094 C 163.955558 249.268094 213.460793 229.898554 214.421617 228.929693 C 215.387703 227.924718 225.095351 225.99177 214.422744 224.063777 C 203.750137 222.135783 182.413193 227.939402 182.413193 227.939402 Z M 182.413193 227.939402 " stroke="rgb(0%, 0%, 0%)" stroke-width="1" stroke-opacity="1" stroke-miterlimit="4"/></g></g></g><g clip-path="url(#id29)"><g clip-path="url(#id30)"><g clip-path="url(#id31)"><path fill="rgb(9.408569%, 23.919678%, 41.569519%)" d="M 225.347656 123.800781 C 225.601562 123.640625 226.4375 123.289062 227.363281 123.011719 C 227.324219 123.0625 229.886719 122.0625 230.273438 122.585938 C 230.628906 122.898438 230.695312 122.984375 230.851562 123.75 C 230.851562 124.285156 230.851562 125.0625 230.363281 125.226562 C 229.652344 125.332031 227.660156 125.605469 225.988281 125.53125 C 224.316406 125.457031 223.691406 125.441406 223.691406 125.441406 L 223.660156 124.503906 Z M 225.347656 123.800781 " fill-opacity="1" fill-rule="evenodd"/></g></g></g><g clip-path="url(#id32)"><g clip-path="url(#id33)"><g clip-path="url(#id34)"><path stroke-linecap="butt" transform="matrix(0.104846, -0.015116, 0.0152771, 0.105963, 181.220531, 100.088555)" fill="none" stroke-linejoin="miter" d="M 380.361724 278.037974 C 382.949857 276.895747 391.234072 274.759742 400.257768 273.429646 C 399.824379 273.847056 425.114332 268.017521 428.022542 273.372194 C 430.922918 276.73508 431.427623 277.618091 431.856187 284.904614 C 431.135282 289.852173 430.088129 297.038772 425.304839 297.904715 C 418.520079 297.932178 399.537618 297.804755 384.01634 294.890167 C 368.495062 291.975579 362.676388 290.998067 362.676388 290.998067 L 363.6473 282.289159 Z M 380.361724 278.037974 " stroke="rgb(0%, 0%, 0%)" stroke-width="1" stroke-opacity="1" stroke-miterlimit="4"/></g></g></g><g clip-path="url(#id35)"><g clip-path="url(#id36)"><g clip-path="url(#id37)"><path fill="rgb(9.408569%, 23.919678%, 41.569519%)" d="M 223.421875 121.285156 C 222.789062 122.632812 221.933594 123.910156 221.933594 123.910156 L 213.148438 132.839844 C 213.148438 132.839844 213.542969 133.414062 214.5 132.855469 C 215.457031 132.296875 226.0625 123.738281 226.0625 123.738281 L 230.195312 119.992188 C 230.195312 119.992188 230.875 119.683594 230.121094 119.476562 C 229.363281 119.273438 227.953125 119.582031 226.558594 119.992188 C 225.164062 120.402344 223.421875 121.285156 223.421875 121.285156 Z M 223.421875 121.285156 " fill-opacity="1" fill-rule="evenodd"/></g></g></g><g clip-path="url(#id38)"><g clip-path="url(#id39)"><g clip-path="url(#id40)"><path stroke-linecap="butt" transform="matrix(0.104846, -0.015116, 0.0152771, 0.105963, 181.220531, 100.088555)" fill="none" stroke-linejoin="miter" d="M 365.756857 252.213978 C 358.028721 263.829687 348.314902 274.498574 348.314902 274.498574 L 254.201198 345.344511 C 254.201198 345.344511 257.113998 351.179072 266.80855 347.290453 C 276.503102 343.401833 387.1251 278.412967 387.1251 278.412967 L 430.786595 249.288655 C 430.786595 249.288655 437.552997 247.341634 430.787722 244.422738 C 423.980687 241.53475 410.389109 242.508135 396.806711 244.441298 C 383.224312 246.374462 365.756857 252.213978 365.756857 252.213978 Z M 365.756857 252.213978 " stroke="rgb(0%, 0%, 0%)" stroke-width="1" stroke-opacity="1" stroke-miterlimit="4"/></g></g></g><g clip-path="url(#id41)"><g clip-path="url(#id42)"><g clip-path="url(#id43)"><path fill="rgb(9.408569%, 23.919678%, 41.569519%)" d="M 211.5 120.695312 L 220.539062 119.285156 " fill-opacity="0.749" fill-rule="evenodd"/><path fill="rgb(0%, 0%, 0%)" d="M 211.464844 120.464844 L 211.914062 120.398438 L 211.984375 120.851562 L 211.535156 120.921875 M 212.363281 120.328125 L 212.816406 120.257812 L 212.886719 120.710938 L 212.433594 120.78125 M 213.265625 120.1875 L 213.714844 120.117188 L 213.785156 120.570312 L 213.335938 120.640625 M 214.164062 120.046875 L 214.613281 119.976562 L 214.6875 120.429688 L 214.234375 120.5 M 215.066406 119.90625 L 215.515625 119.835938 L 215.585938 120.289062 L 215.136719 120.359375 M 215.964844 119.765625 L 216.414062 119.695312 L 216.484375 120.152344 L 216.035156 120.21875 M 216.867188 119.625 L 217.316406 119.554688 L 217.386719 120.011719 L 216.9375 120.082031 M 217.765625 119.484375 L 218.214844 119.414062 L 218.285156 119.871094 L 217.835938 119.941406 M 218.664062 119.34375 L 219.117188 119.273438 L 219.1875 119.730469 L 218.738281 119.800781 M 219.566406 119.203125 L 220.015625 119.132812 L 220.085938 119.589844 L 219.636719 119.660156 M 220.464844 119.066406 L 220.503906 119.058594 L 220.574219 119.511719 L 220.535156 119.519531 " fill-opacity="1" fill-rule="nonzero"/></g></g></g><g clip-path="url(#id44)"><g clip-path="url(#id45)"><g clip-path="url(#id46)"><path fill="rgb(9.408569%, 23.919678%, 41.569519%)" d="M 222.761719 118.859375 L 233.125 117.261719 " fill-opacity="0.749" fill-rule="evenodd"/></g></g></g><g clip-path="url(#id47)"><g clip-path="url(#id48)"><g clip-path="url(#id49)"><path fill="rgb(0%, 0%, 0%)" d="M 222.726562 118.621094 L 223.195312 118.550781 L 223.269531 119.027344 L 222.800781 119.097656 M 223.667969 118.476562 L 224.140625 118.40625 L 224.210938 118.878906 L 223.742188 118.953125 M 224.609375 118.332031 L 225.082031 118.257812 L 225.15625 118.734375 L 224.683594 118.808594 M 225.550781 118.1875 L 226.023438 118.113281 L 226.097656 118.589844 L 225.625 118.664062 M 226.496094 118.042969 L 226.964844 117.96875 L 227.039062 118.445312 L 226.566406 118.515625 M 227.4375 117.894531 L 227.90625 117.824219 L 227.980469 118.300781 L 227.511719 118.371094 M 228.378906 117.75 L 228.851562 117.675781 L 228.921875 118.152344 L 228.453125 118.226562 M 229.320312 117.605469 L 229.792969 117.53125 L 229.867188 118.007812 L 229.394531 118.082031 M 230.261719 117.460938 L 230.734375 117.386719 L 230.808594 117.863281 L 230.335938 117.9375 M 231.207031 117.3125 L 231.675781 117.242188 L 231.75 117.71875 L 231.277344 117.789062 M 232.148438 117.167969 L 232.617188 117.097656 L 232.691406 117.570312 L 232.222656 117.644531 " fill-opacity="1" fill-rule="nonzero"/></g></g></g><g clip-path="url(#id50)"><g clip-path="url(#id51)"><g clip-path="url(#id52)"><path fill="rgb(9.408569%, 23.919678%, 41.569519%)" d="M 235.636719 116.6875 L 243.65625 115.425781 " fill-opacity="0.749" fill-rule="evenodd"/><path fill="rgb(0%, 0%, 0%)" d="M 235.59375 116.429688 L 236.109375 116.347656 L 236.1875 116.867188 L 235.675781 116.949219 M 236.621094 116.269531 L 237.132812 116.1875 L 237.214844 116.707031 L 236.703125 116.785156 M 237.644531 116.105469 L 238.160156 116.027344 L 238.242188 116.542969 L 237.726562 116.625 M 238.671875 115.945312 L 239.183594 115.863281 L 239.265625 116.382812 L 238.753906 116.464844 M 239.695312 115.785156 L 240.210938 115.703125 L 240.292969 116.222656 L 239.777344 116.304688 M 240.722656 115.625 L 241.234375 115.542969 L 241.316406 116.0625 L 240.804688 116.140625 M 241.75 115.460938 L 242.261719 115.382812 L 242.34375 115.898438 L 241.828125 115.980469 M 242.773438 115.300781 L 243.285156 115.21875 L 243.367188 115.738281 L 242.855469 115.820312 " fill-opacity="1" fill-rule="nonzero"/></g></g></g><g clip-path="url(#id53)"><g clip-path="url(#id54)"><g clip-path="url(#id55)"><path fill="rgb(9.408569%, 23.919678%, 41.569519%)" d="M 209.417969 121.386719 C 209.296875 121.054688 209.417969 121.472656 209.230469 120.871094 C 209.140625 120.464844 209.164062 120.351562 209.1875 120.066406 L 209.988281 119.988281 C 209.988281 119.988281 209.957031 120.078125 210.03125 120.589844 C 210.105469 121.105469 210.207031 121.113281 210.316406 121.339844 Z M 209.417969 121.386719 " fill-opacity="0.749" fill-rule="evenodd"/></g></g></g><g clip-path="url(#id56)"><g clip-path="url(#id57)"><g clip-path="url(#id58)"><path stroke-linecap="butt" transform="matrix(0.104846, -0.015116, 0.0152771, 0.105963, 181.220531, 100.088555)" fill="none" stroke-linejoin="miter" d="M 234.773762 234.487225 C 234.089592 231.256167 234.657997 235.281724 233.71644 229.470317 C 233.424235 225.594755 233.795825 224.578701 234.398946 221.97365 L 241.986332 222.318735 C 241.986332 222.318735 241.573318 223.107694 241.577453 227.937496 C 241.576326 232.803412 242.514757 233.011011 243.231508 235.251383 Z M 234.773762 234.487225 " stroke="rgb(0%, 0%, 0%)" stroke-width="1" stroke-opacity="0.4706" stroke-miterlimit="4"/></g></g></g><g clip-path="url(#id59)"><g clip-path="url(#id60)"><g clip-path="url(#id61)"><path fill="rgb(9.408569%, 23.919678%, 41.569519%)" d="M 221.464844 120.085938 C 221.464844 120.085938 221.300781 119.941406 221.09375 119.234375 C 220.886719 118.53125 221.011719 118.253906 221.039062 118.207031 L 222.023438 118.039062 C 222.023438 118.039062 221.996094 118.550781 222.152344 119.074219 C 222.269531 119.464844 222.457031 119.804688 222.539062 119.933594 Z M 221.464844 120.085938 " fill-opacity="0.749" fill-rule="evenodd"/></g></g></g><g clip-path="url(#id62)"><g clip-path="url(#id63)"><g clip-path="url(#id64)"><path stroke-linecap="butt" transform="matrix(0.104846, -0.015116, 0.0152771, 0.105963, 181.220531, 100.088555)" fill="none" stroke-linejoin="miter" d="M 349.086683 238.518601 C 349.086683 238.518601 347.748453 236.963722 346.76648 230.151216 C 345.779246 223.374824 347.320798 220.977373 347.639431 220.580456 L 357.063263 220.339639 C 357.063263 220.339639 356.118443 225.03407 356.873255 230.081552 C 357.441996 233.849107 358.736112 237.240904 359.328927 238.541991 Z M 349.086683 238.518601 " stroke="rgb(0%, 0%, 0%)" stroke-width="1" stroke-opacity="0.4706" stroke-miterlimit="4"/></g></g></g><g clip-path="url(#id65)"><g clip-path="url(#id66)"><g clip-path="url(#id67)"><path fill="rgb(9.408569%, 23.919678%, 41.569519%)" d="M 233.984375 118.1875 C 233.984375 118.1875 233.6875 117.699219 233.613281 117.1875 C 233.539062 116.671875 233.5625 116.171875 233.5625 116.171875 L 234.640625 116.003906 C 234.640625 116.167969 234.664062 116.550781 234.722656 116.960938 C 234.78125 117.371094 235.097656 118 235.097656 118 Z M 233.984375 118.1875 " fill-opacity="0.749" fill-rule="evenodd"/></g></g></g><g clip-path="url(#id68)"><g clip-path="url(#id69)"><g clip-path="url(#id70)"><path stroke-linecap="butt" transform="matrix(0.104846, -0.015116, 0.0152771, 0.105963, 181.220531, 100.088555)" fill="none" stroke-linejoin="miter" d="M 468.620992 237.654602 C 468.620992 237.654602 466.504883 232.744704 466.500748 227.914901 C 466.501875 223.048985 467.39441 218.457689 467.39441 218.457689 L 477.694201 218.34183 C 477.473193 219.8586 477.1765 223.428969 477.171456 227.298993 C 477.166412 231.169016 479.275577 237.405035 479.275577 237.405035 Z M 468.620992 237.654602 " stroke="rgb(0%, 0%, 0%)" stroke-width="1" stroke-opacity="0.4706" stroke-miterlimit="4"/></g></g></g><g clip-path="url(#id71)"><g clip-path="url(#id72)"><g clip-path="url(#id73)"><path fill="rgb(9.408569%, 23.919678%, 41.569519%)" d="M 244.828125 116.410156 C 244.828125 116.410156 244.625 116.109375 244.425781 115.339844 C 244.308594 114.621094 244.242188 114.09375 244.292969 114.078125 L 245.3125 113.867188 C 245.410156 114.105469 245.390625 114.382812 245.597656 115.085938 C 245.71875 115.804688 245.996094 116.265625 245.855469 116.265625 Z M 244.828125 116.410156 " fill-opacity="0.749" fill-rule="evenodd"/></g></g></g><g clip-path="url(#id74)"><g clip-path="url(#id75)"><g clip-path="url(#id76)"><path stroke-linecap="butt" transform="matrix(0.104846, -0.015116, 0.0152771, 0.105963, 181.220531, 100.088555)" fill="none" stroke-linejoin="miter" d="M 572.33442 235.676487 C 572.33442 235.676487 570.84169 232.624998 570.016908 225.245089 C 569.890182 218.443995 569.980091 213.480151 570.475617 213.403383 L 580.285816 212.812176 C 580.877286 215.145269 580.321188 217.683299 581.308422 224.459691 C 581.471646 231.265992 583.442098 235.897062 582.128161 235.709624 Z M 572.33442 235.676487 " stroke="rgb(0%, 0%, 0%)" stroke-width="1" stroke-opacity="0.4706" stroke-miterlimit="4"/></g></g></g><g clip-path="url(#id77)"><g clip-path="url(#id78)"><g clip-path="url(#id79)"><path fill="rgb(9.408569%, 23.919678%, 41.569519%)" d="M 246.769531 113.957031 L 246.945312 114.980469 C 246.945312 114.980469 247.3125 114.960938 248.027344 114.609375 C 248.742188 114.257812 249.621094 113.140625 249.613281 113.082031 C 249.605469 113.019531 248.722656 112.652344 248.722656 112.652344 C 248.722656 112.652344 248.808594 112.824219 248.457031 113.125 C 248.101562 113.421875 246.769531 113.957031 246.769531 113.957031 Z M 246.769531 113.957031 " fill-opacity="0.2667" fill-rule="evenodd"/></g></g></g><g clip-path="url(#id80)"><g clip-path="url(#id81)"><g clip-path="url(#id82)"><path stroke-linecap="butt" transform="matrix(0.104846, -0.015116, 0.0152771, 0.105963, 181.220531, 100.088555)" fill="none" stroke-linejoin="miter" d="M 593.778642 215.584855 L 594.0424 225.280906 C 594.0424 225.280906 597.499547 225.58976 604.652316 223.292349 C 611.805086 220.994938 621.522149 211.837947 621.528084 211.28583 C 621.53928 210.6976 613.785307 206.12623 613.785307 206.12623 C 613.785307 206.12623 614.356738 207.829773 610.666714 210.141922 C 606.945454 212.412751 593.778642 215.584855 593.778642 215.584855 Z M 593.778642 215.584855 " stroke="rgb(0%, 0%, 0%)" stroke-width="1" stroke-opacity="1" stroke-miterlimit="4"/></g></g></g><g clip-path="url(#id83)"><g clip-path="url(#id84)"><g clip-path="url(#id85)"><path fill="rgb(9.408569%, 23.919678%, 41.569519%)" d="M 230.386719 125.015625 C 229.945312 124.707031 229.90625 124.433594 229.84375 124.011719 C 229.78125 123.585938 229.714844 122.914062 229.910156 122.761719 C 230.101562 122.609375 230.03125 122.558594 230.273438 122.742188 C 230.515625 122.921875 230.660156 123.304688 230.695312 123.546875 C 230.730469 123.789062 230.761719 124.21875 230.679688 124.507812 C 230.601562 124.796875 230.507812 124.996094 230.386719 125.015625 Z M 230.386719 125.015625 " fill-opacity="0.6824" fill-rule="evenodd"/></g></g></g><g clip-path="url(#id86)"><g clip-path="url(#id87)"><g clip-path="url(#id88)"><path stroke-linecap="butt" transform="matrix(0.104846, -0.015116, 0.0152771, 0.105963, 181.220531, 100.088555)" fill="none" stroke-linejoin="miter" d="M 425.807981 295.985822 C 422.099381 292.544503 422.102743 289.964488 422.087075 285.980917 C 422.076669 281.961233 422.361276 275.661187 424.39141 274.513089 C 426.385046 273.359784 425.796484 272.796589 427.812059 274.816736 C 429.832896 276.80077 430.667648 280.532544 430.669884 282.818444 C 430.67212 285.104345 430.385278 289.11849 429.22942 291.681555 C 428.110061 294.249826 426.965737 295.966659 425.807981 295.985822 Z M 425.807981 295.985822 " stroke="rgb(0%, 0%, 0%)" stroke-width="1" stroke-opacity="1" stroke-miterlimit="4"/></g></g></g><g clip-path="url(#id89)"><g clip-path="url(#id90)"><g clip-path="url(#id91)"><path fill="rgb(9.408569%, 23.919678%, 41.569519%)" d="M 203.996094 119.859375 L 202.292969 117.65625 C 202.292969 117.65625 203.640625 119.210938 204.359375 119.371094 C 205.074219 119.53125 208.867188 118.808594 208.867188 118.808594 Z M 203.996094 119.859375 " fill-opacity="0.2863" fill-rule="evenodd"/></g></g></g><g clip-path="url(#id92)"><g clip-path="url(#id93)"><g clip-path="url(#id94)"><path fill="rgb(9.408569%, 23.919678%, 41.569519%)" d="M 229.136719 120 C 229.136719 120 226.414062 122.757812 220.980469 127.128906 C 215.546875 131.5 214.652344 132.507812 214.144531 132.578125 C 213.632812 132.652344 214.082031 132.152344 214.082031 132.152344 C 214.082031 132.152344 225.117188 123.382812 229.136719 120 Z M 229.136719 120 " fill-opacity="0.2863" fill-rule="evenodd"/></g></g></g><g clip-path="url(#id95)"><g clip-path="url(#id96)"><g clip-path="url(#id97)"><path fill="rgb(9.408569%, 23.919678%, 41.569519%)" d="M 227.1875 109.816406 L 229.726562 114.792969 L 226.523438 115.429688 C 226.523438 115.429688 227.132812 115.429688 228.667969 114.679688 C 230.207031 113.933594 227.1875 109.816406 227.1875 109.816406 Z M 227.1875 109.816406 " fill-opacity="0.2863" fill-rule="evenodd"/></g></g></g><g clip-path="url(#id98)"><g clip-path="url(#id99)"><g clip-path="url(#id100)"><path fill="rgb(9.408569%, 23.919678%, 41.569519%)" d="M 224.253906 125.332031 C 226.820312 125.609375 230.023438 125.21875 230.203125 125.121094 C 229.980469 124.757812 229.742188 124.667969 229.679688 123.984375 C 229.605469 122.855469 229.714844 122.914062 229.765625 122.589844 C 229.574219 122.789062 229.476562 123.171875 229.378906 123.710938 C 229.515625 124.339844 229.78125 124.5 229.054688 124.867188 C 228.328125 125.234375 224.253906 125.332031 224.253906 125.332031 Z M 224.253906 125.332031 " fill-opacity="0.2863" fill-rule="evenodd"/></g></g></g></svg>