<svg xmlns="http://www.w3.org/2000/svg" xmlns:xlink="http://www.w3.org/1999/xlink" width="500" zoomAndPan="magnify" viewBox="0 0 375 374.999991" height="500" preserveAspectRatio="xMidYMid meet" version="1.0"><defs><g><g id="id1"/><g id="id2"/></g><clipPath id="id3"><path d="M 89.699219 100.847656 L 285.449219 100.847656 L 285.449219 223.097656 L 89.699219 223.097656 Z M 89.699219 100.847656 " clip-rule="nonzero"/></clipPath><clipPath id="id4"><path d="M 177 97 L 179 97 L 179 99 L 177 99 Z M 177 97 " clip-rule="nonzero"/></clipPath><clipPath id="id5"><path d="M 174.058594 96.152344 L 200.78125 92.300781 L 202.386719 103.433594 L 175.664062 107.289062 Z M 174.058594 96.152344 " clip-rule="nonzero"/></clipPath><clipPath id="id6"><path d="M 174.058594 96.152344 L 200.78125 92.300781 L 202.386719 103.433594 L 175.664062 107.289062 Z M 174.058594 96.152344 " clip-rule="nonzero"/></clipPath><clipPath id="id7"><path d="M 187 94 L 191 94 L 191 98 L 187 98 Z M 187 94 " clip-rule="nonzero"/></clipPath><clipPath id="id8"><path d="M 174.058594 96.152344 L 200.78125 92.300781 L 202.386719 103.433594 L 175.664062 107.289062 Z M 174.058594 96.152344 " clip-rule="nonzero"/></clipPath><clipPath id="id9"><path d="M 174.058594 96.152344 L 200.78125 92.300781 L 202.386719 103.433594 L 175.664062 107.289062 Z M 174.058594 96.152344 " clip-rule="nonzero"/></clipPath><clipPath id="id10"><path d="M 187 93 L 191 93 L 191 98 L 187 98 Z M 187 93 " clip-rule="nonzero"/></clipPath><clipPath id="id11"><path d="M 174.058594 96.152344 L 200.78125 92.300781 L 202.386719 103.433594 L 175.664062 107.289062 Z M 174.058594 96.152344 " clip-rule="nonzero"/></clipPath><clipPath id="id12"><path d="M 174.058594 96.152344 L 200.78125 92.300781 L 202.386719 103.433594 L 175.664062 107.289062 Z M 174.058594 96.152344 " clip-rule="nonzero"/></clipPath><clipPath id="id13"><path d="M 174 95 L 201 95 L 201 102 L 174 102 Z M 174 95 " clip-rule="nonzero"/></clipPath><clipPath id="id14"><path d="M 174.058594 96.152344 L 200.78125 92.300781 L 202.386719 103.433594 L 175.664062 107.289062 Z M 174.058594 96.152344 " clip-rule="nonzero"/></clipPath><clipPath id="id15"><path d="M 174.058594 96.152344 L 200.78125 92.300781 L 202.386719 103.433594 L 175.664062 107.289062 Z M 174.058594 96.152344 " clip-rule="nonzero"/></clipPath><clipPath id="id16"><path d="M 174 95 L 202 95 L 202 102 L 174 102 Z M 174 95 " clip-rule="nonzero"/></clipPath><clipPath id="id17"><path d="M 174.058594 96.152344 L 200.78125 92.300781 L 202.386719 103.433594 L 175.664062 107.289062 Z M 174.058594 96.152344 " clip-rule="nonzero"/></clipPath><clipPath id="id18"><path d="M 174.058594 96.152344 L 200.78125 92.300781 L 202.386719 103.433594 L 175.664062 107.289062 Z M 174.058594 96.152344 " clip-rule="nonzero"/></clipPath><clipPath id="id19"><path d="M 178 97 L 201 97 L 201 102 L 178 102 Z M 178 97 " clip-rule="nonzero"/></clipPath><clipPath id="id20"><path d="M 174.058594 96.152344 L 200.78125 92.300781 L 202.386719 103.433594 L 175.664062 107.289062 Z M 174.058594 96.152344 " clip-rule="nonzero"/></clipPath><clipPath id="id21"><path d="M 174.058594 96.152344 L 200.78125 92.300781 L 202.386719 103.433594 L 175.664062 107.289062 Z M 174.058594 96.152344 " clip-rule="nonzero"/></clipPath><clipPath id="id22"><path d="M 174 100 L 179 100 L 179 102 L 174 102 Z M 174 100 " clip-rule="nonzero"/></clipPath><clipPath id="id23"><path d="M 174.058594 96.152344 L 200.78125 92.300781 L 202.386719 103.433594 L 175.664062 107.289062 Z M 174.058594 96.152344 " clip-rule="nonzero"/></clipPath><clipPath id="id24"><path d="M 174.058594 96.152344 L 200.78125 92.300781 L 202.386719 103.433594 L 175.664062 107.289062 Z M 174.058594 96.152344 " clip-rule="nonzero"/></clipPath><clipPath id="id25"><path d="M 174 99 L 179 99 L 179 103 L 174 103 Z M 174 99 " clip-rule="nonzero"/></clipPath><clipPath id="id26"><path d="M 174.058594 96.152344 L 200.78125 92.300781 L 202.386719 103.433594 L 175.664062 107.289062 Z M 174.058594 96.152344 " clip-rule="nonzero"/></clipPath><clipPath id="id27"><path d="M 174.058594 96.152344 L 200.78125 92.300781 L 202.386719 103.433594 L 175.664062 107.289062 Z M 174.058594 96.152344 " clip-rule="nonzero"/></clipPath><clipPath id="id28"><path d="M 186 100 L 191 100 L 191 103 L 186 103 Z M 186 100 " clip-rule="nonzero"/></clipPath><clipPath id="id29"><path d="M 174.058594 96.152344 L 200.78125 92.300781 L 202.386719 103.433594 L 175.664062 107.289062 Z M 174.058594 96.152344 " clip-rule="nonzero"/></clipPath><clipPath id="id30"><path d="M 174.058594 96.152344 L 200.78125 92.300781 L 202.386719 103.433594 L 175.664062 107.289062 Z M 174.058594 96.152344 " clip-rule="nonzero"/></clipPath><clipPath id="id31"><path d="M 181 99 L 191 99 L 191 107 L 181 107 Z M 181 99 " clip-rule="nonzero"/></clipPath><clipPath id="id32"><path d="M 174.058594 96.152344 L 200.78125 92.300781 L 202.386719 103.433594 L 175.664062 107.289062 Z M 174.058594 96.152344 " clip-rule="nonzero"/></clipPath><clipPath id="id33"><path d="M 174.058594 96.152344 L 200.78125 92.300781 L 202.386719 103.433594 L 175.664062 107.289062 Z M 174.058594 96.152344 " clip-rule="nonzero"/></clipPath><clipPath id="id34"><path d="M 180 99 L 186 99 L 186 101 L 180 101 Z M 180 99 " clip-rule="nonzero"/></clipPath><clipPath id="id35"><path d="M 174.058594 96.152344 L 200.78125 92.300781 L 202.386719 103.433594 L 175.664062 107.289062 Z M 174.058594 96.152344 " clip-rule="nonzero"/></clipPath><clipPath id="id36"><path d="M 174.058594 96.152344 L 200.78125 92.300781 L 202.386719 103.433594 L 175.664062 107.289062 Z M 174.058594 96.152344 " clip-rule="nonzero"/></clipPath><clipPath id="id37"><path d="M 186 98 L 192 98 L 192 100 L 186 100 Z M 186 98 " clip-rule="nonzero"/></clipPath><clipPath id="id38"><path d="M 174.058594 96.152344 L 200.78125 92.300781 L 202.386719 103.433594 L 175.664062 107.289062 Z M 174.058594 96.152344 " clip-rule="nonzero"/></clipPath><clipPath id="id39"><path d="M 174.058594 96.152344 L 200.78125 92.300781 L 202.386719 103.433594 L 175.664062 107.289062 Z M 174.058594 96.152344 " clip-rule="nonzero"/></clipPath><clipPath id="id40"><path d="M 192 97 L 197 97 L 197 99 L 192 99 Z M 192 97 " clip-rule="nonzero"/></clipPath><clipPath id="id41"><path d="M 174.058594 96.152344 L 200.78125 92.300781 L 202.386719 103.433594 L 175.664062 107.289062 Z M 174.058594 96.152344 " clip-rule="nonzero"/></clipPath><clipPath id="id42"><path d="M 174.058594 96.152344 L 200.78125 92.300781 L 202.386719 103.433594 L 175.664062 107.289062 Z M 174.058594 96.152344 " clip-rule="nonzero"/></clipPath><clipPath id="id43"><path d="M 179 99 L 180 99 L 180 101 L 179 101 Z M 179 99 " clip-rule="nonzero"/></clipPath><clipPath id="id44"><path d="M 174.058594 96.152344 L 200.78125 92.300781 L 202.386719 103.433594 L 175.664062 107.289062 Z M 174.058594 96.152344 " clip-rule="nonzero"/></clipPath><clipPath id="id45"><path d="M 174.058594 96.152344 L 200.78125 92.300781 L 202.386719 103.433594 L 175.664062 107.289062 Z M 174.058594 96.152344 " clip-rule="nonzero"/></clipPath><clipPath id="id46"><path d="M 179 99 L 181 99 L 181 101 L 179 101 Z M 179 99 " clip-rule="nonzero"/></clipPath><clipPath id="id47"><path d="M 174.058594 96.152344 L 200.78125 92.300781 L 202.386719 103.433594 L 175.664062 107.289062 Z M 174.058594 96.152344 " clip-rule="nonzero"/></clipPath><clipPath id="id48"><path d="M 174.058594 96.152344 L 200.78125 92.300781 L 202.386719 103.433594 L 175.664062 107.289062 Z M 174.058594 96.152344 " clip-rule="nonzero"/></clipPath><clipPath id="id49"><path d="M 185 98 L 187 98 L 187 100 L 185 100 Z M 185 98 " clip-rule="nonzero"/></clipPath><clipPath id="id50"><path d="M 174.058594 96.152344 L 200.78125 92.300781 L 202.386719 103.433594 L 175.664062 107.289062 Z M 174.058594 96.152344 " clip-rule="nonzero"/></clipPath><clipPath id="id51"><path d="M 174.058594 96.152344 L 200.78125 92.300781 L 202.386719 103.433594 L 175.664062 107.289062 Z M 174.058594 96.152344 " clip-rule="nonzero"/></clipPath><clipPath id="id52"><path d="M 185 98 L 187 98 L 187 101 L 185 101 Z M 185 98 " clip-rule="nonzero"/></clipPath><clipPath id="id53"><path d="M 174.058594 96.152344 L 200.78125 92.300781 L 202.386719 103.433594 L 175.664062 107.289062 Z M 174.058594 96.152344 " clip-rule="nonzero"/></clipPath><clipPath id="id54"><path d="M 174.058594 96.152344 L 200.78125 92.300781 L 202.386719 103.433594 L 175.664062 107.289062 Z M 174.058594 96.152344 " clip-rule="nonzero"/></clipPath><clipPath id="id55"><path d="M 191 97 L 193 97 L 193 99 L 191 99 Z M 191 97 " clip-rule="nonzero"/></clipPath><clipPath id="id56"><path d="M 174.058594 96.152344 L 200.78125 92.300781 L 202.386719 103.433594 L 175.664062 107.289062 Z M 174.058594 96.152344 " clip-rule="nonzero"/></clipPath><clipPath id="id57"><path d="M 174.058594 96.152344 L 200.78125 92.300781 L 202.386719 103.433594 L 175.664062 107.289062 Z M 174.058594 96.152344 " clip-rule="nonzero"/></clipPath><clipPath id="id58"><path d="M 191 97 L 193 97 L 193 100 L 191 100 Z M 191 97 " clip-rule="nonzero"/></clipPath><clipPath id="id59"><path d="M 174.058594 96.152344 L 200.78125 92.300781 L 202.386719 103.433594 L 175.664062 107.289062 Z M 174.058594 96.152344 " clip-rule="nonzero"/></clipPath><clipPath id="id60"><path d="M 174.058594 96.152344 L 200.78125 92.300781 L 202.386719 103.433594 L 175.664062 107.289062 Z M 174.058594 96.152344 " clip-rule="nonzero"/></clipPath><clipPath id="id61"><path d="M 197 96 L 199 96 L 199 98 L 197 98 Z M 197 96 " clip-rule="nonzero"/></clipPath><clipPath id="id62"><path d="M 174.058594 96.152344 L 200.78125 92.300781 L 202.386719 103.433594 L 175.664062 107.289062 Z M 174.058594 96.152344 " clip-rule="nonzero"/></clipPath><clipPath id="id63"><path d="M 174.058594 96.152344 L 200.78125 92.300781 L 202.386719 103.433594 L 175.664062 107.289062 Z M 174.058594 96.152344 " clip-rule="nonzero"/></clipPath><clipPath id="id64"><path d="M 196 96 L 199 96 L 199 99 L 196 99 Z M 196 96 " clip-rule="nonzero"/></clipPath><clipPath id="id65"><path d="M 174.058594 96.152344 L 200.78125 92.300781 L 202.386719 103.433594 L 175.664062 107.289062 Z M 174.058594 96.152344 " clip-rule="nonzero"/></clipPath><clipPath id="id66"><path d="M 174.058594 96.152344 L 200.78125 92.300781 L 202.386719 103.433594 L 175.664062 107.289062 Z M 174.058594 96.152344 " clip-rule="nonzero"/></clipPath><clipPath id="id67"><path d="M 198 96 L 200 96 L 200 98 L 198 98 Z M 198 96 " clip-rule="nonzero"/></clipPath><clipPath id="id68"><path d="M 174.058594 96.152344 L 200.78125 92.300781 L 202.386719 103.433594 L 175.664062 107.289062 Z M 174.058594 96.152344 " clip-rule="nonzero"/></clipPath><clipPath id="id69"><path d="M 174.058594 96.152344 L 200.78125 92.300781 L 202.386719 103.433594 L 175.664062 107.289062 Z M 174.058594 96.152344 " clip-rule="nonzero"/></clipPath><clipPath id="id70"><path d="M 198 95 L 201 95 L 201 98 L 198 98 Z M 198 95 " clip-rule="nonzero"/></clipPath><clipPath id="id71"><path d="M 174.058594 96.152344 L 200.78125 92.300781 L 202.386719 103.433594 L 175.664062 107.289062 Z M 174.058594 96.152344 " clip-rule="nonzero"/></clipPath><clipPath id="id72"><path d="M 174.058594 96.152344 L 200.78125 92.300781 L 202.386719 103.433594 L 175.664062 107.289062 Z M 174.058594 96.152344 " clip-rule="nonzero"/></clipPath><clipPath id="id73"><path d="M 189 101 L 191 101 L 191 103 L 189 103 Z M 189 101 " clip-rule="nonzero"/></clipPath><clipPath id="id74"><path d="M 174.058594 96.152344 L 200.78125 92.300781 L 202.386719 103.433594 L 175.664062 107.289062 Z M 174.058594 96.152344 " clip-rule="nonzero"/></clipPath><clipPath id="id75"><path d="M 174.058594 96.152344 L 200.78125 92.300781 L 202.386719 103.433594 L 175.664062 107.289062 Z M 174.058594 96.152344 " clip-rule="nonzero"/></clipPath><clipPath id="id76"><path d="M 189 100 L 191 100 L 191 103 L 189 103 Z M 189 100 " clip-rule="nonzero"/></clipPath><clipPath id="id77"><path d="M 174.058594 96.152344 L 200.78125 92.300781 L 202.386719 103.433594 L 175.664062 107.289062 Z M 174.058594 96.152344 " clip-rule="nonzero"/></clipPath><clipPath id="id78"><path d="M 174.058594 96.152344 L 200.78125 92.300781 L 202.386719 103.433594 L 175.664062 107.289062 Z M 174.058594 96.152344 " clip-rule="nonzero"/></clipPath><clipPath id="id79"><path d="M 175 98 L 180 98 L 180 100 L 175 100 Z M 175 98 " clip-rule="nonzero"/></clipPath><clipPath id="id80"><path d="M 174.058594 96.152344 L 200.78125 92.300781 L 202.386719 103.433594 L 175.664062 107.289062 Z M 174.058594 96.152344 " clip-rule="nonzero"/></clipPath><clipPath id="id81"><path d="M 174.058594 96.152344 L 200.78125 92.300781 L 202.386719 103.433594 L 175.664062 107.289062 Z M 174.058594 96.152344 " clip-rule="nonzero"/></clipPath><clipPath id="id82"><path d="M 181 99 L 190 99 L 190 107 L 181 107 Z M 181 99 " clip-rule="nonzero"/></clipPath><clipPath id="id83"><path d="M 174.058594 96.152344 L 200.78125 92.300781 L 202.386719 103.433594 L 175.664062 107.289062 Z M 174.058594 96.152344 " clip-rule="nonzero"/></clipPath><clipPath id="id84"><path d="M 174.058594 96.152344 L 200.78125 92.300781 L 202.386719 103.433594 L 175.664062 107.289062 Z M 174.058594 96.152344 " clip-rule="nonzero"/></clipPath><clipPath id="id85"><path d="M 188 94 L 190 94 L 190 98 L 188 98 Z M 188 94 " clip-rule="nonzero"/></clipPath><clipPath id="id86"><path d="M 174.058594 96.152344 L 200.78125 92.300781 L 202.386719 103.433594 L 175.664062 107.289062 Z M 174.058594 96.152344 " clip-rule="nonzero"/></clipPath><clipPath id="id87"><path d="M 174.058594 96.152344 L 200.78125 92.300781 L 202.386719 103.433594 L 175.664062 107.289062 Z M 174.058594 96.152344 " clip-rule="nonzero"/></clipPath><clipPath id="id88"><path d="M 187 100 L 191 100 L 191 103 L 187 103 Z M 187 100 " clip-rule="nonzero"/></clipPath><clipPath id="id89"><path d="M 174.058594 96.152344 L 200.78125 92.300781 L 202.386719 103.433594 L 175.664062 107.289062 Z M 174.058594 96.152344 " clip-rule="nonzero"/></clipPath><clipPath id="id90"><path d="M 174.058594 96.152344 L 200.78125 92.300781 L 202.386719 103.433594 L 175.664062 107.289062 Z M 174.058594 96.152344 " clip-rule="nonzero"/></clipPath></defs><g clip-path="url(#id3)"><path fill="rgb(9.408569%, 23.919678%, 41.569519%)" d="M 152.019531 213.488281 L 150.113281 210.53125 L 148.417969 207.996094 C 148.191406 207.65625 147.875 207.480469 147.464844 207.464844 L 140.71875 207.242188 C 140.539062 207.234375 140.363281 207.269531 140.199219 207.34375 L 134.34375 209.910156 C 134.171875 209.984375 134.027344 210.09375 133.910156 210.234375 L 131.738281 212.789062 C 131.6875 212.851562 131.652344 212.921875 131.632812 213 C 131.613281 213.078125 131.613281 213.160156 131.632812 213.238281 C 131.648438 213.316406 131.6875 213.386719 131.738281 213.449219 C 131.792969 213.511719 131.855469 213.5625 131.929688 213.59375 L 134.851562 214.839844 L 136.164062 212.222656 C 136.304688 211.9375 136.519531 211.726562 136.804688 211.582031 L 140.246094 209.867188 C 140.335938 209.820312 140.417969 209.835938 140.488281 209.917969 C 140.554688 209.996094 140.558594 210.078125 140.5 210.164062 L 139.359375 211.785156 C 139.238281 211.960938 139.15625 212.15625 139.121094 212.371094 L 138.667969 215.09375 L 145.535156 214.585938 L 151.699219 214.132812 C 151.773438 214.125 151.839844 214.101562 151.902344 214.0625 C 151.960938 214.019531 152.007812 213.964844 152.042969 213.898438 C 152.074219 213.835938 152.089844 213.765625 152.085938 213.691406 C 152.082031 213.617188 152.058594 213.550781 152.019531 213.488281 Z M 239.609375 209.648438 C 239.558594 209.476562 239.445312 209.351562 239.28125 209.28125 L 236.605469 208.121094 L 235.230469 207.242188 C 234.960938 207.066406 234.679688 207.050781 234.394531 207.199219 L 230.910156 208.988281 C 230.722656 209.085938 230.574219 209.226562 230.46875 209.414062 L 229.839844 210.527344 C 229.742188 210.703125 229.71875 210.890625 229.773438 211.082031 C 229.828125 211.277344 229.945312 211.425781 230.121094 211.523438 L 231.515625 212.308594 L 233.367188 212.511719 C 233.660156 212.542969 233.882812 212.433594 234.035156 212.183594 L 234.570312 211.292969 L 239.519531 211.402344 C 239.59375 211.40625 239.664062 211.390625 239.730469 211.359375 C 239.800781 211.324219 239.855469 211.277344 239.902344 211.21875 C 239.945312 211.160156 239.976562 211.09375 239.988281 211.019531 C 240 210.945312 239.996094 210.871094 239.972656 210.800781 Z M 285.183594 222.558594 C 276.828125 213.972656 266.125 206.570312 253.726562 200.738281 C 254.292969 200.648438 254.859375 200.617188 255.433594 200.640625 C 265.1875 191.46875 270.386719 177.761719 270.398438 166.292969 C 270.398438 166.203125 270.4375 166.136719 270.519531 166.097656 C 270.605469 166.058594 270.679688 166.066406 270.753906 166.125 C 272.519531 167.453125 273.3125 169.71875 273.269531 172.21875 C 273.269531 172.273438 273.292969 172.308594 273.34375 172.328125 C 273.394531 172.347656 273.433594 172.335938 273.46875 172.292969 C 273.785156 171.910156 274.050781 171.496094 274.265625 171.046875 C 274.289062 170.996094 274.328125 170.972656 274.386719 170.980469 C 274.441406 170.988281 274.476562 171.023438 274.484375 171.078125 C 274.714844 172.636719 273.894531 173.710938 273.832031 175.707031 C 273.769531 177.757812 275.492188 180.207031 274.898438 182.785156 C 274.882812 182.859375 274.90625 182.921875 274.96875 182.96875 C 275.03125 183.015625 275.097656 183.015625 275.164062 182.980469 C 281.5625 179.246094 279.957031 172.550781 278.316406 169.640625 C 278.289062 169.59375 278.292969 169.550781 278.328125 169.507812 C 278.363281 169.464844 278.40625 169.453125 278.457031 169.472656 C 279.75 169.941406 280.933594 170.605469 282.007812 171.464844 C 282.054688 171.503906 282.105469 171.507812 282.15625 171.464844 C 282.207031 171.425781 282.214844 171.378906 282.1875 171.320312 C 280.410156 167.667969 276.152344 165.605469 272.964844 164.410156 C 272.867188 164.375 272.820312 164.304688 272.828125 164.199219 C 272.832031 164.097656 272.882812 164.03125 272.984375 164.007812 C 274.410156 163.621094 277.765625 162.464844 279.875 159.726562 C 282.496094 156.320312 282.488281 150.8125 280.40625 147.964844 C 280.363281 147.902344 280.304688 147.882812 280.230469 147.902344 C 280.160156 147.921875 280.117188 147.96875 280.113281 148.042969 C 279.910156 150.851562 277.789062 153.953125 276.105469 156.628906 C 276.085938 156.664062 276.054688 156.679688 276.015625 156.671875 C 275.972656 156.667969 275.949219 156.644531 275.9375 156.605469 C 275.839844 156.25 275.625 155.507812 275.386719 154.902344 C 275.371094 154.855469 275.335938 154.835938 275.289062 154.84375 C 275.238281 154.847656 275.214844 154.878906 275.210938 154.925781 C 275.0625 156.839844 274.273438 160.207031 272.285156 161.648438 C 272.195312 161.71875 272.109375 161.71875 272.015625 161.648438 C 271.925781 161.578125 271.90625 161.492188 271.953125 161.386719 C 273.757812 157.070312 273.21875 150.378906 272.289062 147.351562 C 272.265625 147.285156 272.222656 147.257812 272.152344 147.269531 C 272.082031 147.28125 272.046875 147.324219 272.050781 147.394531 C 272.160156 150.113281 271.8125 156.117188 270.253906 158.734375 C 270.21875 158.785156 270.171875 158.804688 270.113281 158.785156 C 270.050781 158.769531 270.023438 158.726562 270.027344 158.664062 C 270.171875 148.792969 264.878906 144.085938 260.898438 143.472656 C 260.84375 143.464844 260.800781 143.484375 260.777344 143.535156 C 260.75 143.585938 260.757812 143.632812 260.796875 143.671875 C 262.488281 145.449219 261.953125 148.304688 263.148438 150.300781 C 263.191406 150.371094 263.175781 150.425781 263.105469 150.460938 C 262.550781 150.773438 261.972656 151.042969 261.378906 151.269531 C 261.328125 151.285156 261.300781 151.320312 261.300781 151.375 C 261.296875 151.425781 261.316406 151.460938 261.363281 151.484375 C 262.226562 151.960938 263.027344 152.523438 263.761719 153.175781 C 264.5 153.824219 265.15625 154.546875 265.734375 155.34375 C 266.3125 156.136719 266.792969 156.988281 267.183594 157.890625 C 267.574219 158.789062 267.859375 159.722656 268.042969 160.6875 C 268.058594 160.792969 268.019531 160.867188 267.925781 160.917969 C 267.832031 160.964844 267.746094 160.949219 267.671875 160.875 C 266.347656 159.460938 263.324219 157.460938 261.121094 157.261719 C 261.054688 157.253906 261.011719 157.28125 260.992188 157.34375 C 260.972656 157.40625 260.992188 157.453125 261.050781 157.484375 C 263.03125 158.503906 266.171875 161.320312 267.507812 163.96875 C 267.542969 164.039062 267.539062 164.109375 267.492188 164.175781 C 267.449219 164.242188 267.386719 164.269531 267.308594 164.265625 C 265.449219 164.175781 261.027344 164.585938 259.003906 165.339844 C 258.933594 165.367188 258.902344 165.417969 258.910156 165.492188 C 258.917969 165.566406 258.957031 165.609375 259.03125 165.621094 C 259.402344 165.675781 259.761719 165.757812 260.117188 165.871094 C 260.179688 165.890625 260.210938 165.933594 260.214844 166 C 260.21875 166.0625 260.1875 166.109375 260.128906 166.136719 C 258.695312 166.714844 255.335938 168.589844 254.527344 172.273438 C 254.507812 172.367188 254.546875 172.410156 254.640625 172.40625 C 257.746094 172.207031 260.507812 171.453125 262.609375 170.238281 C 262.652344 170.210938 262.6875 170.214844 262.722656 170.246094 C 262.757812 170.28125 262.765625 170.316406 262.746094 170.359375 C 262.132812 171.578125 261.777344 172.867188 261.679688 174.226562 C 261.679688 174.28125 261.703125 174.3125 261.753906 174.324219 C 261.804688 174.335938 261.839844 174.316406 261.859375 174.269531 C 262.839844 172.085938 265.507812 168.632812 268.042969 167.304688 C 268.117188 167.269531 268.1875 167.273438 268.257812 167.316406 C 268.328125 167.359375 268.359375 167.425781 268.359375 167.507812 C 268.105469 179.523438 260.917969 192.179688 250.003906 199.070312 C 247.476562 197.976562 244.886719 196.949219 242.234375 195.988281 C 243.140625 195.78125 244.058594 195.683594 244.984375 195.695312 C 256.027344 174.761719 252.289062 144.222656 239.398438 130.128906 C 239.261719 129.976562 239.25 129.816406 239.359375 129.648438 C 239.46875 129.476562 239.621094 129.425781 239.816406 129.488281 C 243.257812 130.660156 246.175781 132.617188 248.566406 135.351562 C 248.621094 135.417969 248.683594 135.429688 248.761719 135.390625 C 248.835938 135.351562 248.863281 135.292969 248.839844 135.210938 C 248.332031 133.429688 247.449219 131.492188 246.128906 130.296875 C 246.066406 130.246094 246.054688 130.183594 246.089844 130.113281 C 246.125 130.042969 246.183594 130.011719 246.261719 130.03125 C 247.855469 130.371094 249.753906 131.152344 252.402344 132.332031 C 255.171875 133.566406 259.53125 131.800781 261.621094 132.09375 C 261.691406 132.105469 261.746094 132.078125 261.78125 132.011719 C 261.816406 131.949219 261.808594 131.890625 261.765625 131.835938 C 256.480469 125.625 246.316406 124.714844 240.792969 125.652344 C 240.609375 125.683594 240.46875 125.617188 240.378906 125.453125 C 240.289062 125.289062 240.304688 125.136719 240.429688 124.996094 C 241.429688 123.980469 242.570312 123.160156 243.847656 122.527344 C 245.128906 121.898438 246.472656 121.496094 247.890625 121.320312 C 247.96875 121.3125 248.015625 121.273438 248.035156 121.195312 C 248.054688 121.121094 248.03125 121.0625 247.964844 121.019531 C 247.035156 120.417969 245.25 119.832031 243.917969 120.0625 C 243.84375 120.074219 243.789062 120.046875 243.753906 119.984375 C 243.71875 119.917969 243.726562 119.859375 243.777344 119.804688 C 245.285156 118.167969 246.65625 116.425781 247.886719 114.574219 C 250.226562 111.105469 249.226562 103.792969 249.746094 101.273438 C 249.761719 101.203125 249.738281 101.148438 249.675781 101.105469 C 249.617188 101.066406 249.554688 101.066406 249.492188 101.105469 C 246.824219 102.890625 242.105469 107.964844 240.082031 112.894531 C 240.058594 112.953125 240.019531 112.976562 239.957031 112.96875 C 239.894531 112.957031 239.863281 112.921875 239.859375 112.859375 C 239.730469 110.902344 238.769531 107.976562 238.101562 106.574219 C 238.074219 106.523438 238.027344 106.503906 237.96875 106.519531 C 237.910156 106.535156 237.882812 106.574219 237.882812 106.632812 C 238.03125 108.578125 238.46875 115.179688 237.957031 119.363281 C 237.949219 119.417969 237.917969 119.449219 237.859375 119.460938 C 237.804688 119.46875 237.765625 119.445312 237.742188 119.398438 C 237.503906 118.871094 237.171875 118.414062 236.738281 118.03125 C 236.695312 118 236.652344 117.996094 236.609375 118.019531 C 236.5625 118.046875 236.542969 118.085938 236.550781 118.136719 C 236.785156 119.644531 236.800781 121.152344 236.601562 122.664062 C 236.570312 122.886719 236.441406 123 236.214844 123.007812 C 235.988281 123.011719 235.855469 122.902344 235.8125 122.679688 C 234.78125 116.917969 231.148438 109.664062 227.921875 107.007812 C 227.910156 106.996094 227.894531 106.996094 227.878906 107.007812 C 227.863281 107.019531 227.859375 107.035156 227.867188 107.050781 C 228.972656 109.363281 229.71875 111.78125 230.101562 114.3125 C 230.109375 114.339844 230.101562 114.359375 230.070312 114.367188 C 230.042969 114.375 230.023438 114.363281 230.015625 114.335938 C 226.257812 105.542969 219.003906 100.839844 212.265625 101.0625 C 212.234375 101.054688 212.21875 101.066406 212.210938 101.097656 C 212.207031 101.125 212.21875 101.140625 212.246094 101.148438 C 213.953125 102.097656 215.585938 107.269531 218.445312 109.148438 C 218.457031 109.15625 218.464844 109.164062 218.460938 109.179688 C 218.460938 109.191406 218.453125 109.199219 218.4375 109.203125 C 217.785156 109.355469 217.207031 109.648438 216.707031 110.09375 C 216.675781 110.125 216.683594 110.144531 216.722656 110.15625 C 221.6875 111.433594 228.164062 116.257812 232.644531 123.363281 C 232.699219 123.445312 232.71875 123.539062 232.703125 123.636719 C 232.6875 123.734375 232.644531 123.816406 232.566406 123.882812 C 232.492188 123.945312 232.402344 123.976562 232.304688 123.976562 C 232.203125 123.976562 232.117188 123.941406 232.042969 123.875 C 225.972656 118.480469 218.238281 115.652344 214.503906 116.695312 C 214.460938 116.707031 214.4375 116.734375 214.4375 116.777344 C 214.4375 116.820312 214.460938 116.847656 214.503906 116.859375 C 217.550781 117.503906 220.292969 118.792969 222.730469 120.726562 C 222.761719 120.757812 222.769531 120.789062 222.753906 120.828125 C 222.734375 120.867188 222.707031 120.882812 222.664062 120.878906 C 213.339844 119.621094 205.328125 128.539062 204.734375 133.519531 C 204.730469 133.558594 204.746094 133.589844 204.785156 133.605469 C 204.824219 133.621094 204.855469 133.613281 204.882812 133.578125 C 206.410156 131.460938 210.96875 131.890625 213.554688 130.742188 C 213.582031 130.730469 213.605469 130.730469 213.628906 130.746094 C 213.652344 130.765625 213.660156 130.785156 213.65625 130.816406 C 213.570312 131.730469 213.753906 132.585938 214.207031 133.386719 C 214.230469 133.417969 214.261719 133.433594 214.296875 133.429688 C 214.335938 133.425781 214.363281 133.40625 214.378906 133.367188 C 217.109375 126.59375 222.386719 126.207031 226.269531 126.472656 C 226.320312 126.476562 226.351562 126.503906 226.363281 126.554688 C 226.375 126.605469 226.359375 126.640625 226.3125 126.664062 C 224.859375 127.488281 223.429688 129.722656 222.949219 131.109375 C 222.933594 131.160156 222.945312 131.203125 222.992188 131.234375 C 223.039062 131.261719 223.082031 131.261719 223.125 131.226562 C 225.34375 129.175781 229.367188 128.214844 232.203125 128.632812 C 232.410156 128.664062 232.523438 128.785156 232.542969 128.996094 C 232.558594 129.203125 232.46875 129.34375 232.265625 129.40625 C 229.417969 130.382812 226.210938 132.773438 225.421875 134.363281 C 225.402344 134.40625 225.40625 134.441406 225.441406 134.472656 C 225.472656 134.503906 225.507812 134.507812 225.546875 134.484375 C 226.449219 133.964844 227.417969 133.652344 228.457031 133.542969 C 228.503906 133.539062 228.539062 133.558594 228.554688 133.605469 C 228.570312 133.648438 228.5625 133.6875 228.519531 133.714844 C 224.175781 137.203125 224.230469 144.757812 225.066406 147.144531 C 225.085938 147.199219 225.125 147.226562 225.179688 147.230469 C 225.234375 147.230469 225.277344 147.207031 225.300781 147.15625 C 225.398438 146.957031 225.515625 146.773438 225.65625 146.601562 C 225.6875 146.558594 225.726562 146.542969 225.78125 146.550781 C 225.832031 146.558594 225.863281 146.589844 225.882812 146.636719 C 226.269531 147.683594 226.851562 148.613281 227.625 149.417969 C 228.398438 150.222656 229.300781 150.84375 230.332031 151.273438 C 230.382812 151.292969 230.425781 151.28125 230.464844 151.246094 C 230.5 151.210938 230.511719 151.164062 230.492188 151.117188 C 229.9375 149.574219 229.515625 146.574219 229.828125 145.234375 C 229.839844 145.1875 229.867188 145.152344 229.917969 145.136719 C 229.964844 145.121094 230.007812 145.128906 230.046875 145.164062 C 230.308594 145.402344 230.613281 145.582031 230.953125 145.691406 C 231 145.703125 231.039062 145.691406 231.070312 145.65625 C 231.101562 145.621094 231.113281 145.582031 231.097656 145.539062 C 230.65625 144.125 230.46875 140.082031 231.394531 137.917969 C 231.410156 137.875 231.445312 137.855469 231.492188 137.859375 C 231.539062 137.867188 231.566406 137.890625 231.574219 137.941406 C 231.886719 140.386719 234.203125 144.121094 236.109375 144.984375 C 236.148438 145.003906 236.1875 144.996094 236.214844 144.960938 C 236.246094 144.925781 236.25 144.890625 236.222656 144.851562 C 233.855469 141.027344 233.980469 133.050781 235.789062 130.71875 C 235.863281 130.617188 235.964844 130.566406 236.089844 130.5625 C 236.214844 130.558594 236.316406 130.601562 236.402344 130.695312 C 253.453125 150.464844 251.792969 181.429688 236.292969 193.988281 C 230.519531 192.171875 224.65625 190.699219 218.707031 189.570312 C 218.667969 189.5625 218.648438 189.535156 218.652344 189.492188 C 218.65625 189.453125 218.679688 189.429688 218.722656 189.433594 C 220.878906 189.53125 222.988281 189.699219 224.800781 189.972656 C 224.824219 187.984375 225.101562 184.117188 225.226562 182.496094 C 225.226562 182.457031 225.25 182.4375 225.289062 182.4375 C 225.328125 182.4375 225.347656 182.457031 225.351562 182.496094 C 225.800781 187.308594 225.996094 189.621094 226.042969 190.183594 C 226.933594 190.34375 227.800781 190.585938 228.640625 190.917969 L 228.640625 175.605469 C 228.640625 173.207031 217.601562 164.492188 211.800781 162.851562 C 211.765625 162.839844 211.746094 162.8125 211.75 162.773438 C 211.753906 162.730469 211.777344 162.710938 211.816406 162.707031 C 213.761719 162.601562 216.609375 164.054688 217.503906 164.539062 C 217.570312 164.574219 217.632812 164.574219 217.699219 164.539062 C 217.761719 164.503906 217.796875 164.449219 217.800781 164.378906 C 217.90625 162.101562 218.066406 156.949219 208.847656 152.410156 C 208.792969 152.390625 208.773438 152.351562 208.789062 152.296875 C 208.808594 152.242188 208.84375 152.222656 208.902344 152.238281 C 211.207031 152.644531 214.675781 155.015625 215.652344 155.710938 C 215.691406 155.734375 215.726562 155.734375 215.761719 155.707031 C 215.796875 155.679688 215.804688 155.644531 215.789062 155.601562 C 215.574219 155.117188 215.148438 154.152344 214.824219 153.472656 C 214.800781 153.429688 214.808594 153.390625 214.847656 153.359375 C 214.886719 153.328125 214.925781 153.328125 214.964844 153.359375 C 217.058594 155.109375 220.953125 159.96875 220.617188 164.835938 C 220.609375 164.921875 220.640625 164.984375 220.710938 165.03125 C 220.78125 165.078125 220.855469 165.078125 220.925781 165.035156 C 221.917969 164.394531 222.347656 162.640625 222.484375 161.941406 C 222.492188 161.902344 222.515625 161.882812 222.554688 161.882812 C 222.59375 161.882812 222.621094 161.898438 222.632812 161.9375 C 222.804688 162.597656 222.886719 163.269531 222.878906 163.953125 C 222.878906 163.996094 222.902344 164.019531 222.941406 164.03125 C 222.984375 164.039062 223.011719 164.027344 223.03125 163.988281 C 223.441406 163.011719 223.691406 161.992188 223.777344 160.933594 C 223.78125 160.894531 223.804688 160.871094 223.84375 160.867188 C 223.882812 160.859375 223.910156 160.875 223.925781 160.910156 C 224.816406 163.308594 225.097656 165.777344 224.769531 168.3125 C 224.765625 168.351562 224.777344 168.378906 224.808594 168.398438 C 224.835938 168.414062 224.867188 168.417969 224.898438 168.398438 C 225.394531 167.984375 225.804688 167.5 226.128906 166.945312 C 226.15625 166.910156 226.1875 166.894531 226.230469 166.90625 C 226.273438 166.914062 226.296875 166.941406 226.304688 166.984375 C 226.519531 167.945312 226.492188 168.898438 226.21875 169.847656 C 226.210938 169.886719 226.21875 169.917969 226.246094 169.945312 C 226.277344 169.972656 226.308594 169.980469 226.347656 169.96875 C 227.5625 169.460938 228.582031 166.835938 228.277344 164.359375 C 228.273438 164.304688 228.292969 164.273438 228.34375 164.253906 C 228.390625 164.238281 228.429688 164.25 228.460938 164.292969 C 229.742188 166.28125 230.632812 169.769531 229.488281 172.527344 C 229.46875 172.570312 229.472656 172.609375 229.503906 172.648438 C 229.535156 172.683594 229.570312 172.699219 229.617188 172.691406 C 230.210938 172.5625 230.722656 172.28125 231.152344 171.851562 C 231.1875 171.8125 231.230469 171.804688 231.28125 171.828125 C 231.328125 171.851562 231.347656 171.886719 231.34375 171.941406 C 231.175781 172.925781 230.78125 173.8125 230.167969 174.601562 C 230.132812 174.632812 230.125 174.671875 230.144531 174.71875 C 230.164062 174.761719 230.199219 174.78125 230.246094 174.78125 C 232.070312 174.863281 234.316406 173.222656 234.316406 169.261719 C 234.316406 155.988281 203.703125 138.652344 187.167969 138.652344 C 172.582031 138.652344 140.871094 156.070312 140.871094 168.585938 C 140.871094 173.273438 142.421875 175.027344 143.890625 175.023438 C 143.933594 175.027344 143.972656 175.007812 143.996094 174.96875 C 144.023438 174.933594 144.027344 174.894531 144.007812 174.851562 C 143.597656 173.730469 143.402344 172.574219 143.414062 171.382812 C 143.414062 171.328125 143.441406 171.296875 143.488281 171.285156 C 143.539062 171.273438 143.578125 171.289062 143.601562 171.335938 C 143.816406 171.71875 144.078125 172.074219 144.378906 172.394531 C 143.800781 170.46875 143.417969 167.257812 145.089844 164.914062 C 145.148438 164.859375 145.210938 164.851562 145.285156 164.886719 C 145.355469 164.921875 145.386719 164.976562 145.378906 165.054688 C 145.175781 166.972656 146.152344 169.0625 147.570312 169.769531 C 148.839844 168.667969 150.960938 167.148438 150.960938 167.148438 C 150.265625 165.605469 150.554688 163.015625 150.933594 162.117188 C 150.949219 162.078125 150.980469 162.058594 151.023438 162.0625 C 151.066406 162.066406 151.09375 162.089844 151.101562 162.132812 C 151.277344 162.871094 151.609375 163.535156 152.097656 164.117188 C 152.585938 164.703125 153.175781 165.148438 153.875 165.457031 C 153.917969 165.476562 153.957031 165.46875 153.988281 165.433594 C 154.023438 165.402344 154.027344 165.363281 154.011719 165.320312 C 153.75 164.640625 153.578125 163.9375 153.5 163.214844 C 153.421875 162.492188 153.4375 161.769531 153.546875 161.050781 C 153.65625 160.328125 153.859375 159.636719 154.148438 158.96875 C 154.441406 158.300781 154.8125 157.679688 155.265625 157.109375 C 161.0625 149.53125 175.242188 143.601562 181.109375 141.648438 C 181.179688 141.617188 181.234375 141.640625 181.261719 141.710938 C 181.292969 141.785156 181.273438 141.835938 181.199219 141.867188 C 171.636719 147.058594 163.292969 152.042969 159.484375 156.5 C 157.042969 159.355469 157.097656 162.046875 157.90625 164.277344 C 157.917969 164.316406 157.949219 164.339844 157.992188 164.339844 C 158.035156 164.339844 158.066406 164.316406 158.078125 164.277344 C 158.253906 163.808594 158.476562 163.363281 158.746094 162.945312 C 158.785156 162.886719 158.835938 162.863281 158.902344 162.871094 C 158.972656 162.878906 159.015625 162.917969 159.039062 162.980469 L 159.273438 163.683594 C 159.273438 163.683594 160.902344 163.207031 162.824219 162.746094 C 162.867188 162.734375 162.898438 162.75 162.910156 162.792969 C 162.925781 162.832031 162.914062 162.863281 162.875 162.882812 C 157.878906 165.257812 146.46875 171.457031 146.46875 176.960938 L 146.46875 190.152344 C 146.957031 189.960938 147.460938 189.855469 147.988281 189.835938 C 148.003906 185.277344 148.289062 180.847656 148.410156 179.125 C 148.410156 179.085938 148.433594 179.0625 148.472656 179.0625 C 148.515625 179.0625 148.535156 179.085938 148.539062 179.125 C 148.957031 183.832031 149.15625 188.179688 149.21875 189.726562 C 151.082031 189.585938 153.679688 189.492188 156.425781 189.429688 C 156.46875 189.429688 156.492188 189.449219 156.496094 189.492188 C 156.5 189.535156 156.480469 189.5625 156.4375 189.566406 C 150.503906 190.695312 144.65625 192.167969 138.894531 193.984375 C 123.378906 181.40625 121.734375 150.375 138.859375 130.605469 C 138.917969 130.539062 138.992188 130.503906 139.082031 130.503906 C 139.175781 130.503906 139.25 130.535156 139.308594 130.601562 C 141.191406 132.761719 141.375 140.8125 139.03125 144.738281 C 139 144.792969 139.003906 144.84375 139.050781 144.890625 C 139.09375 144.9375 139.144531 144.949219 139.199219 144.921875 C 141.058594 143.972656 143.261719 140.417969 143.605469 138.019531 C 143.613281 137.960938 143.648438 137.925781 143.707031 137.917969 C 143.769531 137.910156 143.808594 137.9375 143.832031 137.992188 C 144.726562 140.1875 144.527344 144.183594 144.085938 145.554688 C 144.074219 145.59375 144.082031 145.628906 144.109375 145.660156 C 144.140625 145.691406 144.171875 145.703125 144.214844 145.691406 C 144.628906 145.550781 144.992188 145.328125 145.300781 145.015625 C 145.726562 146.226562 145.285156 149.511719 144.691406 151.132812 C 144.675781 151.179688 144.683594 151.21875 144.71875 151.25 C 144.753906 151.285156 144.792969 151.292969 144.835938 151.277344 C 145.875 150.847656 146.785156 150.226562 147.5625 149.417969 C 148.339844 148.605469 148.921875 147.675781 149.3125 146.621094 C 149.328125 146.578125 149.359375 146.550781 149.410156 146.542969 C 149.457031 146.53125 149.496094 146.546875 149.527344 146.585938 C 149.734375 146.839844 149.890625 147.117188 150.003906 147.425781 C 150.9375 145.441406 151.203125 137.453125 146.753906 133.78125 C 146.703125 133.738281 146.6875 133.6875 146.710938 133.628906 C 146.734375 133.566406 146.777344 133.539062 146.84375 133.542969 C 147.800781 133.664062 148.699219 133.957031 149.542969 134.425781 C 149.597656 134.453125 149.648438 134.445312 149.695312 134.398438 C 149.738281 134.351562 149.742188 134.300781 149.710938 134.246094 C 148.761719 132.535156 145.222656 130 142.300781 129.210938 C 142.183594 129.179688 142.128906 129.101562 142.128906 128.984375 C 142.128906 128.863281 142.1875 128.789062 142.304688 128.761719 C 145.132812 128.054688 149.640625 128.996094 152.050781 131.203125 C 152.09375 131.246094 152.140625 131.246094 152.191406 131.214844 C 152.238281 131.183594 152.253906 131.136719 152.234375 131.082031 C 151.753906 129.710938 150.355469 127.523438 148.921875 126.683594 C 148.871094 126.65625 148.851562 126.613281 148.863281 126.554688 C 148.875 126.5 148.910156 126.46875 148.96875 126.464844 C 152.839844 126.203125 158.066406 126.617188 160.789062 133.3125 C 160.808594 133.355469 160.84375 133.382812 160.890625 133.386719 C 160.941406 133.394531 160.980469 133.375 161.007812 133.332031 C 161.425781 132.574219 161.601562 131.757812 161.539062 130.894531 C 161.535156 130.847656 161.550781 130.8125 161.589844 130.78125 C 161.625 130.753906 161.667969 130.75 161.710938 130.769531 C 164.253906 131.855469 168.605469 131.492188 170.207031 133.441406 C 170.246094 133.492188 170.292969 133.507812 170.355469 133.484375 C 170.414062 133.457031 170.441406 133.414062 170.429688 133.351562 C 169.691406 128.371094 161.832031 119.71875 152.667969 120.855469 C 152.601562 120.863281 152.558594 120.839844 152.53125 120.78125 C 152.507812 120.722656 152.519531 120.671875 152.566406 120.632812 C 154.929688 118.789062 157.578125 117.539062 160.511719 116.890625 C 160.574219 116.875 160.609375 116.835938 160.609375 116.769531 C 160.613281 116.703125 160.582031 116.664062 160.515625 116.648438 C 156.503906 115.679688 148.246094 118.890625 142.140625 124.804688 C 142.054688 124.890625 141.964844 124.894531 141.871094 124.824219 C 141.777344 124.75 141.761719 124.664062 141.820312 124.558594 C 146.238281 116.914062 153.023438 111.65625 158.230469 110.210938 C 158.300781 110.195312 158.339844 110.152344 158.355469 110.082031 C 158.367188 110.011719 158.347656 109.957031 158.292969 109.914062 C 157.898438 109.617188 157.46875 109.402344 156.996094 109.265625 C 156.9375 109.246094 156.902344 109.203125 156.890625 109.140625 C 156.882812 109.078125 156.902344 109.03125 156.957031 108.992188 C 159.523438 107.121094 161.085938 102.636719 162.648438 101.34375 C 162.710938 101.296875 162.730469 101.234375 162.703125 101.160156 C 162.679688 101.085938 162.628906 101.050781 162.550781 101.046875 C 156.152344 101.011719 149.359375 105.375 145.574219 113.429688 C 145.53125 113.523438 145.460938 113.554688 145.363281 113.523438 C 145.265625 113.492188 145.226562 113.425781 145.246094 113.324219 C 145.632812 111.351562 146.238281 109.449219 147.054688 107.617188 C 147.09375 107.53125 147.074219 107.464844 146.996094 107.410156 C 146.921875 107.359375 146.847656 107.367188 146.785156 107.429688 C 143.484375 110.566406 139.925781 118.101562 139.214844 123.726562 C 139.203125 123.835938 139.144531 123.894531 139.03125 123.902344 C 138.921875 123.910156 138.855469 123.859375 138.824219 123.753906 C 138.179688 121.519531 138.527344 118.847656 138.648438 118.082031 C 138.652344 118.039062 138.636719 118.007812 138.597656 117.984375 C 138.558594 117.964844 138.523438 117.96875 138.488281 117.996094 C 138.011719 118.410156 137.652344 118.90625 137.40625 119.484375 C 137.386719 119.523438 137.355469 119.535156 137.316406 119.53125 C 137.273438 119.523438 137.25 119.503906 137.242188 119.460938 C 136.695312 115.164062 137.179688 108.203125 137.316406 106.472656 C 137.316406 106.429688 137.296875 106.398438 137.253906 106.386719 C 137.210938 106.375 137.175781 106.390625 137.152344 106.425781 C 136.46875 107.792969 135.414062 110.980469 135.316406 113.003906 C 135.316406 113.050781 135.292969 113.074219 135.25 113.082031 C 135.203125 113.089844 135.171875 113.070312 135.160156 113.027344 C 133.121094 107.941406 128.164062 102.664062 125.507812 100.984375 C 125.480469 100.964844 125.449219 100.964844 125.421875 100.988281 C 125.390625 101.007812 125.382812 101.035156 125.390625 101.070312 C 126.019531 103.375 124.894531 111.003906 127.300781 114.570312 C 128.570312 116.484375 129.992188 118.28125 131.5625 119.957031 C 131.597656 119.992188 131.601562 120.027344 131.578125 120.066406 C 131.554688 120.105469 131.519531 120.117188 131.476562 120.105469 C 130.023438 119.738281 127.902344 120.484375 127.011719 121.160156 C 126.984375 121.183594 126.972656 121.210938 126.984375 121.246094 C 126.996094 121.28125 127.019531 121.300781 127.054688 121.300781 C 129.828125 121.441406 133.382812 123.242188 135.105469 125.398438 C 135.164062 125.476562 135.171875 125.558594 135.117188 125.640625 C 135.066406 125.726562 134.992188 125.757812 134.894531 125.738281 C 129.460938 124.652344 118.691406 125.4375 113.28125 131.996094 C 113.257812 132.027344 113.253906 132.058594 113.277344 132.089844 C 113.296875 132.125 113.324219 132.136719 113.363281 132.128906 C 115.359375 131.675781 119.917969 133.605469 122.78125 132.328125 C 125.507812 131.117188 127.441406 130.320312 129.0625 130 C 129.121094 129.984375 129.164062 130.007812 129.191406 130.0625 C 129.21875 130.117188 129.207031 130.164062 129.160156 130.203125 C 127.742188 131.421875 126.816406 133.496094 126.300781 135.367188 C 126.28125 135.429688 126.304688 135.476562 126.363281 135.507812 C 126.421875 135.539062 126.472656 135.527344 126.515625 135.476562 C 127.742188 134.042969 129.148438 132.804688 130.726562 131.761719 C 132.304688 130.722656 133.996094 129.917969 135.800781 129.347656 C 135.9375 129.308594 136.039062 129.351562 136.113281 129.46875 C 136.1875 129.589844 136.179688 129.703125 136.082031 129.804688 C 122.953125 143.75 119.070312 174.597656 130.199219 195.691406 C 131.128906 195.679688 132.042969 195.777344 132.949219 195.984375 C 130.296875 196.945312 127.710938 197.972656 125.183594 199.066406 C 114.292969 192.195312 107.117188 179.585938 106.828125 167.597656 C 106.828125 167.546875 106.839844 167.5 106.863281 167.460938 C 106.886719 167.417969 106.917969 167.382812 106.960938 167.355469 C 107.003906 167.332031 107.050781 167.320312 107.097656 167.320312 C 107.148438 167.316406 107.195312 167.328125 107.238281 167.351562 C 109.726562 168.707031 112.320312 172.066406 113.304688 174.226562 C 113.328125 174.277344 113.367188 174.296875 113.421875 174.285156 C 113.480469 174.269531 113.503906 174.234375 113.503906 174.179688 C 113.398438 172.839844 113.046875 171.566406 112.445312 170.363281 C 112.421875 170.320312 112.429688 170.28125 112.464844 170.25 C 112.503906 170.214844 112.542969 170.210938 112.582031 170.238281 C 114.714844 171.464844 117.523438 172.226562 120.683594 172.410156 C 119.917969 168.582031 116.410156 166.667969 114.992188 166.109375 C 114.945312 166.085938 114.921875 166.050781 114.925781 165.996094 C 114.925781 165.945312 114.953125 165.910156 115 165.890625 C 115.417969 165.753906 115.84375 165.65625 116.28125 165.601562 C 116.335938 165.59375 116.367188 165.5625 116.375 165.507812 C 116.382812 165.453125 116.363281 165.414062 116.308594 165.390625 C 114.382812 164.617188 109.914062 164.183594 107.960938 164.261719 C 107.914062 164.261719 107.871094 164.253906 107.828125 164.230469 C 107.789062 164.207031 107.753906 164.175781 107.730469 164.136719 C 107.703125 164.097656 107.691406 164.054688 107.691406 164.007812 C 107.6875 163.960938 107.699219 163.914062 107.722656 163.875 C 109.128906 161.160156 112.394531 158.296875 114.332031 157.386719 C 114.367188 157.367188 114.382812 157.339844 114.371094 157.300781 C 114.363281 157.261719 114.335938 157.242188 114.296875 157.246094 C 112.167969 157.308594 109.144531 159.238281 107.6875 160.6875 C 107.582031 160.792969 107.464844 160.808594 107.335938 160.738281 C 107.207031 160.664062 107.160156 160.558594 107.195312 160.414062 C 107.59375 158.527344 108.363281 156.808594 109.507812 155.253906 C 110.65625 153.703125 112.074219 152.457031 113.761719 151.515625 C 113.816406 151.488281 113.84375 151.441406 113.839844 151.375 C 113.835938 151.3125 113.804688 151.269531 113.746094 151.246094 C 113.132812 151.011719 112.542969 150.726562 111.972656 150.402344 C 113.21875 148.449219 112.691406 145.609375 114.273438 143.796875 C 114.328125 143.734375 114.339844 143.664062 114.296875 143.589844 C 114.257812 143.515625 114.195312 143.484375 114.109375 143.5 C 110.246094 144.203125 105.257812 148.71875 105.15625 157.992188 C 105.160156 158.144531 105.082031 158.238281 104.933594 158.273438 C 104.78125 158.304688 104.675781 158.253906 104.609375 158.113281 C 103.253906 155.101562 103 149.300781 103.15625 146.996094 C 103.160156 146.957031 103.140625 146.933594 103.101562 146.925781 C 103.066406 146.917969 103.039062 146.929688 103.027344 146.96875 C 102.039062 149.71875 101.371094 156.605469 103.125 161.128906 C 103.183594 161.273438 103.148438 161.390625 103.023438 161.480469 C 102.898438 161.570312 102.777344 161.5625 102.660156 161.464844 C 100.820312 159.910156 100.09375 156.65625 99.96875 154.839844 C 99.964844 154.800781 99.945312 154.78125 99.90625 154.773438 C 99.871094 154.769531 99.84375 154.785156 99.828125 154.820312 C 99.601562 155.410156 99.40625 156.011719 99.242188 156.621094 C 99.234375 156.660156 99.210938 156.679688 99.171875 156.6875 C 99.132812 156.691406 99.105469 156.679688 99.085938 156.644531 C 97.363281 153.898438 95.167969 150.707031 95.058594 147.839844 C 95.058594 147.800781 95.042969 147.777344 95.003906 147.761719 C 94.96875 147.75 94.941406 147.757812 94.914062 147.789062 C 92.699219 150.582031 92.632812 156.25 95.308594 159.730469 C 97.3125 162.328125 100.4375 163.503906 101.96875 163.945312 C 102.105469 163.984375 102.175781 164.074219 102.179688 164.214844 C 102.1875 164.351562 102.125 164.449219 101.992188 164.5 C 98.789062 165.726562 94.613281 167.816406 92.925781 171.480469 C 92.910156 171.519531 92.917969 171.550781 92.953125 171.578125 C 92.988281 171.601562 93.023438 171.597656 93.054688 171.570312 C 94.183594 170.636719 95.441406 169.925781 96.824219 169.441406 C 96.859375 169.425781 96.886719 169.433594 96.910156 169.460938 C 96.933594 169.488281 96.9375 169.519531 96.917969 169.550781 C 95.25 172.429688 93.523438 179.316406 100.171875 183.070312 C 100.210938 183.09375 100.25 183.089844 100.289062 183.0625 C 100.324219 183.03125 100.335938 182.996094 100.324219 182.949219 C 99.621094 180.3125 101.410156 177.804688 101.351562 175.714844 C 101.289062 173.667969 100.429688 172.59375 100.71875 170.972656 C 100.726562 170.933594 100.75 170.914062 100.792969 170.910156 C 100.832031 170.90625 100.859375 170.921875 100.875 170.957031 C 101.113281 171.476562 101.414062 171.953125 101.785156 172.386719 C 101.808594 172.414062 101.835938 172.421875 101.867188 172.410156 C 101.902344 172.398438 101.917969 172.371094 101.914062 172.339844 C 101.84375 169.855469 102.59375 167.59375 104.292969 166.234375 C 104.390625 166.15625 104.496094 166.148438 104.609375 166.203125 C 104.722656 166.257812 104.78125 166.347656 104.78125 166.472656 C 104.847656 177.90625 110.042969 191.519531 119.746094 200.644531 C 120.320312 200.621094 120.886719 200.65625 121.453125 200.742188 C 109.0625 206.570312 98.359375 213.972656 90.007812 222.550781 C 89.953125 222.605469 89.925781 222.671875 89.921875 222.75 C 89.921875 222.828125 89.945312 222.898438 90 222.957031 C 90.050781 223.011719 90.117188 223.046875 90.195312 223.050781 C 90.273438 223.058594 90.34375 223.039062 90.402344 222.988281 C 111.835938 206.433594 144.113281 195.488281 180.589844 194.238281 C 180.707031 194.234375 180.773438 194.289062 180.792969 194.402344 C 180.808594 194.515625 180.765625 194.589844 180.652344 194.621094 C 171.710938 197.144531 161.472656 200.867188 155.910156 204.039062 C 155.765625 204.121094 155.71875 204.238281 155.761719 204.398438 C 155.808594 204.558594 155.914062 204.632812 156.082031 204.628906 C 166.449219 204.199219 187.132812 205.90625 193.640625 206.480469 C 193.78125 206.492188 193.855469 206.566406 193.859375 206.710938 C 193.863281 206.851562 193.792969 206.933594 193.652344 206.953125 C 177.976562 209.453125 155.773438 216.988281 146.9375 221.742188 C 146.703125 221.871094 146.621094 222.0625 146.683594 222.320312 C 146.75 222.578125 146.917969 222.707031 147.183594 222.703125 L 232.554688 222.703125 C 232.683594 222.707031 232.792969 222.664062 232.890625 222.585938 C 232.984375 222.503906 233.042969 222.402344 233.0625 222.277344 C 233.085938 222.152344 233.0625 222.039062 232.996094 221.929688 C 232.933594 221.824219 232.839844 221.75 232.722656 221.710938 C 221.097656 217.714844 199.765625 215.1875 193.566406 214.515625 C 193.351562 214.492188 193.234375 214.371094 193.207031 214.160156 C 193.183594 213.945312 193.273438 213.804688 193.476562 213.730469 C 202.984375 210.394531 214.71875 208.625 218.890625 208.0625 C 219.082031 208.035156 219.183594 207.925781 219.203125 207.734375 C 219.21875 207.542969 219.136719 207.417969 218.949219 207.359375 C 208.550781 204.105469 186.554688 201.511719 180.296875 200.816406 C 180.144531 200.800781 180.0625 200.710938 180.054688 200.558594 C 180.046875 200.402344 180.121094 200.3125 180.273438 200.277344 C 192.917969 197.710938 209.234375 196.898438 220.949219 196.917969 C 246.460938 201.300781 268.6875 210.558594 284.785156 222.992188 C 284.929688 223.109375 285.066406 223.097656 285.1875 222.960938 C 285.3125 222.824219 285.3125 222.6875 285.183594 222.558594 Z M 204.617188 185.960938 C 203.988281 185.09375 203.179688 184.320312 202.636719 184.105469 C 202.609375 184.09375 202.585938 184.101562 202.566406 184.121094 C 202.546875 184.144531 202.542969 184.167969 202.558594 184.191406 C 202.957031 184.929688 203.261719 185.699219 203.480469 186.503906 C 203.484375 186.527344 203.480469 186.542969 203.460938 186.554688 C 203.445312 186.570312 203.425781 186.570312 203.410156 186.558594 C 201.835938 185.691406 199.699219 185.40625 198.914062 185.328125 C 198.886719 185.324219 198.867188 185.335938 198.863281 185.367188 C 198.855469 185.394531 198.863281 185.414062 198.890625 185.425781 C 200.074219 185.949219 201.210938 186.554688 202.308594 187.242188 C 202.328125 187.253906 202.335938 187.273438 202.328125 187.300781 C 202.316406 187.324219 202.300781 187.335938 202.273438 187.332031 C 200.386719 187.167969 198.484375 187.035156 196.570312 186.929688 L 196.511719 186.480469 C 196.492188 186.339844 196.414062 186.269531 196.273438 186.269531 L 195.335938 186.269531 C 195.265625 186.269531 195.207031 186.296875 195.15625 186.351562 L 194.714844 186.839844 C 194.222656 186.816406 193.730469 186.796875 193.234375 186.78125 L 192.816406 185.902344 C 192.75 185.761719 192.640625 185.671875 192.488281 185.636719 L 191.441406 185.375 C 191.246094 185.328125 191.085938 185.378906 190.953125 185.527344 L 189.898438 186.699219 C 189.132812 186.6875 188.363281 186.683594 187.59375 186.683594 C 185.242188 186.683594 182.910156 186.734375 180.597656 186.835938 L 179.730469 185.796875 C 179.597656 185.636719 179.425781 185.570312 179.21875 185.597656 L 172.597656 186.425781 C 172.457031 186.445312 172.339844 186.507812 172.246094 186.613281 L 171.484375 187.46875 L 171.402344 187.4375 C 171.4375 186.429688 171.617188 185.445312 171.933594 184.488281 C 171.945312 184.453125 171.9375 184.421875 171.90625 184.394531 C 171.878906 184.371094 171.84375 184.367188 171.8125 184.386719 C 171.355469 184.675781 170.957031 185.03125 170.613281 185.445312 C 170.585938 185.472656 170.554688 185.480469 170.519531 185.46875 C 170.484375 185.457031 170.464844 185.429688 170.460938 185.390625 L 170.460938 163.148438 C 170.460938 163.082031 170.492188 163.039062 170.554688 163.015625 C 170.617188 162.996094 170.667969 163.011719 170.707031 163.066406 C 171.078125 163.515625 171.523438 163.878906 172.035156 164.160156 C 172.078125 164.183594 172.117188 164.183594 172.15625 164.15625 C 172.195312 164.128906 172.210938 164.089844 172.203125 164.042969 C 171.917969 162.109375 172.605469 159.027344 173.101562 157.773438 C 173.121094 157.722656 173.15625 157.703125 173.210938 157.710938 C 173.261719 157.71875 173.292969 157.75 173.296875 157.800781 C 173.460938 159.210938 174.0625 161.898438 174.046875 163.121094 C 174.042969 163.191406 174.070312 163.246094 174.132812 163.28125 C 174.191406 163.316406 174.25 163.316406 174.3125 163.277344 C 174.636719 163.042969 174.921875 162.769531 175.171875 162.453125 C 175.203125 162.417969 175.238281 162.390625 175.285156 162.371094 C 175.328125 162.355469 175.375 162.351562 175.421875 162.355469 C 175.46875 162.363281 175.511719 162.382812 175.550781 162.410156 C 175.585938 162.4375 175.617188 162.476562 175.632812 162.519531 C 176.222656 163.871094 177.023438 165.082031 178.035156 166.152344 C 178.074219 166.195312 178.117188 166.207031 178.171875 166.183594 C 178.222656 166.164062 178.25 166.125 178.246094 166.066406 C 178.0625 162.246094 178.601562 157.324219 179.515625 155.046875 C 179.535156 155 179.570312 154.980469 179.625 154.992188 C 179.675781 155.007812 179.699219 155.039062 179.695312 155.089844 C 179.515625 157.152344 180.070312 161.335938 180.894531 163.039062 C 180.925781 163.097656 180.972656 163.128906 181.042969 163.125 C 181.109375 163.121094 181.152344 163.089844 181.179688 163.027344 C 181.457031 162.394531 181.777344 161.785156 182.140625 161.195312 C 182.175781 161.136719 182.230469 161.113281 182.296875 161.125 C 182.363281 161.136719 182.40625 161.171875 182.421875 161.238281 L 182.625 162.046875 C 182.65625 162.175781 182.738281 162.242188 182.871094 162.238281 L 187.585938 162.238281 C 187.660156 162.238281 187.71875 162.265625 187.769531 162.316406 C 187.820312 162.367188 187.84375 162.429688 187.84375 162.5 C 187.835938 162.894531 187.808594 163.289062 187.761719 163.679688 C 188.375 163.230469 189.058594 161.546875 189.113281 160.140625 C 189.113281 160.117188 189.125 160.097656 189.152344 160.089844 C 189.179688 160.085938 189.199219 160.09375 189.210938 160.117188 C 190.019531 161.417969 190.578125 162.820312 190.882812 164.324219 C 190.886719 164.347656 190.898438 164.363281 190.921875 164.367188 C 190.945312 164.375 190.964844 164.371094 190.980469 164.351562 C 191.296875 163.96875 191.515625 163.53125 191.632812 163.046875 C 191.652344 162.960938 191.707031 162.917969 191.800781 162.917969 C 193.003906 162.9375 194.960938 163.179688 195.449219 163.242188 C 195.523438 163.25 195.582031 163.289062 195.621094 163.355469 C 196.714844 165.25 197.140625 166.628906 197.171875 167.835938 C 197.171875 167.855469 197.179688 167.867188 197.199219 167.875 C 197.21875 167.878906 197.230469 167.871094 197.242188 167.855469 C 197.511719 167.25 197.75 166.632812 197.953125 166 C 197.964844 165.96875 197.988281 165.953125 198.019531 165.957031 C 198.054688 165.957031 198.074219 165.976562 198.082031 166.007812 C 198.484375 167.300781 198.613281 168.625 198.46875 169.96875 C 198.464844 170 198.476562 170.019531 198.503906 170.027344 C 198.53125 170.039062 198.550781 170.03125 198.566406 170.007812 C 199.4375 168.492188 200.253906 162.757812 199.832031 159.484375 C 199.828125 159.457031 199.835938 159.441406 199.863281 159.429688 C 199.886719 159.421875 199.90625 159.425781 199.921875 159.449219 C 200.671875 160.667969 201.082031 161.996094 201.160156 163.425781 C 202.0625 163.496094 203.195312 162.140625 203.574219 161.652344 C 203.59375 161.625 203.621094 161.617188 203.65625 161.628906 C 203.691406 161.640625 203.707031 161.667969 203.703125 161.703125 C 203.707031 162.761719 203.609375 163.808594 203.40625 164.851562 C 203.402344 164.878906 203.410156 164.898438 203.4375 164.910156 C 203.460938 164.921875 203.484375 164.921875 203.503906 164.898438 C 203.964844 164.375 204.34375 163.796875 204.644531 163.167969 C 204.667969 163.128906 204.699219 163.117188 204.742188 163.128906 C 204.78125 163.136719 204.804688 163.164062 204.808594 163.207031 L 204.808594 185.890625 C 204.8125 185.945312 204.789062 185.980469 204.738281 185.996094 C 204.6875 186.015625 204.648438 186.003906 204.617188 185.960938 Z M 204.617188 185.960938 " fill-opacity="1" fill-rule="nonzero"/></g><g clip-path="url(#id4)"><g clip-path="url(#id5)"><g clip-path="url(#id6)"><path stroke-linecap="butt" transform="matrix(0.0531883, -0.00766833, 0.00763853, 0.0529816, 165.259388, 89.794895)" fill-opacity="1" fill="rgb(9.408569%, 23.919678%, 41.569519%)" fill-rule="evenodd" stroke-linejoin="miter" d="M 223.175155 199.849836 L 221.239463 186.224823 L 210.508405 185.261483 L 209.596265 191.101468 Z M 223.175155 199.849836 " stroke="rgb(0%, 0%, 0%)" stroke-width="1" stroke-opacity="1" stroke-miterlimit="4"/></g></g></g><g clip-path="url(#id7)"><g clip-path="url(#id8)"><g clip-path="url(#id9)"><path fill="rgb(9.408569%, 23.919678%, 41.569519%)" d="M 190.066406 97.078125 L 188.5 94.257812 L 187.601562 94.230469 C 187.601562 94.230469 187.914062 96.023438 187.972656 96.800781 C 188.03125 97.582031 188.039062 97.632812 188.039062 97.632812 Z M 190.066406 97.078125 " fill-opacity="1" fill-rule="evenodd"/></g></g></g><g clip-path="url(#id10)"><g clip-path="url(#id11)"><g clip-path="url(#id12)"><path stroke-linecap="butt" transform="matrix(0.0531883, -0.00766833, 0.00763853, 0.0529816, 165.259388, 89.794895)" fill="none" stroke-linejoin="miter" d="M 437.562837 200.7982 L 416.201441 144.474502 L 399.726365 141.57387 C 399.726365 141.57387 400.720985 175.559185 399.736003 190.088583 C 398.740648 204.690209 398.749695 205.649988 398.749695 205.649988 Z M 437.562837 200.7982 " stroke="rgb(0%, 0%, 0%)" stroke-width="1" stroke-opacity="1" stroke-miterlimit="4"/></g></g></g><g clip-path="url(#id13)"><g clip-path="url(#id14)"><g clip-path="url(#id15)"><path fill="rgb(9.408569%, 23.919678%, 41.569519%)" d="M 175.949219 100.003906 C 176.1875 99.8125 176.703125 99.738281 176.703125 99.738281 L 174.398438 96.921875 L 175.363281 96.679688 L 179.453125 99.078125 L 196.472656 95.839844 C 196.472656 95.839844 198.027344 95.667969 198.667969 95.730469 C 199.3125 95.796875 199.730469 96.15625 200.003906 96.222656 C 200.277344 96.285156 200.816406 96.367188 200.910156 96.667969 C 201.007812 96.96875 201.066406 97.011719 200.734375 97.269531 C 200.402344 97.527344 199.011719 98.097656 198.605469 98.207031 C 198.199219 98.316406 191.816406 99.34375 191.574219 99.484375 C 191.328125 99.625 190.28125 100.035156 189.972656 100.082031 C 189.664062 100.125 186.417969 100.644531 186.042969 100.59375 C 185.667969 100.542969 181.050781 101.050781 180.523438 101.023438 C 179.992188 100.996094 178.023438 100.859375 177.699219 100.800781 C 177.375 100.742188 176.363281 100.679688 176.128906 100.503906 C 175.890625 100.328125 175.949219 100.003906 175.949219 100.003906 Z M 175.949219 100.003906 " fill-opacity="1" fill-rule="evenodd"/></g></g></g><g clip-path="url(#id16)"><g clip-path="url(#id17)"><g clip-path="url(#id18)"><path stroke-linecap="butt" transform="matrix(0.0531883, -0.00766833, 0.00763853, 0.0529816, 165.259388, 89.794895)" fill="none" stroke-linejoin="miter" d="M 169.779151 217.262924 C 174.67615 214.359001 184.370164 214.361231 184.370164 214.361231 L 149.400515 156.141662 L 167.814401 154.235646 L 236.773465 209.485757 L 558.843188 194.979889 C 558.843188 194.979889 587.934279 195.946359 599.567533 198.809763 C 611.262362 201.755806 618.006338 209.514918 622.866253 211.471705 C 627.736541 213.356266 637.447324 216.310061 638.375336 222.121468 C 639.375295 227.943288 640.340392 228.893985 633.540341 232.775852 C 626.74029 236.657718 599.612929 243.495772 591.840061 244.435156 C 584.067192 245.37454 463.778648 247.355065 458.944549 249.309622 C 454.038503 251.253765 433.667713 256.04687 427.85947 256.090951 C 422.0616 256.062804 360.894518 257.015622 354.122505 255.077 C 347.350491 253.138377 260.961322 250.219471 251.32116 248.308095 C 241.609051 246.386307 205.711084 238.61009 199.89512 236.662386 C 194.079156 234.714681 175.610988 230.862021 171.760975 226.987006 C 167.839015 223.101578 169.779151 217.262924 169.779151 217.262924 Z M 169.779151 217.262924 " stroke="rgb(0%, 0%, 0%)" stroke-width="1" stroke-opacity="1" stroke-miterlimit="4"/></g></g></g><g clip-path="url(#id19)"><g clip-path="url(#id20)"><g clip-path="url(#id21)"><path fill="rgb(9.408569%, 23.919678%, 41.569519%)" d="M 178.015625 100.847656 C 178.015625 100.847656 179.960938 100.945312 180.785156 100.867188 C 181.609375 100.785156 184.320312 100.394531 187.46875 99.980469 C 190.617188 99.5625 201.472656 97.125 200.0625 97.707031 C 198.652344 98.289062 198.816406 98.226562 198.265625 98.347656 L 191.539062 99.542969 C 191.539062 99.542969 190.917969 99.824219 190.535156 99.917969 C 190.152344 100.007812 186.28125 100.566406 186.28125 100.566406 L 184.148438 100.722656 C 184.148438 100.722656 181.082031 101.089844 180.640625 101.078125 C 180.199219 101.066406 178.015625 100.847656 178.015625 100.847656 Z M 178.015625 100.847656 " fill-opacity="0.2863" fill-rule="evenodd"/></g></g></g><g clip-path="url(#id22)"><g clip-path="url(#id23)"><g clip-path="url(#id24)"><path fill="rgb(9.408569%, 23.919678%, 41.569519%)" d="M 176.703125 100.472656 L 174.917969 101.988281 L 175.882812 101.746094 C 175.882812 101.746094 178.367188 100.335938 178.414062 100.277344 C 178.457031 100.21875 178.957031 100.042969 178.375 100.023438 C 177.792969 100 176.703125 100.472656 176.703125 100.472656 Z M 176.703125 100.472656 " fill-opacity="1" fill-rule="evenodd"/></g></g></g><g clip-path="url(#id25)"><g clip-path="url(#id26)"><g clip-path="url(#id27)"><path stroke-linecap="butt" transform="matrix(0.0531883, -0.00766833, 0.00763853, 0.0529816, 165.259388, 89.794895)" fill="none" stroke-linejoin="miter" d="M 182.420086 227.939933 L 145.515925 251.205218 L 163.92981 249.299202 C 163.92981 249.299202 213.432322 229.848018 214.451271 228.88957 C 215.398273 227.920708 225.074194 226.00338 214.406036 224.090673 C 203.748251 222.10574 182.420086 227.939933 182.420086 227.939933 Z M 182.420086 227.939933 " stroke="rgb(0%, 0%, 0%)" stroke-width="1" stroke-opacity="1" stroke-miterlimit="4"/></g></g></g><g clip-path="url(#id28)"><g clip-path="url(#id29)"><g clip-path="url(#id30)"><path stroke-linecap="butt" transform="matrix(0.0531883, -0.00766833, 0.00763853, 0.0529816, 165.259388, 89.794895)" fill-opacity="1" fill="rgb(9.408569%, 23.919678%, 41.569519%)" fill-rule="evenodd" stroke-linejoin="miter" d="M 380.348062 278.042173 C 382.940123 276.869039 391.249061 274.75386 400.256055 273.40327 C 399.823713 273.856794 425.119969 268.007098 428.022317 273.366977 C 430.916943 276.735071 431.450361 277.623289 431.87276 284.909813 C 431.085093 289.883072 430.05819 297.033559 425.307735 297.894295 C 418.471496 297.937045 399.546264 297.778382 384.027238 294.868668 C 368.508212 291.958953 362.690922 291.043255 362.690922 291.043255 L 363.65824 282.262118 Z M 380.348062 278.042173 " stroke="rgb(0%, 0%, 0%)" stroke-width="1" stroke-opacity="1" stroke-miterlimit="4"/></g></g></g><g clip-path="url(#id31)"><g clip-path="url(#id32)"><g clip-path="url(#id33)"><path stroke-linecap="butt" transform="matrix(0.0531883, -0.00766833, 0.00763853, 0.0529816, 165.259388, 89.794895)" fill-opacity="1" fill="rgb(9.408569%, 23.919678%, 41.569519%)" fill-rule="evenodd" stroke-linejoin="miter" d="M 365.773423 252.192141 C 358.00738 263.823138 348.320191 274.51252 348.320191 274.51252 L 254.208583 345.310274 C 254.208583 345.310274 257.110268 351.186157 266.778467 347.277043 C 276.518613 343.378343 387.132437 278.360558 387.132437 278.360558 L 430.746608 249.283435 C 430.746608 249.283435 437.564753 247.321127 430.783692 244.422725 C 424.002631 241.524323 410.42152 242.507788 396.849455 244.451033 C 383.205444 246.383864 365.773423 252.192141 365.773423 252.192141 Z M 365.773423 252.192141 " stroke="rgb(0%, 0%, 0%)" stroke-width="1" stroke-opacity="1" stroke-miterlimit="4"/></g></g></g><g clip-path="url(#id34)"><g clip-path="url(#id35)"><g clip-path="url(#id36)"><path fill="rgb(9.408569%, 23.919678%, 41.569519%)" d="M 180.59375 100.070312 L 185.179688 99.355469 " fill-opacity="0.749" fill-rule="evenodd"/><path fill="rgb(0%, 0%, 0%)" d="M 180.578125 99.957031 L 180.804688 99.921875 L 180.839844 100.148438 L 180.613281 100.183594 M 181.035156 99.886719 L 181.261719 99.847656 L 181.296875 100.078125 L 181.070312 100.113281 M 181.488281 99.8125 L 181.71875 99.777344 L 181.753906 100.003906 L 181.523438 100.042969 M 181.945312 99.742188 L 182.175781 99.707031 L 182.210938 99.933594 L 181.980469 99.96875 M 182.402344 99.671875 L 182.632812 99.636719 L 182.667969 99.863281 L 182.4375 99.898438 M 182.859375 99.601562 L 183.089844 99.566406 L 183.125 99.792969 L 182.894531 99.828125 M 183.316406 99.53125 L 183.542969 99.492188 L 183.582031 99.722656 L 183.351562 99.757812 M 183.773438 99.457031 L 184 99.421875 L 184.035156 99.648438 L 183.808594 99.6875 M 184.230469 99.386719 L 184.457031 99.351562 L 184.492188 99.578125 L 184.265625 99.613281 M 184.6875 99.316406 L 184.914062 99.28125 L 184.949219 99.507812 L 184.722656 99.542969 M 185.144531 99.246094 L 185.160156 99.242188 L 185.199219 99.46875 L 185.179688 99.472656 " fill-opacity="1" fill-rule="nonzero"/></g></g></g><g clip-path="url(#id37)"><g clip-path="url(#id38)"><g clip-path="url(#id39)"><path fill="rgb(9.408569%, 23.919678%, 41.569519%)" d="M 186.308594 99.140625 L 191.5625 98.332031 " fill-opacity="0.749" fill-rule="evenodd"/><path fill="rgb(0%, 0%, 0%)" d="M 186.289062 99.023438 L 186.527344 98.984375 L 186.566406 99.222656 L 186.328125 99.261719 M 186.765625 98.949219 L 187.007812 98.910156 L 187.042969 99.148438 L 186.804688 99.1875 M 187.246094 98.875 L 187.484375 98.835938 L 187.519531 99.074219 L 187.28125 99.113281 M 187.722656 98.800781 L 187.960938 98.765625 L 188 99.003906 L 187.761719 99.039062 M 188.203125 98.726562 L 188.441406 98.691406 L 188.476562 98.929688 L 188.238281 98.964844 M 188.679688 98.652344 L 188.917969 98.617188 L 188.957031 98.855469 L 188.714844 98.890625 M 189.15625 98.578125 L 189.398438 98.542969 L 189.433594 98.78125 L 189.195312 98.816406 M 189.636719 98.507812 L 189.875 98.46875 L 189.910156 98.707031 L 189.671875 98.742188 M 190.113281 98.433594 L 190.351562 98.394531 L 190.390625 98.632812 L 190.148438 98.671875 M 190.589844 98.359375 L 190.832031 98.320312 L 190.867188 98.558594 L 190.628906 98.597656 M 191.070312 98.285156 L 191.308594 98.25 L 191.34375 98.484375 L 191.105469 98.523438 " fill-opacity="1" fill-rule="nonzero"/></g></g></g><g clip-path="url(#id40)"><g clip-path="url(#id41)"><g clip-path="url(#id42)"><path fill="rgb(9.408569%, 23.919678%, 41.569519%)" d="M 192.839844 98.042969 L 196.90625 97.402344 " fill-opacity="0.749" fill-rule="evenodd"/><path fill="rgb(0%, 0%, 0%)" d="M 192.820312 97.910156 L 193.078125 97.871094 L 193.121094 98.128906 L 192.859375 98.171875 M 193.339844 97.832031 L 193.597656 97.789062 L 193.640625 98.046875 L 193.378906 98.089844 M 193.859375 97.75 L 194.121094 97.707031 L 194.160156 97.964844 L 193.898438 98.007812 M 194.378906 97.667969 L 194.640625 97.625 L 194.679688 97.886719 L 194.421875 97.925781 M 194.898438 97.585938 L 195.160156 97.542969 L 195.199219 97.804688 L 194.941406 97.84375 M 195.417969 97.503906 L 195.679688 97.460938 L 195.71875 97.722656 L 195.460938 97.761719 M 195.941406 97.421875 L 196.199219 97.378906 L 196.242188 97.640625 L 195.980469 97.679688 M 196.460938 97.339844 L 196.71875 97.300781 L 196.761719 97.558594 L 196.5 97.597656 " fill-opacity="1" fill-rule="nonzero"/></g></g></g><g clip-path="url(#id43)"><g clip-path="url(#id44)"><g clip-path="url(#id45)"><path fill="rgb(9.408569%, 23.919678%, 41.569519%)" d="M 179.539062 100.417969 C 179.476562 100.253906 179.539062 100.460938 179.441406 100.160156 C 179.398438 99.957031 179.410156 99.902344 179.421875 99.757812 L 179.828125 99.71875 C 179.828125 99.71875 179.8125 99.761719 179.851562 100.019531 C 179.886719 100.277344 179.9375 100.28125 179.992188 100.394531 Z M 179.539062 100.417969 " fill-opacity="0.749" fill-rule="evenodd"/></g></g></g><g clip-path="url(#id46)"><g clip-path="url(#id47)"><g clip-path="url(#id48)"><path stroke-linecap="butt" transform="matrix(0.0531883, -0.00766833, 0.00763853, 0.0529816, 165.259388, 89.794895)" fill="none" stroke-linejoin="miter" d="M 234.798431 234.488756 C 234.082943 231.288605 234.68433 235.283254 233.684371 229.461434 C 233.432344 225.591078 233.793402 224.611137 234.393033 221.969973 L 241.979192 222.330677 C 241.979192 222.330677 241.577306 223.083523 241.612169 227.954646 C 241.575085 232.815356 242.500016 233.022955 243.206456 235.263327 Z M 234.798431 234.488756 " stroke="rgb(0%, 0%, 0%)" stroke-width="1" stroke-opacity="0.4706" stroke-miterlimit="4"/></g></g></g><g clip-path="url(#id49)"><g clip-path="url(#id50)"><g clip-path="url(#id51)"><path fill="rgb(9.408569%, 23.919678%, 41.569519%)" d="M 185.648438 99.753906 C 185.648438 99.753906 185.566406 99.683594 185.460938 99.332031 C 185.359375 98.976562 185.421875 98.839844 185.433594 98.816406 L 185.933594 98.730469 C 185.933594 98.730469 185.917969 98.984375 186 99.25 C 186.058594 99.445312 186.152344 99.613281 186.195312 99.679688 Z M 185.648438 99.753906 " fill-opacity="0.749" fill-rule="evenodd"/></g></g></g><g clip-path="url(#id52)"><g clip-path="url(#id53)"><g clip-path="url(#id54)"><path stroke-linecap="butt" transform="matrix(0.0531883, -0.00766833, 0.00763853, 0.0529816, 165.259388, 89.794895)" fill="none" stroke-linejoin="miter" d="M 349.086056 238.496429 C 349.086056 238.496429 347.76189 236.977663 346.752884 230.196064 C 345.826197 223.35265 347.340387 220.991312 347.618463 220.589189 L 357.05581 220.333085 C 357.05581 220.333085 356.093795 224.986196 356.899323 230.116319 C 357.459882 233.883874 358.740568 237.239559 359.355642 238.581965 Z M 349.086056 238.496429 " stroke="rgb(0%, 0%, 0%)" stroke-width="1" stroke-opacity="0.4706" stroke-miterlimit="4"/></g></g></g><g clip-path="url(#id55)"><g clip-path="url(#id56)"><g clip-path="url(#id57)"><path fill="rgb(9.408569%, 23.919678%, 41.569519%)" d="M 192 98.792969 C 192 98.792969 191.851562 98.550781 191.8125 98.292969 C 191.777344 98.035156 191.785156 97.785156 191.785156 97.785156 L 192.335938 97.699219 C 192.335938 97.78125 192.347656 97.972656 192.375 98.179688 C 192.40625 98.382812 192.566406 98.695312 192.566406 98.695312 Z M 192 98.792969 " fill-opacity="0.749" fill-rule="evenodd"/></g></g></g><g clip-path="url(#id58)"><g clip-path="url(#id59)"><g clip-path="url(#id60)"><path stroke-linecap="butt" transform="matrix(0.0531883, -0.00766833, 0.00763853, 0.0529816, 165.259388, 89.794895)" fill="none" stroke-linejoin="miter" d="M 468.622691 237.66046 C 468.622691 237.66046 466.531837 232.786675 466.496974 227.915552 C 466.534058 223.054842 467.341808 218.453131 467.341808 218.453131 L 477.714459 218.332399 C 477.496631 219.849169 477.204205 223.419539 477.158074 227.320469 C 477.194262 231.159586 479.314246 237.3647 479.314246 237.3647 Z M 468.622691 237.66046 " stroke="rgb(0%, 0%, 0%)" stroke-width="1" stroke-opacity="0.4706" stroke-miterlimit="4"/></g></g></g><g clip-path="url(#id61)"><g clip-path="url(#id62)"><g clip-path="url(#id63)"><path fill="rgb(9.408569%, 23.919678%, 41.569519%)" d="M 197.5 97.890625 C 197.5 97.890625 197.398438 97.742188 197.296875 97.355469 C 197.238281 97 197.207031 96.734375 197.230469 96.726562 L 197.75 96.621094 C 197.800781 96.738281 197.789062 96.878906 197.890625 97.230469 C 197.953125 97.589844 198.09375 97.820312 198.023438 97.820312 Z M 197.5 97.890625 " fill-opacity="0.749" fill-rule="evenodd"/></g></g></g><g clip-path="url(#id64)"><g clip-path="url(#id65)"><g clip-path="url(#id66)"><path stroke-linecap="butt" transform="matrix(0.0531883, -0.00766833, 0.00763853, 0.0529816, 165.259388, 89.794895)" fill="none" stroke-linejoin="miter" d="M 572.319407 235.637815 C 572.319407 235.637815 570.842964 232.62244 569.99926 225.201209 C 569.863984 218.472341 569.99376 213.47759 570.446184 213.395615 L 580.295127 212.830442 C 580.919248 215.132628 580.32999 217.701565 581.267049 224.472751 C 581.463899 231.284259 583.441978 235.920537 582.146942 235.733099 Z M 572.319407 235.637815 " stroke="rgb(0%, 0%, 0%)" stroke-width="1" stroke-opacity="0.4706" stroke-miterlimit="4"/></g></g></g><g clip-path="url(#id67)"><g clip-path="url(#id68)"><g clip-path="url(#id69)"><path fill="rgb(9.408569%, 23.919678%, 41.569519%)" d="M 198.488281 96.664062 L 198.578125 97.175781 C 198.578125 97.175781 198.761719 97.164062 199.125 96.988281 C 199.488281 96.8125 199.9375 96.253906 199.929688 96.222656 C 199.925781 96.191406 199.480469 96.007812 199.480469 96.007812 C 199.480469 96.007812 199.523438 96.09375 199.34375 96.246094 C 199.164062 96.394531 198.488281 96.664062 198.488281 96.664062 Z M 198.488281 96.664062 " fill-opacity="0.2667" fill-rule="evenodd"/></g></g></g><g clip-path="url(#id70)"><g clip-path="url(#id71)"><g clip-path="url(#id72)"><path stroke-linecap="butt" transform="matrix(0.0531883, -0.00766833, 0.00763853, 0.0529816, 165.259388, 89.794895)" fill="none" stroke-linejoin="miter" d="M 593.778907 215.59304 L 594.074844 225.294299 C 594.074844 225.294299 597.487446 225.567039 604.64524 223.285248 C 611.803035 221.003457 621.560182 211.872498 621.499271 211.273854 C 621.510306 210.685624 613.79593 206.103841 613.79593 206.103841 C 613.79593 206.103841 614.35914 207.807383 610.645066 210.145233 C 606.941364 212.410856 593.778907 215.59304 593.778907 215.59304 Z M 593.778907 215.59304 " stroke="rgb(0%, 0%, 0%)" stroke-width="1" stroke-opacity="1" stroke-miterlimit="4"/></g></g></g><g clip-path="url(#id73)"><g clip-path="url(#id74)"><g clip-path="url(#id75)"><path fill="rgb(9.408569%, 23.919678%, 41.569519%)" d="M 190.167969 102.210938 C 189.945312 102.058594 189.925781 101.921875 189.894531 101.710938 C 189.863281 101.496094 189.832031 101.160156 189.929688 101.085938 C 190.027344 101.007812 189.992188 100.984375 190.113281 101.074219 C 190.234375 101.164062 190.308594 101.355469 190.328125 101.476562 C 190.34375 101.597656 190.359375 101.8125 190.316406 101.957031 C 190.277344 102.101562 190.230469 102.203125 190.167969 102.210938 Z M 190.167969 102.210938 " fill-opacity="0.6824" fill-rule="evenodd"/></g></g></g><g clip-path="url(#id76)"><g clip-path="url(#id77)"><g clip-path="url(#id78)"><path stroke-linecap="butt" transform="matrix(0.0531883, -0.00766833, 0.00763853, 0.0529816, 165.259388, 89.794895)" fill="none" stroke-linejoin="miter" d="M 425.803639 295.975402 C 422.107229 292.56499 422.110543 289.984974 422.0951 286.001403 C 422.09003 281.945604 422.406516 275.650765 424.40226 274.53878 C 426.408376 273.354568 425.823095 272.827486 427.814862 274.81152 C 429.806628 276.795554 430.665346 280.532535 430.703522 282.823643 C 430.669753 285.104337 430.387037 289.118482 429.211834 291.676341 C 428.108577 294.244613 426.975528 295.997559 425.803639 295.975402 Z M 425.803639 295.975402 " stroke="rgb(0%, 0%, 0%)" stroke-width="1" stroke-opacity="1" stroke-miterlimit="4"/></g></g></g><g clip-path="url(#id79)"><g clip-path="url(#id80)"><g clip-path="url(#id81)"><path fill="rgb(9.408569%, 23.919678%, 41.569519%)" d="M 176.789062 99.660156 L 175.925781 98.558594 C 175.925781 98.558594 176.609375 99.335938 176.972656 99.414062 C 177.335938 99.492188 179.261719 99.128906 179.261719 99.128906 Z M 176.789062 99.660156 " fill-opacity="0.2863" fill-rule="evenodd"/></g></g></g><g clip-path="url(#id82)"><g clip-path="url(#id83)"><g clip-path="url(#id84)"><path fill="rgb(9.408569%, 23.919678%, 41.569519%)" d="M 189.539062 99.703125 C 189.539062 99.703125 188.15625 101.085938 185.394531 103.277344 C 182.636719 105.472656 182.179688 105.972656 181.921875 106.011719 C 181.664062 106.046875 181.890625 105.796875 181.890625 105.796875 C 181.890625 105.796875 187.496094 101.398438 189.539062 99.703125 Z M 189.539062 99.703125 " fill-opacity="0.2863" fill-rule="evenodd"/></g></g></g><g clip-path="url(#id85)"><g clip-path="url(#id86)"><g clip-path="url(#id87)"><path fill="rgb(9.408569%, 23.919678%, 41.569519%)" d="M 188.5625 94.613281 L 189.84375 97.097656 L 188.21875 97.421875 C 188.21875 97.421875 188.527344 97.417969 189.308594 97.042969 C 190.089844 96.667969 188.5625 94.613281 188.5625 94.613281 Z M 188.5625 94.613281 " fill-opacity="0.2863" fill-rule="evenodd"/></g></g></g><g clip-path="url(#id88)"><g clip-path="url(#id89)"><g clip-path="url(#id90)"><path fill="rgb(9.408569%, 23.919678%, 41.569519%)" d="M 187.058594 102.375 C 188.359375 102.511719 189.984375 102.3125 190.074219 102.265625 C 189.964844 102.082031 189.839844 102.039062 189.8125 101.695312 C 189.773438 101.132812 189.828125 101.160156 189.855469 100.996094 C 189.757812 101.097656 189.707031 101.292969 189.660156 101.5625 C 189.726562 101.875 189.863281 101.953125 189.492188 102.136719 C 189.125 102.324219 187.058594 102.375 187.058594 102.375 Z M 187.058594 102.375 " fill-opacity="0.2863" fill-rule="evenodd"/></g></g></g><g fill="rgb(9.408569%, 23.919678%, 41.569519%)" fill-opacity="1"><g transform="translate(126.928327, 261.677649)"><g><path d="M 11.625 -10.390625 C 11.625 -9.910156 11.554688 -9.457031 11.421875 -9.03125 C 11.285156 -8.613281 11.097656 -8.226562 10.859375 -7.875 C 10.628906 -7.519531 10.347656 -7.207031 10.015625 -6.9375 C 9.679688 -6.664062 9.316406 -6.445312 8.921875 -6.28125 L 13.828125 0 L 10.140625 0 L 5.5625 -5.96875 L 4.15625 -5.96875 L 4.15625 0 L 0.984375 0 L 0.984375 -14.796875 L 7.359375 -14.796875 C 7.941406 -14.796875 8.492188 -14.675781 9.015625 -14.4375 C 9.535156 -14.207031 9.988281 -13.894531 10.375 -13.5 C 10.757812 -13.101562 11.0625 -12.640625 11.28125 -12.109375 C 11.507812 -11.578125 11.625 -11.003906 11.625 -10.390625 Z M 6.96875 -8.84375 C 7.375 -8.84375 7.722656 -8.988281 8.015625 -9.28125 C 8.304688 -9.582031 8.453125 -9.953125 8.453125 -10.390625 C 8.453125 -10.804688 8.304688 -11.160156 8.015625 -11.453125 C 7.722656 -11.753906 7.375 -11.90625 6.96875 -11.90625 L 4.15625 -11.90625 L 4.15625 -8.84375 Z M 6.96875 -8.84375 "/></g></g></g><g fill="rgb(9.408569%, 23.919678%, 41.569519%)" fill-opacity="1"><g transform="translate(155.584566, 261.677649)"><g><path d="M 6.359375 -14.796875 L 6.359375 -12.125 L 5.25 -12.125 L 5.25 -2.65625 L 6.359375 -2.65625 L 6.359375 0 L 0.984375 0 L 0.984375 -2.65625 L 2.09375 -2.65625 L 2.09375 -12.125 L 0.984375 -12.125 L 0.984375 -14.796875 Z M 6.359375 -14.796875 "/></g></g></g><g fill="rgb(9.408569%, 23.919678%, 41.569519%)" fill-opacity="1"><g transform="translate(177.235968, 261.677649)"><g><path d="M 13.9375 -14.796875 L 16.921875 -14.796875 L 16.921875 0 L 13.765625 0 L 13.765625 -9.765625 L 10.234375 -4.8125 L 7.71875 -4.8125 L 4.15625 -9.609375 L 4.15625 0 L 0.984375 0 L 0.984375 -14.796875 L 3.984375 -14.796875 L 8.984375 -7.96875 Z M 13.9375 -14.796875 "/></g></g></g><g fill="rgb(9.408569%, 23.919678%, 41.569519%)" fill-opacity="1"><g transform="translate(209.457166, 261.677649)"><g><path d="M 7.96875 -15 C 8.96875 -15 9.910156 -14.796875 10.796875 -14.390625 C 11.691406 -13.984375 12.46875 -13.429688 13.125 -12.734375 C 13.789062 -12.046875 14.3125 -11.242188 14.6875 -10.328125 C 15.070312 -9.410156 15.265625 -8.429688 15.265625 -7.390625 C 15.265625 -6.359375 15.070312 -5.375 14.6875 -4.4375 C 14.3125 -3.507812 13.789062 -2.695312 13.125 -2 C 12.46875 -1.300781 11.691406 -0.75 10.796875 -0.34375 C 9.910156 0.0625 8.96875 0.265625 7.96875 0.265625 C 6.96875 0.265625 6.019531 0.0625 5.125 -0.34375 C 4.238281 -0.75 3.46875 -1.300781 2.8125 -2 C 2.15625 -2.695312 1.632812 -3.507812 1.25 -4.4375 C 0.875 -5.375 0.6875 -6.359375 0.6875 -7.390625 C 0.6875 -8.429688 0.875 -9.410156 1.25 -10.328125 C 1.632812 -11.242188 2.15625 -12.046875 2.8125 -12.734375 C 3.46875 -13.429688 4.238281 -13.984375 5.125 -14.390625 C 6.019531 -14.796875 6.96875 -15 7.96875 -15 Z M 7.96875 -2.875 C 8.539062 -2.875 9.078125 -2.992188 9.578125 -3.234375 C 10.078125 -3.472656 10.515625 -3.796875 10.890625 -4.203125 C 11.265625 -4.609375 11.554688 -5.082031 11.765625 -5.625 C 11.984375 -6.175781 12.09375 -6.765625 12.09375 -7.390625 C 12.09375 -8.015625 11.984375 -8.597656 11.765625 -9.140625 C 11.554688 -9.691406 11.265625 -10.171875 10.890625 -10.578125 C 10.515625 -10.992188 10.078125 -11.316406 9.578125 -11.546875 C 9.078125 -11.785156 8.539062 -11.90625 7.96875 -11.90625 C 7.394531 -11.90625 6.859375 -11.785156 6.359375 -11.546875 C 5.859375 -11.316406 5.421875 -10.992188 5.046875 -10.578125 C 4.671875 -10.171875 4.375 -9.691406 4.15625 -9.140625 C 3.945312 -8.597656 3.84375 -8.015625 3.84375 -7.390625 C 3.84375 -6.765625 3.945312 -6.175781 4.15625 -5.625 C 4.375 -5.082031 4.671875 -4.609375 5.046875 -4.203125 C 5.421875 -3.796875 5.859375 -3.472656 6.359375 -3.234375 C 6.859375 -2.992188 7.394531 -2.875 7.96875 -2.875 Z M 7.96875 -2.875 "/></g></g></g><g fill="rgb(9.408569%, 23.919678%, 41.569519%)" fill-opacity="1"><g transform="translate(239.73953, 261.677649)"><g><path d="M 11.625 -10.390625 C 11.625 -9.910156 11.554688 -9.457031 11.421875 -9.03125 C 11.285156 -8.613281 11.097656 -8.226562 10.859375 -7.875 C 10.628906 -7.519531 10.347656 -7.207031 10.015625 -6.9375 C 9.679688 -6.664062 9.316406 -6.445312 8.921875 -6.28125 L 13.828125 0 L 10.140625 0 L 5.5625 -5.96875 L 4.15625 -5.96875 L 4.15625 0 L 0.984375 0 L 0.984375 -14.796875 L 7.359375 -14.796875 C 7.941406 -14.796875 8.492188 -14.675781 9.015625 -14.4375 C 9.535156 -14.207031 9.988281 -13.894531 10.375 -13.5 C 10.757812 -13.101562 11.0625 -12.640625 11.28125 -12.109375 C 11.507812 -11.578125 11.625 -11.003906 11.625 -10.390625 Z M 6.96875 -8.84375 C 7.375 -8.84375 7.722656 -8.988281 8.015625 -9.28125 C 8.304688 -9.582031 8.453125 -9.953125 8.453125 -10.390625 C 8.453125 -10.804688 8.304688 -11.160156 8.015625 -11.453125 C 7.722656 -11.753906 7.375 -11.90625 6.96875 -11.90625 L 4.15625 -11.90625 L 4.15625 -8.84375 Z M 6.96875 -8.84375 "/></g></g></g><g fill="rgb(9.408569%, 23.919678%, 41.569519%)" fill-opacity="1"><g transform="translate(134.392832, 284.089347)"><g><path d="M 5.53125 -7.53125 L 5.53125 -6.5625 L 3.515625 -6.5625 L 3.515625 0 L 2.5 0 L 2.5 -6.5625 L 0.53125 -6.5625 L 0.53125 -7.53125 Z M 5.53125 -7.53125 "/></g></g></g><g fill="rgb(9.408569%, 23.919678%, 41.569519%)" fill-opacity="1"><g transform="translate(142.229627, 284.089347)"><g><path d="M 5.234375 0 L 3.453125 -2.78125 C 3.398438 -2.769531 3.316406 -2.765625 3.203125 -2.765625 L 2.09375 -2.765625 L 2.09375 0 L 1.078125 0 L 1.078125 -7.53125 L 3.09375 -7.53125 C 3.601562 -7.53125 4.0625 -7.441406 4.46875 -7.265625 C 4.875 -7.085938 5.191406 -6.820312 5.421875 -6.46875 C 5.648438 -6.113281 5.765625 -5.691406 5.765625 -5.203125 C 5.765625 -4.734375 5.660156 -4.300781 5.453125 -3.90625 C 5.253906 -3.519531 4.941406 -3.226562 4.515625 -3.03125 L 6.40625 0 Z M 3.1875 -3.75 C 3.726562 -3.75 4.117188 -3.890625 4.359375 -4.171875 C 4.597656 -4.460938 4.71875 -4.789062 4.71875 -5.15625 C 4.71875 -5.382812 4.664062 -5.601562 4.5625 -5.8125 C 4.46875 -6.03125 4.3125 -6.207031 4.09375 -6.34375 C 3.875 -6.488281 3.597656 -6.5625 3.265625 -6.5625 L 2.09375 -6.5625 L 2.09375 -3.75 Z M 3.1875 -3.75 "/></g></g></g><g fill="rgb(9.408569%, 23.919678%, 41.569519%)" fill-opacity="1"><g transform="translate(150.879032, 284.089347)"><g><path d="M 5.03125 -1.984375 L 2.140625 -1.984375 L 1.328125 0 L 0.328125 0 L 3.625 -7.84375 L 3.6875 -7.84375 L 6.984375 0 L 5.8125 0 Z M 4.6875 -2.859375 L 3.609375 -5.609375 L 2.5 -2.859375 Z M 4.6875 -2.859375 "/></g></g></g><g fill="rgb(9.408569%, 23.919678%, 41.569519%)" fill-opacity="1"><g transform="translate(159.955578, 284.089347)"><g><path d="M 7.078125 -7.53125 L 3.75 0.359375 L 0.421875 -7.53125 L 1.625 -7.53125 L 3.796875 -2.109375 L 5.890625 -7.53125 Z M 7.078125 -7.53125 "/></g></g></g><g fill="rgb(9.408569%, 23.919678%, 41.569519%)" fill-opacity="1"><g transform="translate(169.219644, 284.089347)"><g><path d="M 5.984375 -7.53125 L 5.984375 -6.5625 L 2.09375 -6.5625 L 2.09375 -4.265625 L 5.5625 -4.265625 L 5.5625 -3.296875 L 2.09375 -3.296875 L 2.09375 -0.984375 L 6.125 -0.984375 L 6.125 0 L 1.078125 0 L 1.078125 -7.53125 Z M 5.984375 -7.53125 "/></g></g></g><g fill="rgb(9.408569%, 23.919678%, 41.569519%)" fill-opacity="1"><g transform="translate(177.796115, 284.089347)"><g><path d="M 2.09375 -7.53125 L 2.09375 -0.984375 L 5.9375 -0.984375 L 5.9375 0 L 1.078125 0 L 1.078125 -7.53125 Z M 2.09375 -7.53125 "/></g></g></g><g fill="rgb(9.408569%, 23.919678%, 41.569519%)" fill-opacity="1"><g transform="translate(186.049634, 284.089347)"><g/></g></g><g fill="rgb(9.408569%, 23.919678%, 41.569519%)" fill-opacity="1"><g transform="translate(191.115229, 284.089347)"><g><path d="M 5.03125 -1.984375 L 2.140625 -1.984375 L 1.328125 0 L 0.328125 0 L 3.625 -7.84375 L 3.6875 -7.84375 L 6.984375 0 L 5.8125 0 Z M 4.6875 -2.859375 L 3.609375 -5.609375 L 2.5 -2.859375 Z M 4.6875 -2.859375 "/></g></g></g><g fill="rgb(9.408569%, 23.919678%, 41.569519%)" fill-opacity="1"><g transform="translate(200.191772, 284.089347)"><g><path d="M 7 -0.640625 C 6.769531 -0.460938 6.410156 -0.296875 5.921875 -0.140625 C 5.429688 0.00390625 4.972656 0.078125 4.546875 0.078125 C 3.765625 0.078125 3.070312 -0.0820312 2.46875 -0.40625 C 1.875 -0.726562 1.414062 -1.171875 1.09375 -1.734375 C 0.769531 -2.296875 0.609375 -2.925781 0.609375 -3.625 C 0.609375 -4.445312 0.78125 -5.15625 1.125 -5.75 C 1.476562 -6.351562 1.945312 -6.816406 2.53125 -7.140625 C 3.125 -7.460938 3.773438 -7.625 4.484375 -7.625 C 4.910156 -7.625 5.3125 -7.570312 5.6875 -7.46875 C 6.0625 -7.363281 6.394531 -7.226562 6.6875 -7.0625 L 6.359375 -6.140625 C 6.140625 -6.265625 5.859375 -6.375 5.515625 -6.46875 C 5.179688 -6.5625 4.878906 -6.609375 4.609375 -6.609375 C 4.023438 -6.609375 3.507812 -6.488281 3.0625 -6.25 C 2.613281 -6.019531 2.265625 -5.679688 2.015625 -5.234375 C 1.773438 -4.796875 1.65625 -4.285156 1.65625 -3.703125 C 1.65625 -3.160156 1.773438 -2.675781 2.015625 -2.25 C 2.265625 -1.832031 2.609375 -1.503906 3.046875 -1.265625 C 3.492188 -1.035156 4.003906 -0.921875 4.578125 -0.921875 C 4.835938 -0.921875 5.09375 -0.945312 5.34375 -1 C 5.59375 -1.050781 5.800781 -1.128906 5.96875 -1.234375 L 5.96875 -2.71875 L 4.46875 -2.71875 L 4.46875 -3.6875 L 7 -3.6875 Z M 7 -0.640625 "/></g></g></g><g fill="rgb(9.408569%, 23.919678%, 41.569519%)" fill-opacity="1"><g transform="translate(209.799642, 284.089347)"><g><path d="M 5.984375 -7.53125 L 5.984375 -6.5625 L 2.09375 -6.5625 L 2.09375 -4.265625 L 5.5625 -4.265625 L 5.5625 -3.296875 L 2.09375 -3.296875 L 2.09375 -0.984375 L 6.125 -0.984375 L 6.125 0 L 1.078125 0 L 1.078125 -7.53125 Z M 5.984375 -7.53125 "/></g></g></g><g fill="rgb(9.408569%, 23.919678%, 41.569519%)" fill-opacity="1"><g transform="translate(218.376112, 284.089347)"><g><path d="M 7.65625 -7.53125 L 7.65625 0.25 L 7.625 0.25 L 2.078125 -5.375 L 2.109375 0 L 1.078125 0 L 1.078125 -7.765625 L 1.140625 -7.765625 L 6.65625 -2.078125 L 6.640625 -7.53125 Z M 7.65625 -7.53125 "/></g></g></g><g fill="rgb(9.408569%, 23.919678%, 41.569519%)" fill-opacity="1"><g transform="translate(228.879928, 284.089347)"><g><path d="M 6.625 -0.5625 C 6.375 -0.40625 6.0625 -0.257812 5.6875 -0.125 C 5.320312 0.0078125 4.921875 0.078125 4.484375 0.078125 C 3.710938 0.078125 3.03125 -0.0859375 2.4375 -0.421875 C 1.851562 -0.765625 1.398438 -1.222656 1.078125 -1.796875 C 0.765625 -2.378906 0.609375 -3.015625 0.609375 -3.703125 C 0.609375 -4.453125 0.769531 -5.125 1.09375 -5.71875 C 1.414062 -6.3125 1.859375 -6.773438 2.421875 -7.109375 C 2.984375 -7.453125 3.625 -7.625 4.34375 -7.625 C 4.769531 -7.625 5.164062 -7.566406 5.53125 -7.453125 C 5.90625 -7.335938 6.238281 -7.191406 6.53125 -7.015625 L 6.125 -6.0625 C 5.539062 -6.457031 4.957031 -6.65625 4.375 -6.65625 C 3.882812 -6.65625 3.429688 -6.523438 3.015625 -6.265625 C 2.609375 -6.003906 2.28125 -5.648438 2.03125 -5.203125 C 1.789062 -4.765625 1.671875 -4.285156 1.671875 -3.765625 C 1.671875 -3.222656 1.78125 -2.734375 2 -2.296875 C 2.226562 -1.859375 2.550781 -1.515625 2.96875 -1.265625 C 3.394531 -1.015625 3.878906 -0.890625 4.421875 -0.890625 C 5.097656 -0.890625 5.6875 -1.082031 6.1875 -1.46875 Z M 6.625 -0.5625 "/></g></g></g><g fill="rgb(9.408569%, 23.919678%, 41.569519%)" fill-opacity="1"><g transform="translate(237.883556, 284.089347)"><g><path d="M 6.921875 -7.53125 L 4.09375 -2.515625 L 4.09375 0 L 3.078125 0 L 3.078125 -2.515625 L 0.296875 -7.53125 L 1.546875 -7.53125 L 3.609375 -3.65625 L 5.6875 -7.53125 Z M 6.921875 -7.53125 "/></g></g></g></svg>